<ttFont>
    <TTGlyph name=".notdef" xMin="50" yMin="0" xMax="496" yMax="653">
      <contour>
        <pt x="496" y="653" on="1"/>
        <pt x="493" y="8" on="1"/>
        <pt x="50" y="0" on="1"/>
        <pt x="50" y="650" on="1"/>
      </contour>
      <contour>
        <pt x="275" y="378" on="1"/>
        <pt x="279" y="378" on="1"/>
        <pt x="417" y="595" on="1"/>
        <pt x="132" y="590" on="1"/>
      </contour>
      <contour>
        <pt x="271" y="276" on="1"/>
        <pt x="144" y="68" on="1"/>
        <pt x="420" y="66" on="1"/>
        <pt x="275" y="276" on="1"/>
      </contour>
      <contour>
        <pt x="237" y="332" on="1"/>
        <pt x="119" y="509" on="1"/>
        <pt x="118" y="132" on="1"/>
      </contour>
      <contour>
        <pt x="315" y="331" on="1"/>
        <pt x="426" y="165" on="1"/>
        <pt x="427" y="508" on="1"/>
      </contour>
    </TTGlyph>
    <TTGlyph name="A" xMin="10" yMin="-13" xMax="462" yMax="648">
      <contour>
        <pt x="321" y="171" on="1"/>
        <pt x="138" y="175" on="1"/>
        <pt x="96" y="-13" on="1"/>
        <pt x="10" y="0" on="1"/>
        <pt x="175" y="642" on="1"/>
        <pt x="254" y="648" on="1"/>
        <pt x="462" y="0" on="1"/>
        <pt x="375" y="-13" on="1"/>
      </contour>
      <contour>
        <pt x="152" y="236" on="1"/>
        <pt x="303" y="232" on="1"/>
        <pt x="217" y="528" on="1"/>
      </contour>
    </TTGlyph>
    <TTGlyph name="AE" xMin="-12" yMin="-12" xMax="684" yMax="652">
      <contour>
        <pt x="383" y="3" on="1"/>
        <pt x="380" y="208" on="1"/>
        <pt x="171" y="183" on="1"/>
        <pt x="67" y="-12" on="1"/>
        <pt x="-12" y="11" on="1"/>
        <pt x="340" y="640" on="1"/>
        <pt x="673" y="652" on="1"/>
        <pt x="677" y="566" on="1"/>
        <pt x="459" y="565" on="1"/>
        <pt x="465" y="294" on="1"/>
        <pt x="627" y="314" on="1"/>
        <pt x="629" y="241" on="1"/>
        <pt x="464" y="223" on="1"/>
        <pt x="466" y="79" on="1"/>
        <pt x="684" y="77" on="1"/>
        <pt x="684" y="-8" on="1"/>
      </contour>
      <contour>
        <pt x="373" y="561" on="1"/>
        <pt x="207" y="256" on="1"/>
        <pt x="379" y="276" on="1"/>
      </contour>
    </TTGlyph>
    <TTGlyph name="Aacute" xMin="10" yMin="-18" xMax="460" yMax="863">
      <contour>
        <pt x="319" y="171" on="1"/>
        <pt x="136" y="175" on="1"/>
        <pt x="95" y="-10" on="1"/>
        <pt x="10" y="7" on="1"/>
        <pt x="173" y="642" on="1"/>
        <pt x="252" y="648" on="1"/>
        <pt x="460" y="1" on="1"/>
        <pt x="374" y="-18" on="1"/>
      </contour>
      <contour>
        <pt x="150" y="236" on="1"/>
        <pt x="301" y="232" on="1"/>
        <pt x="215" y="528" on="1"/>
      </contour>
      <contour>
        <pt x="160" y="721" on="1"/>
        <pt x="261" y="863" on="1"/>
        <pt x="343" y="828" on="1"/>
        <pt x="215" y="686" on="1"/>
      </contour>
    </TTGlyph>
    <TTGlyph name="Acircumflex" xMin="10" yMin="-18" xMax="460" yMax="862">
      <contour>
        <pt x="319" y="171" on="1"/>
        <pt x="136" y="175" on="1"/>
        <pt x="95" y="-10" on="1"/>
        <pt x="10" y="7" on="1"/>
        <pt x="173" y="642" on="1"/>
        <pt x="252" y="648" on="1"/>
        <pt x="460" y="1" on="1"/>
        <pt x="374" y="-18" on="1"/>
      </contour>
      <contour>
        <pt x="281" y="685" on="1"/>
        <pt x="222" y="789" on="1"/>
        <pt x="162" y="685" on="1"/>
        <pt x="80" y="720" on="1"/>
        <pt x="211" y="862" on="1"/>
        <pt x="233" y="862" on="1"/>
        <pt x="363" y="720" on="1"/>
      </contour>
      <contour>
        <pt x="150" y="236" on="1"/>
        <pt x="301" y="232" on="1"/>
        <pt x="215" y="528" on="1"/>
      </contour>
    </TTGlyph>
    <TTGlyph name="Adieresis" xMin="10" yMin="-18" xMax="460" yMax="813">
      <contour>
        <pt x="319" y="171" on="1"/>
        <pt x="136" y="175" on="1"/>
        <pt x="95" y="-10" on="1"/>
        <pt x="10" y="7" on="1"/>
        <pt x="173" y="642" on="1"/>
        <pt x="252" y="648" on="1"/>
        <pt x="460" y="1" on="1"/>
        <pt x="374" y="-18" on="1"/>
      </contour>
      <contour>
        <pt x="150" y="236" on="1"/>
        <pt x="301" y="232" on="1"/>
        <pt x="215" y="528" on="1"/>
      </contour>
      <contour>
        <pt x="277" y="703" on="0"/>
        <pt x="253" y="733" on="0"/>
        <pt x="253" y="782" on="0"/>
        <pt x="288" y="813" on="0"/>
        <pt x="330" y="813" on="0"/>
        <pt x="351" y="787" on="0"/>
        <pt x="351" y="739" on="0"/>
        <pt x="320" y="703" on="0"/>
      </contour>
      <contour>
        <pt x="105" y="703" on="0"/>
        <pt x="82" y="732" on="0"/>
        <pt x="82" y="783" on="0"/>
        <pt x="114" y="813" on="0"/>
        <pt x="136" y="813" on="1"/>
        <pt x="180" y="813" on="0"/>
        <pt x="180" y="767" on="1"/>
        <pt x="180" y="740" on="0"/>
        <pt x="146" y="703" on="0"/>
      </contour>
    </TTGlyph>
    <TTGlyph name="Agrave" xMin="10" yMin="-18" xMax="460" yMax="862">
      <contour>
        <pt x="319" y="171" on="1"/>
        <pt x="136" y="175" on="1"/>
        <pt x="95" y="-10" on="1"/>
        <pt x="10" y="7" on="1"/>
        <pt x="173" y="642" on="1"/>
        <pt x="252" y="648" on="1"/>
        <pt x="460" y="1" on="1"/>
        <pt x="374" y="-18" on="1"/>
      </contour>
      <contour>
        <pt x="150" y="236" on="1"/>
        <pt x="301" y="232" on="1"/>
        <pt x="215" y="528" on="1"/>
      </contour>
      <contour>
        <pt x="176" y="862" on="1"/>
        <pt x="277" y="720" on="1"/>
        <pt x="222" y="685" on="1"/>
        <pt x="94" y="827" on="1"/>
      </contour>
    </TTGlyph>
    <TTGlyph name="Aring" xMin="10" yMin="-18" xMax="460" yMax="835">
      <contour>
        <pt x="117" y="772" on="0"/>
        <pt x="172" y="835" on="0"/>
        <pt x="266" y="835" on="0"/>
        <pt x="312" y="782" on="0"/>
        <pt x="312" y="711" on="0"/>
        <pt x="282" y="654" on="0"/>
        <pt x="254" y="642" on="1"/>
        <pt x="460" y="1" on="1"/>
        <pt x="374" y="-18" on="1"/>
        <pt x="319" y="171" on="1"/>
        <pt x="136" y="175" on="1"/>
        <pt x="95" y="-10" on="1"/>
        <pt x="10" y="7" on="1"/>
        <pt x="173" y="642" on="1"/>
        <pt x="147" y="653" on="0"/>
        <pt x="117" y="701" on="0"/>
      </contour>
      <contour>
        <pt x="150" y="236" on="1"/>
        <pt x="301" y="232" on="1"/>
        <pt x="215" y="528" on="1"/>
      </contour>
      <contour>
        <pt x="212" y="688" on="1"/>
        <pt x="256" y="688" on="0"/>
        <pt x="256" y="780" on="0"/>
        <pt x="220" y="780" on="1"/>
        <pt x="197" y="780" on="0"/>
        <pt x="172" y="753" on="0"/>
        <pt x="172" y="715" on="0"/>
        <pt x="194" y="688" on="0"/>
      </contour>
    </TTGlyph>
    <TTGlyph name="Atilde" xMin="10" yMin="-18" xMax="460" yMax="802">
      <contour>
        <pt x="319" y="171" on="1"/>
        <pt x="136" y="175" on="1"/>
        <pt x="95" y="-10" on="1"/>
        <pt x="10" y="7" on="1"/>
        <pt x="173" y="642" on="1"/>
        <pt x="252" y="648" on="1"/>
        <pt x="460" y="1" on="1"/>
        <pt x="374" y="-18" on="1"/>
      </contour>
      <contour>
        <pt x="108" y="683" on="1"/>
        <pt x="42" y="713" on="1"/>
        <pt x="92" y="795" on="0"/>
        <pt x="153" y="795" on="1"/>
        <pt x="178" y="795" on="0"/>
        <pt x="259" y="761" on="0"/>
        <pt x="274" y="761" on="1"/>
        <pt x="304" y="761" on="0"/>
        <pt x="323" y="802" on="1"/>
        <pt x="386" y="767" on="1"/>
        <pt x="353" y="684" on="0"/>
        <pt x="300" y="684" on="1"/>
        <pt x="276" y="684" on="0"/>
        <pt x="182" y="729" on="0"/>
        <pt x="162" y="729" on="1"/>
        <pt x="127" y="729" on="0"/>
      </contour>
      <contour>
        <pt x="150" y="236" on="1"/>
        <pt x="301" y="232" on="1"/>
        <pt x="215" y="528" on="1"/>
      </contour>
    </TTGlyph>
    <TTGlyph name="B" xMin="55" yMin="-4" xMax="425" yMax="651">
      <contour>
        <pt x="55" y="630" on="1"/>
        <pt x="118" y="651" on="0"/>
        <pt x="292" y="651" on="0"/>
        <pt x="389" y="560" on="0"/>
        <pt x="389" y="495" on="1"/>
        <pt x="389" y="454" on="0"/>
        <pt x="347" y="376" on="0"/>
        <pt x="310" y="354" on="1"/>
        <pt x="351" y="346" on="0"/>
        <pt x="425" y="267" on="0"/>
        <pt x="425" y="192" on="1"/>
        <pt x="425" y="141" on="0"/>
        <pt x="390" y="67" on="0"/>
        <pt x="337" y="26" on="0"/>
        <pt x="250" y="2" on="0"/>
        <pt x="171" y="-4" on="0"/>
        <pt x="87" y="-4" on="0"/>
        <pt x="62" y="0" on="1"/>
      </contour>
      <contour>
        <pt x="143" y="296" on="1"/>
        <pt x="145" y="77" on="1"/>
        <pt x="171" y="71" on="0"/>
        <pt x="203" y="71" on="1"/>
        <pt x="260" y="71" on="0"/>
        <pt x="341" y="131" on="0"/>
        <pt x="341" y="248" on="0"/>
        <pt x="268" y="305" on="0"/>
        <pt x="174" y="305" on="0"/>
      </contour>
      <contour>
        <pt x="140" y="576" on="1"/>
        <pt x="142" y="352" on="1"/>
        <pt x="228" y="357" on="0"/>
        <pt x="304" y="416" on="0"/>
        <pt x="304" y="530" on="0"/>
        <pt x="245" y="584" on="0"/>
        <pt x="196" y="584" on="1"/>
        <pt x="170" y="584" on="0"/>
      </contour>
    </TTGlyph>
    <TTGlyph name="C" xMin="30" yMin="-13" xMax="462" yMax="651">
      <contour>
        <pt x="378" y="524" on="1"/>
        <pt x="346" y="570" on="0"/>
        <pt x="285" y="570" on="1"/>
        <pt x="241" y="570" on="0"/>
        <pt x="175" y="527" on="0"/>
        <pt x="156" y="492" on="1"/>
        <pt x="119" y="424" on="0"/>
        <pt x="119" y="222" on="0"/>
        <pt x="203" y="68" on="0"/>
        <pt x="293" y="68" on="1"/>
        <pt x="361" y="68" on="0"/>
        <pt x="390" y="131" on="1"/>
        <pt x="462" y="108" on="1"/>
        <pt x="440" y="55" on="0"/>
        <pt x="361" y="-13" on="0"/>
        <pt x="281" y="-13" on="1"/>
        <pt x="30" y="-13" on="0"/>
        <pt x="30" y="319" on="1"/>
        <pt x="30" y="457" on="0"/>
        <pt x="88" y="550" on="1"/>
        <pt x="117" y="597" on="0"/>
        <pt x="222" y="651" on="0"/>
        <pt x="293" y="651" on="1"/>
        <pt x="395" y="651" on="0"/>
        <pt x="446" y="586" on="1"/>
      </contour>
    </TTGlyph>
    <TTGlyph name="Ccedilla" xMin="30" yMin="-234" xMax="462" yMax="651">
      <contour>
        <pt x="223" y="-86" on="1"/>
        <pt x="235" y="-10" on="1"/>
        <pt x="30" y="19" on="0"/>
        <pt x="30" y="319" on="1"/>
        <pt x="30" y="457" on="0"/>
        <pt x="88" y="550" on="1"/>
        <pt x="117" y="597" on="0"/>
        <pt x="222" y="651" on="0"/>
        <pt x="293" y="651" on="1"/>
        <pt x="395" y="651" on="0"/>
        <pt x="446" y="586" on="1"/>
        <pt x="378" y="524" on="1"/>
        <pt x="346" y="570" on="0"/>
        <pt x="285" y="570" on="1"/>
        <pt x="241" y="570" on="0"/>
        <pt x="175" y="527" on="0"/>
        <pt x="156" y="492" on="1"/>
        <pt x="119" y="424" on="0"/>
        <pt x="119" y="222" on="0"/>
        <pt x="203" y="68" on="0"/>
        <pt x="293" y="68" on="1"/>
        <pt x="361" y="68" on="0"/>
        <pt x="390" y="131" on="1"/>
        <pt x="462" y="108" on="1"/>
        <pt x="429" y="25" on="0"/>
        <pt x="362" y="0" on="1"/>
        <pt x="332" y="-11" on="0"/>
        <pt x="293" y="-13" on="1"/>
        <pt x="284" y="-54" on="1"/>
        <pt x="288" y="-53" on="0"/>
        <pt x="296" y="-53" on="1"/>
        <pt x="330" y="-53" on="0"/>
        <pt x="384" y="-100" on="0"/>
        <pt x="384" y="-137" on="1"/>
        <pt x="384" y="-188" on="0"/>
        <pt x="308" y="-234" on="0"/>
        <pt x="210" y="-234" on="0"/>
        <pt x="172" y="-219" on="1"/>
        <pt x="193" y="-159" on="1"/>
        <pt x="215" y="-183" on="0"/>
        <pt x="255" y="-183" on="1"/>
        <pt x="307" y="-183" on="0"/>
        <pt x="307" y="-136" on="1"/>
        <pt x="307" y="-91" on="0"/>
        <pt x="252" y="-91" on="1"/>
        <pt x="242" y="-91" on="0"/>
        <pt x="231" y="-94" on="1"/>
      </contour>
    </TTGlyph>
    <TTGlyph name="D" xMin="51" yMin="-1" xMax="507" yMax="647">
      <contour>
        <pt x="192" y="-1" on="1"/>
        <pt x="102" y="-1" on="0"/>
        <pt x="63" y="5" on="1"/>
        <pt x="51" y="645" on="1"/>
        <pt x="68" y="647" on="0"/>
        <pt x="248" y="647" on="0"/>
        <pt x="362" y="615" on="0"/>
        <pt x="409" y="580" on="1"/>
        <pt x="507" y="507" on="0"/>
        <pt x="507" y="332" on="1"/>
        <pt x="507" y="176" on="0"/>
        <pt x="336" y="-1" on="0"/>
      </contour>
      <contour>
        <pt x="414" y="466" on="0"/>
        <pt x="278" y="583" on="0"/>
        <pt x="142" y="583" on="1"/>
        <pt x="147" y="67" on="1"/>
        <pt x="258" y="67" on="0"/>
        <pt x="332" y="120" on="1"/>
        <pt x="414" y="177" on="0"/>
      </contour>
    </TTGlyph>
    <TTGlyph name="Delta" xMin="18" yMin="1" xMax="469" yMax="648">
      <contour>
        <pt x="469" y="3" on="1"/>
        <pt x="18" y="1" on="1"/>
        <pt x="189" y="648" on="1"/>
        <pt x="266" y="645" on="1"/>
      </contour>
      <contour>
        <pt x="357" y="78" on="1"/>
        <pt x="227" y="528" on="1"/>
        <pt x="125" y="75" on="1"/>
      </contour>
    </TTGlyph>
    <TTGlyph name="E" xMin="42" yMin="-3" xMax="354" yMax="656">
      <contour>
        <pt x="42" y="640" on="1"/>
        <pt x="345" y="656" on="1"/>
        <pt x="349" y="567" on="1"/>
        <pt x="131" y="568" on="1"/>
        <pt x="135" y="376" on="1"/>
        <pt x="310" y="379" on="1"/>
        <pt x="309" y="291" on="1"/>
        <pt x="138" y="295" on="1"/>
        <pt x="138" y="82" on="1"/>
        <pt x="354" y="88" on="1"/>
        <pt x="354" y="-3" on="1"/>
        <pt x="54" y="1" on="1"/>
      </contour>
    </TTGlyph>
    <TTGlyph name="Eacute" xMin="42" yMin="-3" xMax="354" yMax="863">
      <contour>
        <pt x="42" y="640" on="1"/>
        <pt x="345" y="656" on="1"/>
        <pt x="349" y="567" on="1"/>
        <pt x="131" y="568" on="1"/>
        <pt x="135" y="376" on="1"/>
        <pt x="310" y="379" on="1"/>
        <pt x="309" y="291" on="1"/>
        <pt x="138" y="295" on="1"/>
        <pt x="138" y="82" on="1"/>
        <pt x="354" y="88" on="1"/>
        <pt x="354" y="-3" on="1"/>
        <pt x="54" y="1" on="1"/>
      </contour>
      <contour>
        <pt x="148" y="721" on="1"/>
        <pt x="249" y="863" on="1"/>
        <pt x="331" y="828" on="1"/>
        <pt x="203" y="686" on="1"/>
      </contour>
    </TTGlyph>
    <TTGlyph name="Ecircumflex" xMin="42" yMin="-3" xMax="354" yMax="862">
      <contour>
        <pt x="42" y="640" on="1"/>
        <pt x="345" y="656" on="1"/>
        <pt x="349" y="567" on="1"/>
        <pt x="131" y="568" on="1"/>
        <pt x="135" y="376" on="1"/>
        <pt x="310" y="379" on="1"/>
        <pt x="309" y="291" on="1"/>
        <pt x="138" y="295" on="1"/>
        <pt x="138" y="82" on="1"/>
        <pt x="354" y="88" on="1"/>
        <pt x="354" y="-3" on="1"/>
        <pt x="54" y="1" on="1"/>
      </contour>
      <contour>
        <pt x="270" y="685" on="1"/>
        <pt x="211" y="789" on="1"/>
        <pt x="151" y="685" on="1"/>
        <pt x="69" y="720" on="1"/>
        <pt x="200" y="862" on="1"/>
        <pt x="222" y="862" on="1"/>
        <pt x="352" y="720" on="1"/>
      </contour>
    </TTGlyph>
    <TTGlyph name="Edieresis" xMin="42" yMin="-3" xMax="354" yMax="812">
      <contour>
        <pt x="42" y="640" on="1"/>
        <pt x="345" y="656" on="1"/>
        <pt x="349" y="567" on="1"/>
        <pt x="131" y="568" on="1"/>
        <pt x="135" y="376" on="1"/>
        <pt x="310" y="379" on="1"/>
        <pt x="309" y="291" on="1"/>
        <pt x="138" y="295" on="1"/>
        <pt x="138" y="82" on="1"/>
        <pt x="354" y="88" on="1"/>
        <pt x="354" y="-3" on="1"/>
        <pt x="54" y="1" on="1"/>
      </contour>
      <contour>
        <pt x="271" y="702" on="0"/>
        <pt x="247" y="732" on="0"/>
        <pt x="247" y="781" on="0"/>
        <pt x="282" y="812" on="0"/>
        <pt x="324" y="812" on="0"/>
        <pt x="345" y="786" on="0"/>
        <pt x="345" y="738" on="0"/>
        <pt x="314" y="702" on="0"/>
      </contour>
      <contour>
        <pt x="99" y="702" on="0"/>
        <pt x="76" y="731" on="0"/>
        <pt x="76" y="782" on="0"/>
        <pt x="108" y="812" on="0"/>
        <pt x="130" y="812" on="1"/>
        <pt x="174" y="812" on="0"/>
        <pt x="174" y="766" on="1"/>
        <pt x="174" y="739" on="0"/>
        <pt x="140" y="702" on="0"/>
      </contour>
    </TTGlyph>
    <TTGlyph name="Egrave" xMin="42" yMin="-3" xMax="354" yMax="862">
      <contour>
        <pt x="42" y="640" on="1"/>
        <pt x="345" y="656" on="1"/>
        <pt x="349" y="567" on="1"/>
        <pt x="131" y="568" on="1"/>
        <pt x="135" y="376" on="1"/>
        <pt x="310" y="379" on="1"/>
        <pt x="309" y="291" on="1"/>
        <pt x="138" y="295" on="1"/>
        <pt x="138" y="82" on="1"/>
        <pt x="354" y="88" on="1"/>
        <pt x="354" y="-3" on="1"/>
        <pt x="54" y="1" on="1"/>
      </contour>
      <contour>
        <pt x="127" y="862" on="1"/>
        <pt x="228" y="720" on="1"/>
        <pt x="173" y="685" on="1"/>
        <pt x="45" y="827" on="1"/>
      </contour>
    </TTGlyph>
    <TTGlyph name="Eth" xMin="3" yMin="-1" xMax="543" yMax="647">
      <contour>
        <pt x="3" y="280" on="1"/>
        <pt x="15" y="356" on="1"/>
        <pt x="63" y="354" on="0"/>
        <pt x="92" y="354" on="1"/>
        <pt x="87" y="645" on="1"/>
        <pt x="104" y="647" on="0"/>
        <pt x="284" y="647" on="0"/>
        <pt x="398" y="615" on="0"/>
        <pt x="445" y="580" on="1"/>
        <pt x="543" y="507" on="0"/>
        <pt x="543" y="332" on="1"/>
        <pt x="543" y="176" on="0"/>
        <pt x="372" y="-1" on="0"/>
        <pt x="228" y="-1" on="1"/>
        <pt x="138" y="-1" on="0"/>
        <pt x="99" y="5" on="1"/>
        <pt x="94" y="282" on="1"/>
      </contour>
      <contour>
        <pt x="263" y="279" on="1"/>
        <pt x="181" y="281" on="1"/>
        <pt x="183" y="67" on="1"/>
        <pt x="294" y="67" on="0"/>
        <pt x="368" y="120" on="1"/>
        <pt x="450" y="177" on="0"/>
        <pt x="450" y="466" on="0"/>
        <pt x="314" y="583" on="0"/>
        <pt x="178" y="583" on="1"/>
        <pt x="180" y="354" on="1"/>
        <pt x="294" y="356" on="1"/>
        <pt x="267" y="279" on="0"/>
      </contour>
    </TTGlyph>
    <TTGlyph name="Euro" xMin="30" yMin="-13" xMax="536" yMax="651">
      <contour>
        <pt x="59" y="423" on="1"/>
        <pt x="75" y="421" on="0"/>
        <pt x="110" y="421" on="1"/>
        <pt x="143" y="651" on="0"/>
        <pt x="367" y="651" on="1"/>
        <pt x="469" y="651" on="0"/>
        <pt x="520" y="586" on="1"/>
        <pt x="452" y="524" on="1"/>
        <pt x="420" y="570" on="0"/>
        <pt x="291" y="570" on="0"/>
        <pt x="211" y="487" on="0"/>
        <pt x="199" y="421" on="1"/>
        <pt x="419" y="423" on="1"/>
        <pt x="397" y="356" on="1"/>
        <pt x="337" y="359" on="0"/>
        <pt x="210" y="359" on="1"/>
        <pt x="193" y="359" on="1"/>
        <pt x="193" y="357" on="1"/>
        <pt x="193" y="321" on="0"/>
        <pt x="195" y="304" on="1"/>
        <pt x="389" y="306" on="1"/>
        <pt x="370" y="240" on="1"/>
        <pt x="325" y="242" on="0"/>
        <pt x="205" y="242" on="1"/>
        <pt x="204" y="242" on="1"/>
        <pt x="220" y="164" on="0"/>
        <pt x="301" y="68" on="0"/>
        <pt x="435" y="68" on="0"/>
        <pt x="464" y="131" on="1"/>
        <pt x="536" y="108" on="1"/>
        <pt x="514" y="55" on="0"/>
        <pt x="435" y="-13" on="0"/>
        <pt x="355" y="-13" on="1"/>
        <pt x="243" y="-13" on="0"/>
        <pt x="126" y="125" on="0"/>
        <pt x="110" y="241" on="1"/>
        <pt x="30" y="240" on="1"/>
        <pt x="59" y="307" on="1"/>
        <pt x="104" y="305" on="1"/>
        <pt x="104" y="358" on="1"/>
        <pt x="32" y="357" on="1"/>
      </contour>
    </TTGlyph>
    <TTGlyph name="F" xMin="42" yMin="2" xMax="349" yMax="649">
      <contour>
        <pt x="130" y="3" on="1"/>
        <pt x="42" y="2" on="1"/>
        <pt x="50" y="640" on="1"/>
        <pt x="349" y="649" on="1"/>
        <pt x="349" y="566" on="1"/>
        <pt x="136" y="572" on="1"/>
        <pt x="136" y="370" on="1"/>
        <pt x="307" y="377" on="1"/>
        <pt x="303" y="288" on="1"/>
        <pt x="133" y="290" on="1"/>
      </contour>
    </TTGlyph>
    <TTGlyph name="G" xMin="25" yMin="-7" xMax="460" yMax="651">
      <contour>
        <pt x="276" y="326" on="1"/>
        <pt x="457" y="321" on="1"/>
        <pt x="460" y="285" on="0"/>
        <pt x="460" y="210" on="0"/>
        <pt x="441" y="124" on="0"/>
        <pt x="401" y="43" on="0"/>
        <pt x="328" y="-7" on="0"/>
        <pt x="210" y="-7" on="0"/>
        <pt x="108" y="44" on="0"/>
        <pt x="80" y="91" on="1"/>
        <pt x="25" y="181" on="0"/>
        <pt x="25" y="322" on="1"/>
        <pt x="25" y="455" on="0"/>
        <pt x="90" y="550" on="1"/>
        <pt x="122" y="596" on="0"/>
        <pt x="226" y="651" on="0"/>
        <pt x="343" y="651" on="0"/>
        <pt x="414" y="612" on="0"/>
        <pt x="447" y="567" on="1"/>
        <pt x="376" y="518" on="1"/>
        <pt x="333" y="571" on="0"/>
        <pt x="280" y="571" on="1"/>
        <pt x="200" y="571" on="0"/>
        <pt x="111" y="420" on="0"/>
        <pt x="111" y="316" on="1"/>
        <pt x="111" y="241" on="0"/>
        <pt x="145" y="161" on="1"/>
        <pt x="162" y="121" on="0"/>
        <pt x="226" y="69" on="0"/>
        <pt x="315" y="69" on="0"/>
        <pt x="379" y="166" on="0"/>
        <pt x="379" y="240" on="1"/>
        <pt x="379" y="247" on="0"/>
        <pt x="379" y="254" on="1"/>
        <pt x="276" y="255" on="1"/>
      </contour>
    </TTGlyph>
    <TTGlyph name="H" xMin="49" yMin="-6" xMax="483" yMax="652">
      <contour>
        <pt x="380" y="652" on="1"/>
        <pt x="466" y="649" on="1"/>
        <pt x="483" y="1" on="1"/>
        <pt x="390" y="1" on="1"/>
        <pt x="385" y="271" on="1"/>
        <pt x="152" y="271" on="1"/>
        <pt x="152" y="-6" on="1"/>
        <pt x="72" y="-6" on="1"/>
        <pt x="49" y="652" on="1"/>
        <pt x="141" y="652" on="1"/>
        <pt x="151" y="355" on="1"/>
        <pt x="384" y="355" on="1"/>
      </contour>
    </TTGlyph>
    <TTGlyph name="I" xMin="57" yMin="0" xMax="155" yMax="652">
      <contour>
        <pt x="57" y="647" on="1"/>
        <pt x="155" y="652" on="1"/>
        <pt x="144" y="3" on="1"/>
        <pt x="63" y="0" on="1"/>
      </contour>
    </TTGlyph>
    <TTGlyph name="IJ" xMin="57" yMin="-1" xMax="631" yMax="655">
      <contour>
        <pt x="57" y="647" on="1"/>
        <pt x="155" y="652" on="1"/>
        <pt x="144" y="3" on="1"/>
        <pt x="63" y="0" on="1"/>
      </contour>
      <contour>
        <pt x="549" y="297" on="1"/>
        <pt x="539" y="648" on="1"/>
        <pt x="629" y="655" on="1"/>
        <pt x="631" y="411" on="0"/>
        <pt x="631" y="297" on="0"/>
        <pt x="622" y="204" on="0"/>
        <pt x="595" y="106" on="0"/>
        <pt x="550" y="41" on="0"/>
        <pt x="473" y="-1" on="0"/>
        <pt x="364" y="-1" on="0"/>
        <pt x="274" y="49" on="0"/>
        <pt x="218" y="100" on="1"/>
        <pt x="267" y="175" on="1"/>
        <pt x="302" y="142" on="0"/>
        <pt x="395" y="89" on="0"/>
        <pt x="473" y="89" on="0"/>
        <pt x="521" y="127" on="0"/>
        <pt x="532" y="161" on="1"/>
        <pt x="549" y="218" on="0"/>
      </contour>
    </TTGlyph>
    <TTGlyph name="Iacute" xMin="46" yMin="0" xMax="229" yMax="863">
      <contour>
        <pt x="57" y="647" on="1"/>
        <pt x="155" y="652" on="1"/>
        <pt x="144" y="3" on="1"/>
        <pt x="63" y="0" on="1"/>
      </contour>
      <contour>
        <pt x="46" y="721" on="1"/>
        <pt x="147" y="863" on="1"/>
        <pt x="229" y="828" on="1"/>
        <pt x="101" y="686" on="1"/>
      </contour>
    </TTGlyph>
    <TTGlyph name="Icircumflex" xMin="-28" yMin="0" xMax="255" yMax="862">
      <contour>
        <pt x="57" y="647" on="1"/>
        <pt x="155" y="652" on="1"/>
        <pt x="144" y="3" on="1"/>
        <pt x="63" y="0" on="1"/>
      </contour>
      <contour>
        <pt x="173" y="685" on="1"/>
        <pt x="114" y="789" on="1"/>
        <pt x="54" y="685" on="1"/>
        <pt x="-28" y="720" on="1"/>
        <pt x="103" y="862" on="1"/>
        <pt x="125" y="862" on="1"/>
        <pt x="255" y="720" on="1"/>
      </contour>
    </TTGlyph>
    <TTGlyph name="Idieresis" xMin="-21" yMin="0" xMax="248" yMax="812">
      <contour>
        <pt x="57" y="647" on="1"/>
        <pt x="155" y="652" on="1"/>
        <pt x="144" y="3" on="1"/>
        <pt x="63" y="0" on="1"/>
      </contour>
      <contour>
        <pt x="174" y="702" on="0"/>
        <pt x="150" y="732" on="0"/>
        <pt x="150" y="781" on="0"/>
        <pt x="185" y="812" on="0"/>
        <pt x="227" y="812" on="0"/>
        <pt x="248" y="786" on="0"/>
        <pt x="248" y="738" on="0"/>
        <pt x="217" y="702" on="0"/>
      </contour>
      <contour>
        <pt x="2" y="702" on="0"/>
        <pt x="-21" y="731" on="0"/>
        <pt x="-21" y="782" on="0"/>
        <pt x="11" y="812" on="0"/>
        <pt x="34" y="812" on="1"/>
        <pt x="77" y="812" on="0"/>
        <pt x="77" y="766" on="1"/>
        <pt x="77" y="739" on="0"/>
        <pt x="43" y="702" on="0"/>
      </contour>
    </TTGlyph>
    <TTGlyph name="Igrave" xMin="-32" yMin="0" xMax="155" yMax="862">
      <contour>
        <pt x="57" y="647" on="1"/>
        <pt x="155" y="652" on="1"/>
        <pt x="144" y="3" on="1"/>
        <pt x="63" y="0" on="1"/>
      </contour>
      <contour>
        <pt x="50" y="862" on="1"/>
        <pt x="151" y="720" on="1"/>
        <pt x="96" y="685" on="1"/>
        <pt x="-32" y="827" on="1"/>
      </contour>
    </TTGlyph>
    <TTGlyph name="Itilde" xMin="-68" yMin="0" xMax="276" yMax="811">
      <contour>
        <pt x="57" y="647" on="1"/>
        <pt x="155" y="652" on="1"/>
        <pt x="144" y="3" on="1"/>
        <pt x="63" y="0" on="1"/>
      </contour>
      <contour>
        <pt x="-2" y="692" on="1"/>
        <pt x="-68" y="722" on="1"/>
        <pt x="-18" y="804" on="0"/>
        <pt x="43" y="804" on="1"/>
        <pt x="68" y="804" on="0"/>
        <pt x="149" y="770" on="0"/>
        <pt x="164" y="770" on="1"/>
        <pt x="194" y="770" on="0"/>
        <pt x="213" y="811" on="1"/>
        <pt x="276" y="776" on="1"/>
        <pt x="243" y="693" on="0"/>
        <pt x="190" y="693" on="1"/>
        <pt x="166" y="693" on="0"/>
        <pt x="72" y="738" on="0"/>
        <pt x="52" y="738" on="1"/>
        <pt x="17" y="738" on="0"/>
      </contour>
    </TTGlyph>
    <TTGlyph name="J" xMin="10" yMin="-1" xMax="423" yMax="655">
      <contour>
        <pt x="341" y="297" on="1"/>
        <pt x="331" y="648" on="1"/>
        <pt x="421" y="655" on="1"/>
        <pt x="423" y="411" on="0"/>
        <pt x="423" y="297" on="0"/>
        <pt x="414" y="204" on="0"/>
        <pt x="387" y="106" on="0"/>
        <pt x="342" y="41" on="0"/>
        <pt x="265" y="-1" on="0"/>
        <pt x="156" y="-1" on="0"/>
        <pt x="66" y="49" on="0"/>
        <pt x="10" y="100" on="1"/>
        <pt x="59" y="175" on="1"/>
        <pt x="94" y="142" on="0"/>
        <pt x="187" y="89" on="0"/>
        <pt x="265" y="89" on="0"/>
        <pt x="313" y="127" on="0"/>
        <pt x="324" y="161" on="1"/>
        <pt x="341" y="218" on="0"/>
      </contour>
    </TTGlyph>
    <TTGlyph name="Jcircumflex" xMin="10" yMin="-1" xMax="508" yMax="852">
      <contour>
        <pt x="341" y="297" on="1"/>
        <pt x="331" y="648" on="1"/>
        <pt x="421" y="655" on="1"/>
        <pt x="423" y="411" on="0"/>
        <pt x="423" y="297" on="0"/>
        <pt x="414" y="204" on="0"/>
        <pt x="387" y="106" on="0"/>
        <pt x="342" y="41" on="0"/>
        <pt x="265" y="-1" on="0"/>
        <pt x="156" y="-1" on="0"/>
        <pt x="66" y="49" on="0"/>
        <pt x="10" y="100" on="1"/>
        <pt x="59" y="175" on="1"/>
        <pt x="94" y="142" on="0"/>
        <pt x="187" y="89" on="0"/>
        <pt x="265" y="89" on="0"/>
        <pt x="313" y="127" on="0"/>
        <pt x="324" y="161" on="1"/>
        <pt x="341" y="218" on="0"/>
      </contour>
      <contour>
        <pt x="426" y="675" on="1"/>
        <pt x="367" y="779" on="1"/>
        <pt x="307" y="675" on="1"/>
        <pt x="225" y="710" on="1"/>
        <pt x="356" y="852" on="1"/>
        <pt x="378" y="852" on="1"/>
        <pt x="508" y="710" on="1"/>
      </contour>
    </TTGlyph>
    <TTGlyph name="K" xMin="48" yMin="-14" xMax="487" yMax="661">
      <contour>
        <pt x="144" y="268" on="1"/>
        <pt x="148" y="3" on="1"/>
        <pt x="57" y="-7" on="1"/>
        <pt x="48" y="647" on="1"/>
        <pt x="144" y="653" on="1"/>
        <pt x="138" y="349" on="1"/>
        <pt x="365" y="661" on="1"/>
        <pt x="448" y="628" on="1"/>
        <pt x="206" y="324" on="1"/>
        <pt x="487" y="44" on="1"/>
        <pt x="418" y="-14" on="1"/>
      </contour>
    </TTGlyph>
    <TTGlyph name="L" xMin="48" yMin="-9" xMax="425" yMax="654">
      <contour>
        <pt x="60" y="3" on="1"/>
        <pt x="48" y="646" on="1"/>
        <pt x="142" y="654" on="1"/>
        <pt x="151" y="72" on="1"/>
        <pt x="425" y="78" on="1"/>
        <pt x="421" y="-9" on="1"/>
      </contour>
    </TTGlyph>
    <TTGlyph name="Ldotaccent" xMin="48" yMin="-9" xMax="425" yMax="654">
      <contour>
        <pt x="60" y="3" on="1"/>
        <pt x="48" y="646" on="1"/>
        <pt x="142" y="654" on="1"/>
        <pt x="151" y="72" on="1"/>
        <pt x="425" y="78" on="1"/>
        <pt x="421" y="-9" on="1"/>
      </contour>
      <contour>
        <pt x="411" y="430" on="0"/>
        <pt x="378" y="394" on="0"/>
        <pt x="322" y="394" on="0"/>
        <pt x="291" y="419" on="0"/>
        <pt x="291" y="466" on="0"/>
        <pt x="329" y="502" on="0"/>
        <pt x="360" y="502" on="1"/>
        <pt x="411" y="502" on="0"/>
        <pt x="411" y="457" on="1"/>
      </contour>
    </TTGlyph>
    <TTGlyph name="Lslash" xMin="-44" yMin="-9" xMax="425" yMax="654">
      <contour>
        <pt x="-39" y="187" on="1"/>
        <pt x="-44" y="264" on="1"/>
        <pt x="54" y="335" on="1"/>
        <pt x="48" y="646" on="1"/>
        <pt x="142" y="654" on="1"/>
        <pt x="146" y="402" on="1"/>
        <pt x="264" y="489" on="1"/>
        <pt x="267" y="417" on="1"/>
        <pt x="147" y="327" on="1"/>
        <pt x="151" y="72" on="1"/>
        <pt x="425" y="78" on="1"/>
        <pt x="421" y="-9" on="1"/>
        <pt x="60" y="3" on="1"/>
        <pt x="55" y="258" on="1"/>
      </contour>
    </TTGlyph>
    <TTGlyph name="M" xMin="42" yMin="-10" xMax="600" yMax="657">
      <contour>
        <pt x="600" y="3" on="1"/>
        <pt x="522" y="-5" on="1"/>
        <pt x="504" y="436" on="1"/>
        <pt x="367" y="2" on="1"/>
        <pt x="300" y="0" on="1"/>
        <pt x="141" y="443" on="1"/>
        <pt x="136" y="-10" on="1"/>
        <pt x="42" y="-5" on="1"/>
        <pt x="75" y="657" on="1"/>
        <pt x="146" y="654" on="1"/>
        <pt x="332" y="119" on="1"/>
        <pt x="490" y="655" on="1"/>
        <pt x="577" y="653" on="1"/>
      </contour>
    </TTGlyph>
    <TTGlyph name="N" xMin="51" yMin="-12" xMax="477" yMax="657">
      <contour>
        <pt x="153" y="-10" on="1"/>
        <pt x="65" y="-6" on="1"/>
        <pt x="51" y="641" on="1"/>
        <pt x="146" y="646" on="1"/>
        <pt x="386" y="192" on="1"/>
        <pt x="379" y="657" on="1"/>
        <pt x="477" y="650" on="1"/>
        <pt x="460" y="-12" on="1"/>
        <pt x="399" y="-10" on="1"/>
        <pt x="132" y="476" on="1"/>
      </contour>
    </TTGlyph>
    <TTGlyph name="Nacute" xMin="51" yMin="-12" xMax="477" yMax="852">
      <contour>
        <pt x="153" y="-10" on="1"/>
        <pt x="65" y="-6" on="1"/>
        <pt x="51" y="641" on="1"/>
        <pt x="146" y="646" on="1"/>
        <pt x="386" y="192" on="1"/>
        <pt x="379" y="657" on="1"/>
        <pt x="477" y="650" on="1"/>
        <pt x="460" y="-12" on="1"/>
        <pt x="399" y="-10" on="1"/>
        <pt x="132" y="476" on="1"/>
      </contour>
      <contour>
        <pt x="172" y="710" on="1"/>
        <pt x="273" y="852" on="1"/>
        <pt x="355" y="817" on="1"/>
        <pt x="227" y="675" on="1"/>
      </contour>
    </TTGlyph>
    <TTGlyph name="Ntilde" xMin="51" yMin="-12" xMax="477" yMax="835">
      <contour>
        <pt x="153" y="-10" on="1"/>
        <pt x="65" y="-6" on="1"/>
        <pt x="51" y="641" on="1"/>
        <pt x="146" y="646" on="1"/>
        <pt x="386" y="192" on="1"/>
        <pt x="379" y="657" on="1"/>
        <pt x="477" y="650" on="1"/>
        <pt x="460" y="-12" on="1"/>
        <pt x="399" y="-10" on="1"/>
        <pt x="132" y="476" on="1"/>
      </contour>
      <contour>
        <pt x="148" y="716" on="1"/>
        <pt x="82" y="746" on="1"/>
        <pt x="132" y="828" on="0"/>
        <pt x="193" y="828" on="1"/>
        <pt x="218" y="828" on="0"/>
        <pt x="299" y="794" on="0"/>
        <pt x="314" y="794" on="1"/>
        <pt x="344" y="794" on="0"/>
        <pt x="363" y="835" on="1"/>
        <pt x="426" y="800" on="1"/>
        <pt x="393" y="717" on="0"/>
        <pt x="340" y="717" on="1"/>
        <pt x="316" y="717" on="0"/>
        <pt x="222" y="762" on="0"/>
        <pt x="202" y="762" on="1"/>
        <pt x="167" y="762" on="0"/>
      </contour>
    </TTGlyph>
    <TTGlyph name="O" xMin="35" yMin="-9" xMax="513" yMax="648">
      <contour>
        <pt x="35" y="327" on="1"/>
        <pt x="35" y="475" on="0"/>
        <pt x="179" y="648" on="0"/>
        <pt x="372" y="648" on="0"/>
        <pt x="513" y="488" on="0"/>
        <pt x="513" y="340" on="1"/>
        <pt x="513" y="203" on="0"/>
        <pt x="460" y="102" on="1"/>
        <pt x="434" y="51" on="0"/>
        <pt x="339" y="-9" on="0"/>
        <pt x="200" y="-9" on="0"/>
        <pt x="144" y="41" on="1"/>
        <pt x="35" y="137" on="0"/>
      </contour>
      <contour>
        <pt x="207" y="573" on="0"/>
        <pt x="123" y="437" on="0"/>
        <pt x="123" y="213" on="0"/>
        <pt x="214" y="69" on="0"/>
        <pt x="280" y="69" on="1"/>
        <pt x="424" y="69" on="0"/>
        <pt x="424" y="354" on="1"/>
        <pt x="424" y="457" on="0"/>
        <pt x="332" y="573" on="0"/>
        <pt x="261" y="573" on="1"/>
      </contour>
    </TTGlyph>
    <TTGlyph name="OE" xMin="36" yMin="-9" xMax="733" yMax="656">
      <contour>
        <pt x="421" y="640" on="1"/>
        <pt x="724" y="656" on="1"/>
        <pt x="728" y="567" on="1"/>
        <pt x="510" y="568" on="1"/>
        <pt x="514" y="376" on="1"/>
        <pt x="689" y="379" on="1"/>
        <pt x="688" y="291" on="1"/>
        <pt x="517" y="295" on="1"/>
        <pt x="517" y="82" on="1"/>
        <pt x="733" y="88" on="1"/>
        <pt x="733" y="-3" on="1"/>
        <pt x="433" y="1" on="1"/>
        <pt x="432" y="60" on="1"/>
        <pt x="372" y="-8" on="0"/>
        <pt x="277" y="-9" on="1"/>
        <pt x="200" y="-9" on="0"/>
        <pt x="144" y="41" on="1"/>
        <pt x="36" y="136" on="0"/>
        <pt x="36" y="327" on="1"/>
        <pt x="36" y="475" on="0"/>
        <pt x="180" y="648" on="0"/>
        <pt x="360" y="648" on="0"/>
        <pt x="422" y="590" on="1"/>
      </contour>
      <contour>
        <pt x="208" y="573" on="0"/>
        <pt x="124" y="437" on="0"/>
        <pt x="124" y="213" on="0"/>
        <pt x="215" y="69" on="0"/>
        <pt x="281" y="69" on="1"/>
        <pt x="425" y="69" on="0"/>
        <pt x="425" y="354" on="1"/>
        <pt x="425" y="457" on="0"/>
        <pt x="333" y="573" on="0"/>
        <pt x="262" y="573" on="1"/>
      </contour>
    </TTGlyph>
    <TTGlyph name="Oacute" xMin="36" yMin="-9" xMax="514" yMax="869">
      <contour>
        <pt x="36" y="327" on="1"/>
        <pt x="36" y="475" on="0"/>
        <pt x="180" y="648" on="0"/>
        <pt x="373" y="648" on="0"/>
        <pt x="514" y="488" on="0"/>
        <pt x="514" y="340" on="1"/>
        <pt x="514" y="203" on="0"/>
        <pt x="462" y="102" on="1"/>
        <pt x="435" y="51" on="0"/>
        <pt x="340" y="-9" on="0"/>
        <pt x="200" y="-9" on="0"/>
        <pt x="144" y="41" on="1"/>
        <pt x="36" y="136" on="0"/>
      </contour>
      <contour>
        <pt x="208" y="573" on="0"/>
        <pt x="124" y="437" on="0"/>
        <pt x="124" y="213" on="0"/>
        <pt x="215" y="69" on="0"/>
        <pt x="281" y="69" on="1"/>
        <pt x="425" y="69" on="0"/>
        <pt x="425" y="354" on="1"/>
        <pt x="425" y="457" on="0"/>
        <pt x="333" y="573" on="0"/>
        <pt x="262" y="573" on="1"/>
      </contour>
      <contour>
        <pt x="207" y="727" on="1"/>
        <pt x="308" y="869" on="1"/>
        <pt x="390" y="834" on="1"/>
        <pt x="262" y="692" on="1"/>
      </contour>
    </TTGlyph>
    <TTGlyph name="Ocircumflex" xMin="36" yMin="-9" xMax="514" yMax="862">
      <contour>
        <pt x="36" y="327" on="1"/>
        <pt x="36" y="475" on="0"/>
        <pt x="180" y="648" on="0"/>
        <pt x="373" y="648" on="0"/>
        <pt x="514" y="488" on="0"/>
        <pt x="514" y="340" on="1"/>
        <pt x="514" y="203" on="0"/>
        <pt x="462" y="102" on="1"/>
        <pt x="435" y="51" on="0"/>
        <pt x="340" y="-9" on="0"/>
        <pt x="200" y="-9" on="0"/>
        <pt x="144" y="41" on="1"/>
        <pt x="36" y="136" on="0"/>
      </contour>
      <contour>
        <pt x="208" y="573" on="0"/>
        <pt x="124" y="437" on="0"/>
        <pt x="124" y="213" on="0"/>
        <pt x="215" y="69" on="0"/>
        <pt x="281" y="69" on="1"/>
        <pt x="425" y="69" on="0"/>
        <pt x="425" y="354" on="1"/>
        <pt x="425" y="457" on="0"/>
        <pt x="333" y="573" on="0"/>
        <pt x="262" y="573" on="1"/>
      </contour>
      <contour>
        <pt x="338" y="685" on="1"/>
        <pt x="279" y="789" on="1"/>
        <pt x="219" y="685" on="1"/>
        <pt x="137" y="720" on="1"/>
        <pt x="268" y="862" on="1"/>
        <pt x="290" y="862" on="1"/>
        <pt x="420" y="720" on="1"/>
      </contour>
    </TTGlyph>
    <TTGlyph name="Odieresis" xMin="36" yMin="-9" xMax="514" yMax="808">
      <contour>
        <pt x="36" y="327" on="1"/>
        <pt x="36" y="475" on="0"/>
        <pt x="180" y="648" on="0"/>
        <pt x="373" y="648" on="0"/>
        <pt x="514" y="488" on="0"/>
        <pt x="514" y="340" on="1"/>
        <pt x="514" y="203" on="0"/>
        <pt x="462" y="102" on="1"/>
        <pt x="435" y="51" on="0"/>
        <pt x="340" y="-9" on="0"/>
        <pt x="200" y="-9" on="0"/>
        <pt x="144" y="41" on="1"/>
        <pt x="36" y="136" on="0"/>
      </contour>
      <contour>
        <pt x="208" y="573" on="0"/>
        <pt x="124" y="437" on="0"/>
        <pt x="124" y="213" on="0"/>
        <pt x="215" y="69" on="0"/>
        <pt x="281" y="69" on="1"/>
        <pt x="425" y="69" on="0"/>
        <pt x="425" y="354" on="1"/>
        <pt x="425" y="457" on="0"/>
        <pt x="333" y="573" on="0"/>
        <pt x="262" y="573" on="1"/>
      </contour>
      <contour>
        <pt x="340" y="698" on="0"/>
        <pt x="316" y="728" on="0"/>
        <pt x="316" y="777" on="0"/>
        <pt x="351" y="808" on="0"/>
        <pt x="393" y="808" on="0"/>
        <pt x="414" y="782" on="0"/>
        <pt x="414" y="734" on="0"/>
        <pt x="383" y="698" on="0"/>
      </contour>
      <contour>
        <pt x="168" y="698" on="0"/>
        <pt x="145" y="727" on="0"/>
        <pt x="145" y="778" on="0"/>
        <pt x="177" y="808" on="0"/>
        <pt x="200" y="808" on="1"/>
        <pt x="243" y="808" on="0"/>
        <pt x="243" y="762" on="1"/>
        <pt x="243" y="735" on="0"/>
        <pt x="209" y="698" on="0"/>
      </contour>
    </TTGlyph>
    <TTGlyph name="Ograve" xMin="36" yMin="-9" xMax="514" yMax="862">
      <contour>
        <pt x="36" y="327" on="1"/>
        <pt x="36" y="475" on="0"/>
        <pt x="180" y="648" on="0"/>
        <pt x="373" y="648" on="0"/>
        <pt x="514" y="488" on="0"/>
        <pt x="514" y="340" on="1"/>
        <pt x="514" y="203" on="0"/>
        <pt x="462" y="102" on="1"/>
        <pt x="435" y="51" on="0"/>
        <pt x="340" y="-9" on="0"/>
        <pt x="200" y="-9" on="0"/>
        <pt x="144" y="41" on="1"/>
        <pt x="36" y="136" on="0"/>
      </contour>
      <contour>
        <pt x="208" y="573" on="0"/>
        <pt x="124" y="437" on="0"/>
        <pt x="124" y="213" on="0"/>
        <pt x="215" y="69" on="0"/>
        <pt x="281" y="69" on="1"/>
        <pt x="425" y="69" on="0"/>
        <pt x="425" y="354" on="1"/>
        <pt x="425" y="457" on="0"/>
        <pt x="333" y="573" on="0"/>
        <pt x="262" y="573" on="1"/>
      </contour>
      <contour>
        <pt x="227" y="862" on="1"/>
        <pt x="328" y="720" on="1"/>
        <pt x="273" y="685" on="1"/>
        <pt x="145" y="827" on="1"/>
      </contour>
    </TTGlyph>
    <TTGlyph name="Omega" xMin="48" yMin="5" xMax="635" yMax="648">
      <contour>
        <pt x="160" y="83" on="1"/>
        <pt x="61" y="187" on="0"/>
        <pt x="61" y="475" on="0"/>
        <pt x="230" y="648" on="0"/>
        <pt x="456" y="648" on="0"/>
        <pt x="622" y="488" on="0"/>
        <pt x="622" y="340" on="1"/>
        <pt x="622" y="272" on="0"/>
        <pt x="565" y="130" on="0"/>
        <pt x="520" y="83" on="1"/>
        <pt x="635" y="88" on="1"/>
        <pt x="632" y="5" on="1"/>
        <pt x="400" y="5" on="1"/>
        <pt x="401" y="48" on="1"/>
        <pt x="530" y="147" on="0"/>
        <pt x="530" y="354" on="1"/>
        <pt x="530" y="455" on="0"/>
        <pt x="418" y="572" on="0"/>
        <pt x="263" y="572" on="0"/>
        <pt x="149" y="444" on="0"/>
        <pt x="149" y="327" on="1"/>
        <pt x="149" y="245" on="0"/>
        <pt x="214" y="99" on="0"/>
        <pt x="279" y="48" on="1"/>
        <pt x="280" y="5" on="1"/>
        <pt x="48" y="5" on="1"/>
        <pt x="51" y="91" on="1"/>
      </contour>
    </TTGlyph>
    <TTGlyph name="Oslash" xMin="35" yMin="-80" xMax="513" yMax="700">
      <contour>
        <pt x="48" y="-65" on="1"/>
        <pt x="111" y="72" on="1"/>
        <pt x="35" y="169" on="0"/>
        <pt x="35" y="475" on="0"/>
        <pt x="179" y="648" on="0"/>
        <pt x="275" y="648" on="1"/>
        <pt x="324" y="648" on="0"/>
        <pt x="367" y="627" on="1"/>
        <pt x="401" y="700" on="1"/>
        <pt x="476" y="690" on="1"/>
        <pt x="427" y="584" on="1"/>
        <pt x="513" y="500" on="0"/>
        <pt x="513" y="340" on="1"/>
        <pt x="513" y="203" on="0"/>
        <pt x="460" y="102" on="1"/>
        <pt x="434" y="51" on="0"/>
        <pt x="339" y="-9" on="0"/>
        <pt x="214" y="-9" on="0"/>
        <pt x="167" y="21" on="1"/>
        <pt x="121" y="-80" on="1"/>
      </contour>
      <contour>
        <pt x="203" y="99" on="1"/>
        <pt x="237" y="69" on="0"/>
        <pt x="325" y="69" on="0"/>
        <pt x="397" y="149" on="0"/>
        <pt x="432" y="269" on="0"/>
        <pt x="432" y="335" on="1"/>
        <pt x="432" y="440" on="0"/>
        <pt x="388" y="499" on="1"/>
      </contour>
      <contour>
        <pt x="207" y="573" on="0"/>
        <pt x="123" y="437" on="0"/>
        <pt x="123" y="234" on="0"/>
        <pt x="155" y="167" on="1"/>
        <pt x="333" y="554" on="1"/>
        <pt x="300" y="573" on="0"/>
        <pt x="261" y="573" on="1"/>
      </contour>
    </TTGlyph>
    <TTGlyph name="Otilde" xMin="36" yMin="-9" xMax="514" yMax="822">
      <contour>
        <pt x="36" y="327" on="1"/>
        <pt x="36" y="475" on="0"/>
        <pt x="180" y="648" on="0"/>
        <pt x="373" y="648" on="0"/>
        <pt x="514" y="488" on="0"/>
        <pt x="514" y="340" on="1"/>
        <pt x="514" y="203" on="0"/>
        <pt x="462" y="102" on="1"/>
        <pt x="435" y="51" on="0"/>
        <pt x="340" y="-9" on="0"/>
        <pt x="200" y="-9" on="0"/>
        <pt x="144" y="41" on="1"/>
        <pt x="36" y="136" on="0"/>
      </contour>
      <contour>
        <pt x="208" y="573" on="0"/>
        <pt x="124" y="437" on="0"/>
        <pt x="124" y="213" on="0"/>
        <pt x="215" y="69" on="0"/>
        <pt x="281" y="69" on="1"/>
        <pt x="425" y="69" on="0"/>
        <pt x="425" y="354" on="1"/>
        <pt x="425" y="457" on="0"/>
        <pt x="333" y="573" on="0"/>
        <pt x="262" y="573" on="1"/>
      </contour>
      <contour>
        <pt x="173" y="703" on="1"/>
        <pt x="107" y="733" on="1"/>
        <pt x="157" y="815" on="0"/>
        <pt x="218" y="815" on="1"/>
        <pt x="243" y="815" on="0"/>
        <pt x="324" y="781" on="0"/>
        <pt x="339" y="781" on="1"/>
        <pt x="369" y="781" on="0"/>
        <pt x="388" y="822" on="1"/>
        <pt x="451" y="787" on="1"/>
        <pt x="418" y="704" on="0"/>
        <pt x="365" y="704" on="1"/>
        <pt x="341" y="704" on="0"/>
        <pt x="247" y="749" on="0"/>
        <pt x="227" y="749" on="1"/>
        <pt x="192" y="749" on="0"/>
      </contour>
    </TTGlyph>
    <TTGlyph name="P" xMin="42" yMin="-5" xMax="400" yMax="650">
      <contour>
        <pt x="131" y="212" on="1"/>
        <pt x="131" y="-5" on="1"/>
        <pt x="42" y="2" on="1"/>
        <pt x="44" y="619" on="1"/>
        <pt x="134" y="650" on="0"/>
        <pt x="181" y="650" on="1"/>
        <pt x="283" y="650" on="0"/>
        <pt x="400" y="522" on="0"/>
        <pt x="400" y="343" on="0"/>
        <pt x="257" y="212" on="0"/>
        <pt x="158" y="212" on="1"/>
      </contour>
      <contour>
        <pt x="301" y="354" on="1"/>
        <pt x="317" y="383" on="0"/>
        <pt x="317" y="465" on="0"/>
        <pt x="286" y="529" on="0"/>
        <pt x="260" y="546" on="1"/>
        <pt x="211" y="579" on="0"/>
        <pt x="154" y="579" on="1"/>
        <pt x="140" y="579" on="0"/>
        <pt x="125" y="576" on="1"/>
        <pt x="129" y="279" on="1"/>
        <pt x="267" y="293" on="0"/>
      </contour>
    </TTGlyph>
    <TTGlyph name="Q" xMin="40" yMin="-70" xMax="518" yMax="657">
      <contour>
        <pt x="40" y="336" on="1"/>
        <pt x="40" y="484" on="0"/>
        <pt x="184" y="657" on="0"/>
        <pt x="377" y="657" on="0"/>
        <pt x="518" y="497" on="0"/>
        <pt x="518" y="349" on="1"/>
        <pt x="518" y="164" on="0"/>
        <pt x="436" y="69" on="1"/>
        <pt x="511" y="-14" on="1"/>
        <pt x="438" y="-70" on="1"/>
        <pt x="371" y="19" on="1"/>
        <pt x="330" y="0" on="0"/>
        <pt x="281" y="0" on="1"/>
        <pt x="204" y="0" on="0"/>
        <pt x="148" y="50" on="1"/>
        <pt x="40" y="145" on="0"/>
      </contour>
      <contour>
        <pt x="212" y="582" on="0"/>
        <pt x="128" y="446" on="0"/>
        <pt x="128" y="222" on="0"/>
        <pt x="219" y="78" on="0"/>
        <pt x="285" y="78" on="1"/>
        <pt x="305" y="78" on="0"/>
        <pt x="323" y="84" on="1"/>
        <pt x="279" y="144" on="1"/>
        <pt x="333" y="186" on="1"/>
        <pt x="382" y="131" on="1"/>
        <pt x="429" y="201" on="0"/>
        <pt x="429" y="363" on="1"/>
        <pt x="429" y="466" on="0"/>
        <pt x="337" y="582" on="0"/>
        <pt x="266" y="582" on="1"/>
      </contour>
    </TTGlyph>
    <TTGlyph name="R" xMin="42" yMin="-14" xMax="437" yMax="651">
      <contour>
        <pt x="178" y="651" on="1"/>
        <pt x="300" y="651" on="0"/>
        <pt x="422" y="539" on="0"/>
        <pt x="422" y="460" on="1"/>
        <pt x="422" y="341" on="0"/>
        <pt x="301" y="277" on="1"/>
        <pt x="437" y="18" on="1"/>
        <pt x="348" y="-14" on="1"/>
        <pt x="223" y="257" on="1"/>
        <pt x="132" y="258" on="1"/>
        <pt x="139" y="3" on="1"/>
        <pt x="53" y="-3" on="1"/>
        <pt x="42" y="636" on="1"/>
        <pt x="149" y="651" on="0"/>
      </contour>
      <contour>
        <pt x="120" y="571" on="1"/>
        <pt x="120" y="334" on="1"/>
        <pt x="140" y="332" on="0"/>
        <pt x="171" y="332" on="1"/>
        <pt x="231" y="332" on="0"/>
        <pt x="343" y="399" on="0"/>
        <pt x="343" y="513" on="0"/>
        <pt x="258" y="583" on="0"/>
        <pt x="154" y="583" on="0"/>
      </contour>
    </TTGlyph>
    <TTGlyph name="Racute" xMin="42" yMin="-14" xMax="437" yMax="852">
      <contour>
        <pt x="178" y="651" on="1"/>
        <pt x="300" y="651" on="0"/>
        <pt x="422" y="539" on="0"/>
        <pt x="422" y="460" on="1"/>
        <pt x="422" y="341" on="0"/>
        <pt x="301" y="277" on="1"/>
        <pt x="437" y="18" on="1"/>
        <pt x="348" y="-14" on="1"/>
        <pt x="223" y="257" on="1"/>
        <pt x="132" y="258" on="1"/>
        <pt x="139" y="3" on="1"/>
        <pt x="53" y="-3" on="1"/>
        <pt x="42" y="636" on="1"/>
        <pt x="149" y="651" on="0"/>
      </contour>
      <contour>
        <pt x="120" y="571" on="1"/>
        <pt x="120" y="334" on="1"/>
        <pt x="140" y="332" on="0"/>
        <pt x="171" y="332" on="1"/>
        <pt x="231" y="332" on="0"/>
        <pt x="343" y="399" on="0"/>
        <pt x="343" y="513" on="0"/>
        <pt x="258" y="583" on="0"/>
        <pt x="154" y="583" on="0"/>
      </contour>
      <contour>
        <pt x="133" y="710" on="1"/>
        <pt x="234" y="852" on="1"/>
        <pt x="316" y="817" on="1"/>
        <pt x="188" y="675" on="1"/>
      </contour>
    </TTGlyph>
    <TTGlyph name="Rcaron" xMin="42" yMin="-14" xMax="437" yMax="852">
      <contour>
        <pt x="178" y="651" on="1"/>
        <pt x="300" y="651" on="0"/>
        <pt x="422" y="539" on="0"/>
        <pt x="422" y="460" on="1"/>
        <pt x="422" y="341" on="0"/>
        <pt x="301" y="277" on="1"/>
        <pt x="437" y="18" on="1"/>
        <pt x="348" y="-14" on="1"/>
        <pt x="223" y="257" on="1"/>
        <pt x="132" y="258" on="1"/>
        <pt x="139" y="3" on="1"/>
        <pt x="53" y="-3" on="1"/>
        <pt x="42" y="636" on="1"/>
        <pt x="149" y="651" on="0"/>
      </contour>
      <contour>
        <pt x="120" y="571" on="1"/>
        <pt x="120" y="334" on="1"/>
        <pt x="140" y="332" on="0"/>
        <pt x="171" y="332" on="1"/>
        <pt x="231" y="332" on="0"/>
        <pt x="343" y="399" on="0"/>
        <pt x="343" y="513" on="0"/>
        <pt x="258" y="583" on="0"/>
        <pt x="154" y="583" on="0"/>
      </contour>
      <contour>
        <pt x="155" y="852" on="1"/>
        <pt x="214" y="748" on="1"/>
        <pt x="274" y="852" on="1"/>
        <pt x="356" y="817" on="1"/>
        <pt x="225" y="675" on="1"/>
        <pt x="203" y="675" on="1"/>
        <pt x="73" y="817" on="1"/>
      </contour>
    </TTGlyph>
    <TTGlyph name="Rcommaaccent" xMin="42" yMin="-251" xMax="437" yMax="651">
      <contour>
        <pt x="178" y="651" on="1"/>
        <pt x="300" y="651" on="0"/>
        <pt x="422" y="539" on="0"/>
        <pt x="422" y="460" on="1"/>
        <pt x="422" y="341" on="0"/>
        <pt x="301" y="277" on="1"/>
        <pt x="437" y="18" on="1"/>
        <pt x="348" y="-14" on="1"/>
        <pt x="223" y="257" on="1"/>
        <pt x="132" y="258" on="1"/>
        <pt x="139" y="3" on="1"/>
        <pt x="53" y="-3" on="1"/>
        <pt x="42" y="636" on="1"/>
        <pt x="149" y="651" on="0"/>
      </contour>
      <contour>
        <pt x="120" y="571" on="1"/>
        <pt x="120" y="334" on="1"/>
        <pt x="140" y="332" on="0"/>
        <pt x="171" y="332" on="1"/>
        <pt x="231" y="332" on="0"/>
        <pt x="343" y="399" on="0"/>
        <pt x="343" y="513" on="0"/>
        <pt x="258" y="583" on="0"/>
        <pt x="154" y="583" on="0"/>
      </contour>
      <contour>
        <pt x="233" y="-33" on="1"/>
        <pt x="288" y="-33" on="0"/>
        <pt x="288" y="-90" on="1"/>
        <pt x="288" y="-114" on="0"/>
        <pt x="253" y="-194" on="0"/>
        <pt x="235" y="-222" on="1"/>
        <pt x="217" y="-251" on="1"/>
        <pt x="153" y="-218" on="1"/>
        <pt x="223" y="-135" on="1"/>
        <pt x="219" y="-131" on="1"/>
        <pt x="205" y="-137" on="0"/>
        <pt x="183" y="-137" on="0"/>
        <pt x="163" y="-111" on="0"/>
        <pt x="163" y="-70" on="0"/>
        <pt x="202" y="-33" on="0"/>
      </contour>
    </TTGlyph>
    <TTGlyph name="S" xMin="26" yMin="-12" xMax="352" yMax="659">
      <contour>
        <pt x="242" y="92" on="0"/>
        <pt x="272" y="138" on="0"/>
        <pt x="272" y="206" on="0"/>
        <pt x="221" y="252" on="0"/>
        <pt x="149" y="285" on="0"/>
        <pt x="77" y="326" on="0"/>
        <pt x="26" y="406" on="0"/>
        <pt x="26" y="464" on="1"/>
        <pt x="26" y="554" on="0"/>
        <pt x="144" y="659" on="0"/>
        <pt x="253" y="659" on="1"/>
        <pt x="279" y="659" on="0"/>
        <pt x="317" y="654" on="1"/>
        <pt x="334" y="573" on="1"/>
        <pt x="293" y="582" on="0"/>
        <pt x="256" y="582" on="1"/>
        <pt x="107" y="582" on="0"/>
        <pt x="107" y="467" on="1"/>
        <pt x="107" y="396" on="0"/>
        <pt x="193" y="362" on="1"/>
        <pt x="229" y="347" on="0"/>
        <pt x="302" y="314" on="0"/>
        <pt x="352" y="244" on="0"/>
        <pt x="352" y="140" on="0"/>
        <pt x="315" y="66" on="0"/>
        <pt x="259" y="23" on="0"/>
        <pt x="216" y="10" on="1"/>
        <pt x="145" y="-12" on="0"/>
        <pt x="44" y="-12" on="1"/>
        <pt x="26" y="72" on="1"/>
        <pt x="62" y="66" on="0"/>
        <pt x="138" y="66" on="0"/>
        <pt x="186" y="72" on="0"/>
      </contour>
    </TTGlyph>
    <TTGlyph name="Scaron" xMin="26" yMin="-12" xMax="352" yMax="862">
      <contour>
        <pt x="242" y="92" on="0"/>
        <pt x="272" y="138" on="0"/>
        <pt x="272" y="206" on="0"/>
        <pt x="221" y="252" on="0"/>
        <pt x="149" y="285" on="0"/>
        <pt x="77" y="326" on="0"/>
        <pt x="26" y="406" on="0"/>
        <pt x="26" y="464" on="1"/>
        <pt x="26" y="554" on="0"/>
        <pt x="144" y="659" on="0"/>
        <pt x="253" y="659" on="1"/>
        <pt x="279" y="659" on="0"/>
        <pt x="317" y="654" on="1"/>
        <pt x="334" y="573" on="1"/>
        <pt x="293" y="582" on="0"/>
        <pt x="256" y="582" on="1"/>
        <pt x="107" y="582" on="0"/>
        <pt x="107" y="467" on="1"/>
        <pt x="107" y="396" on="0"/>
        <pt x="193" y="362" on="1"/>
        <pt x="229" y="347" on="0"/>
        <pt x="302" y="314" on="0"/>
        <pt x="352" y="244" on="0"/>
        <pt x="352" y="140" on="0"/>
        <pt x="315" y="66" on="0"/>
        <pt x="259" y="23" on="0"/>
        <pt x="216" y="10" on="1"/>
        <pt x="145" y="-12" on="0"/>
        <pt x="44" y="-12" on="1"/>
        <pt x="26" y="72" on="1"/>
        <pt x="62" y="66" on="0"/>
        <pt x="138" y="66" on="0"/>
        <pt x="186" y="72" on="0"/>
      </contour>
      <contour>
        <pt x="146" y="862" on="1"/>
        <pt x="205" y="758" on="1"/>
        <pt x="265" y="862" on="1"/>
        <pt x="347" y="827" on="1"/>
        <pt x="216" y="685" on="1"/>
        <pt x="194" y="685" on="1"/>
        <pt x="64" y="827" on="1"/>
      </contour>
    </TTGlyph>
    <TTGlyph name="T" xMin="12" yMin="0" xMax="447" yMax="647">
      <contour>
        <pt x="12" y="647" on="1"/>
        <pt x="447" y="643" on="1"/>
        <pt x="439" y="568" on="1"/>
        <pt x="270" y="567" on="1"/>
        <pt x="278" y="0" on="1"/>
        <pt x="182" y="1" on="1"/>
        <pt x="184" y="567" on="1"/>
        <pt x="14" y="566" on="1"/>
      </contour>
    </TTGlyph>
    <TTGlyph name="Thorn" xMin="52" yMin="0" xMax="413" yMax="659">
      <contour>
        <pt x="171" y="111" on="1"/>
        <pt x="139" y="111" on="1"/>
        <pt x="139" y="3" on="1"/>
        <pt x="58" y="0" on="1"/>
        <pt x="52" y="654" on="1"/>
        <pt x="150" y="659" on="1"/>
        <pt x="148" y="544" on="1"/>
        <pt x="175" y="549" on="0"/>
        <pt x="194" y="549" on="1"/>
        <pt x="296" y="549" on="0"/>
        <pt x="413" y="421" on="0"/>
        <pt x="413" y="242" on="0"/>
        <pt x="270" y="111" on="0"/>
      </contour>
      <contour>
        <pt x="314" y="254" on="1"/>
        <pt x="330" y="282" on="0"/>
        <pt x="330" y="364" on="0"/>
        <pt x="299" y="428" on="0"/>
        <pt x="274" y="445" on="1"/>
        <pt x="224" y="478" on="0"/>
        <pt x="167" y="478" on="1"/>
        <pt x="154" y="478" on="0"/>
        <pt x="147" y="477" on="1"/>
        <pt x="142" y="178" on="1"/>
        <pt x="280" y="192" on="0"/>
      </contour>
    </TTGlyph>
    <TTGlyph name="U" xMin="40" yMin="-6" xMax="484" yMax="657">
      <contour>
        <pt x="475" y="657" on="1"/>
        <pt x="484" y="386" on="1"/>
        <pt x="484" y="165" on="0"/>
        <pt x="416" y="74" on="1"/>
        <pt x="389" y="38" on="0"/>
        <pt x="298" y="-6" on="0"/>
        <pt x="193" y="-6" on="0"/>
        <pt x="127" y="26" on="0"/>
        <pt x="85" y="92" on="0"/>
        <pt x="57" y="167" on="0"/>
        <pt x="50" y="222" on="1"/>
        <pt x="40" y="311" on="0"/>
        <pt x="40" y="438" on="1"/>
        <pt x="40" y="641" on="1"/>
        <pt x="132" y="652" on="1"/>
        <pt x="130" y="534" on="0"/>
        <pt x="130" y="382" on="0"/>
        <pt x="139" y="252" on="0"/>
        <pt x="152" y="194" on="1"/>
        <pt x="178" y="80" on="0"/>
        <pt x="255" y="80" on="1"/>
        <pt x="325" y="80" on="0"/>
        <pt x="393" y="239" on="0"/>
        <pt x="393" y="408" on="1"/>
        <pt x="393" y="508" on="0"/>
        <pt x="382" y="649" on="1"/>
      </contour>
    </TTGlyph>
    <TTGlyph name="Uacute" xMin="40" yMin="-6" xMax="484" yMax="863">
      <contour>
        <pt x="475" y="657" on="1"/>
        <pt x="484" y="386" on="1"/>
        <pt x="484" y="165" on="0"/>
        <pt x="416" y="74" on="1"/>
        <pt x="389" y="38" on="0"/>
        <pt x="298" y="-6" on="0"/>
        <pt x="193" y="-6" on="0"/>
        <pt x="127" y="26" on="0"/>
        <pt x="85" y="92" on="0"/>
        <pt x="57" y="167" on="0"/>
        <pt x="50" y="222" on="1"/>
        <pt x="40" y="311" on="0"/>
        <pt x="40" y="438" on="1"/>
        <pt x="40" y="641" on="1"/>
        <pt x="132" y="652" on="1"/>
        <pt x="130" y="534" on="0"/>
        <pt x="130" y="382" on="0"/>
        <pt x="139" y="252" on="0"/>
        <pt x="152" y="194" on="1"/>
        <pt x="178" y="80" on="0"/>
        <pt x="255" y="80" on="1"/>
        <pt x="325" y="80" on="0"/>
        <pt x="393" y="239" on="0"/>
        <pt x="393" y="408" on="1"/>
        <pt x="393" y="508" on="0"/>
        <pt x="382" y="649" on="1"/>
      </contour>
      <contour>
        <pt x="214" y="721" on="1"/>
        <pt x="315" y="863" on="1"/>
        <pt x="397" y="828" on="1"/>
        <pt x="269" y="686" on="1"/>
      </contour>
    </TTGlyph>
    <TTGlyph name="Ucircumflex" xMin="40" yMin="-6" xMax="484" yMax="862">
      <contour>
        <pt x="475" y="657" on="1"/>
        <pt x="484" y="386" on="1"/>
        <pt x="484" y="165" on="0"/>
        <pt x="416" y="74" on="1"/>
        <pt x="389" y="38" on="0"/>
        <pt x="298" y="-6" on="0"/>
        <pt x="193" y="-6" on="0"/>
        <pt x="127" y="26" on="0"/>
        <pt x="85" y="92" on="0"/>
        <pt x="57" y="167" on="0"/>
        <pt x="50" y="222" on="1"/>
        <pt x="40" y="311" on="0"/>
        <pt x="40" y="438" on="1"/>
        <pt x="40" y="641" on="1"/>
        <pt x="132" y="652" on="1"/>
        <pt x="130" y="534" on="0"/>
        <pt x="130" y="382" on="0"/>
        <pt x="139" y="252" on="0"/>
        <pt x="152" y="194" on="1"/>
        <pt x="178" y="80" on="0"/>
        <pt x="255" y="80" on="1"/>
        <pt x="325" y="80" on="0"/>
        <pt x="393" y="239" on="0"/>
        <pt x="393" y="408" on="1"/>
        <pt x="393" y="508" on="0"/>
        <pt x="382" y="649" on="1"/>
      </contour>
      <contour>
        <pt x="319" y="685" on="1"/>
        <pt x="260" y="789" on="1"/>
        <pt x="200" y="685" on="1"/>
        <pt x="118" y="720" on="1"/>
        <pt x="249" y="862" on="1"/>
        <pt x="271" y="862" on="1"/>
        <pt x="401" y="720" on="1"/>
      </contour>
    </TTGlyph>
    <TTGlyph name="Udieresis" xMin="40" yMin="-6" xMax="484" yMax="803">
      <contour>
        <pt x="475" y="657" on="1"/>
        <pt x="484" y="386" on="1"/>
        <pt x="484" y="165" on="0"/>
        <pt x="416" y="74" on="1"/>
        <pt x="389" y="38" on="0"/>
        <pt x="298" y="-6" on="0"/>
        <pt x="193" y="-6" on="0"/>
        <pt x="127" y="26" on="0"/>
        <pt x="85" y="92" on="0"/>
        <pt x="57" y="167" on="0"/>
        <pt x="50" y="222" on="1"/>
        <pt x="40" y="311" on="0"/>
        <pt x="40" y="438" on="1"/>
        <pt x="40" y="641" on="1"/>
        <pt x="132" y="652" on="1"/>
        <pt x="130" y="534" on="0"/>
        <pt x="130" y="382" on="0"/>
        <pt x="139" y="252" on="0"/>
        <pt x="152" y="194" on="1"/>
        <pt x="178" y="80" on="0"/>
        <pt x="255" y="80" on="1"/>
        <pt x="325" y="80" on="0"/>
        <pt x="393" y="239" on="0"/>
        <pt x="393" y="408" on="1"/>
        <pt x="393" y="508" on="0"/>
        <pt x="382" y="649" on="1"/>
      </contour>
      <contour>
        <pt x="327" y="693" on="0"/>
        <pt x="303" y="723" on="0"/>
        <pt x="303" y="772" on="0"/>
        <pt x="338" y="803" on="0"/>
        <pt x="380" y="803" on="0"/>
        <pt x="401" y="777" on="0"/>
        <pt x="401" y="729" on="0"/>
        <pt x="370" y="693" on="0"/>
      </contour>
      <contour>
        <pt x="155" y="693" on="0"/>
        <pt x="132" y="722" on="0"/>
        <pt x="132" y="773" on="0"/>
        <pt x="164" y="803" on="0"/>
        <pt x="186" y="803" on="1"/>
        <pt x="230" y="803" on="0"/>
        <pt x="230" y="757" on="1"/>
        <pt x="230" y="730" on="0"/>
        <pt x="196" y="693" on="0"/>
      </contour>
    </TTGlyph>
    <TTGlyph name="Ugrave" xMin="40" yMin="-6" xMax="484" yMax="862">
      <contour>
        <pt x="475" y="657" on="1"/>
        <pt x="484" y="386" on="1"/>
        <pt x="484" y="165" on="0"/>
        <pt x="416" y="74" on="1"/>
        <pt x="389" y="38" on="0"/>
        <pt x="298" y="-6" on="0"/>
        <pt x="193" y="-6" on="0"/>
        <pt x="127" y="26" on="0"/>
        <pt x="85" y="92" on="0"/>
        <pt x="57" y="167" on="0"/>
        <pt x="50" y="222" on="1"/>
        <pt x="40" y="311" on="0"/>
        <pt x="40" y="438" on="1"/>
        <pt x="40" y="641" on="1"/>
        <pt x="132" y="652" on="1"/>
        <pt x="130" y="534" on="0"/>
        <pt x="130" y="382" on="0"/>
        <pt x="139" y="252" on="0"/>
        <pt x="152" y="194" on="1"/>
        <pt x="178" y="80" on="0"/>
        <pt x="255" y="80" on="1"/>
        <pt x="325" y="80" on="0"/>
        <pt x="393" y="239" on="0"/>
        <pt x="393" y="408" on="1"/>
        <pt x="393" y="508" on="0"/>
        <pt x="382" y="649" on="1"/>
      </contour>
      <contour>
        <pt x="219" y="862" on="1"/>
        <pt x="320" y="720" on="1"/>
        <pt x="265" y="685" on="1"/>
        <pt x="137" y="827" on="1"/>
      </contour>
    </TTGlyph>
    <TTGlyph name="V" xMin="20" yMin="-5" xMax="521" yMax="654">
      <contour>
        <pt x="253" y="-5" on="1"/>
        <pt x="20" y="636" on="1"/>
        <pt x="115" y="654" on="1"/>
        <pt x="284" y="141" on="1"/>
        <pt x="427" y="654" on="1"/>
        <pt x="521" y="649" on="1"/>
        <pt x="319" y="-3" on="1"/>
      </contour>
    </TTGlyph>
    <TTGlyph name="W" xMin="12" yMin="-5" xMax="792" yMax="659">
      <contour>
        <pt x="454" y="501" on="1"/>
        <pt x="577" y="135" on="1"/>
        <pt x="694" y="659" on="1"/>
        <pt x="792" y="640" on="1"/>
        <pt x="617" y="-5" on="1"/>
        <pt x="542" y="-3" on="1"/>
        <pt x="398" y="413" on="1"/>
        <pt x="289" y="-5" on="1"/>
        <pt x="201" y="-3" on="1"/>
        <pt x="12" y="649" on="1"/>
        <pt x="115" y="654" on="1"/>
        <pt x="247" y="135" on="1"/>
        <pt x="352" y="510" on="1"/>
      </contour>
    </TTGlyph>
    <TTGlyph name="X" xMin="31" yMin="-18" xMax="554" yMax="663">
      <contour>
        <pt x="31" y="622" on="1"/>
        <pt x="119" y="656" on="1"/>
        <pt x="283" y="384" on="1"/>
        <pt x="293" y="384" on="1"/>
        <pt x="452" y="663" on="1"/>
        <pt x="534" y="622" on="1"/>
        <pt x="340" y="321" on="1"/>
        <pt x="554" y="15" on="1"/>
        <pt x="469" y="-17" on="1"/>
        <pt x="284" y="247" on="1"/>
        <pt x="277" y="248" on="1"/>
        <pt x="122" y="-18" on="1"/>
        <pt x="40" y="15" on="1"/>
        <pt x="227" y="327" on="1"/>
      </contour>
    </TTGlyph>
    <TTGlyph name="Y" xMin="17" yMin="0" xMax="546" yMax="670">
      <contour>
        <pt x="339" y="266" on="1"/>
        <pt x="350" y="0" on="1"/>
        <pt x="247" y="0" on="1"/>
        <pt x="256" y="266" on="1"/>
        <pt x="17" y="609" on="1"/>
        <pt x="91" y="663" on="1"/>
        <pt x="304" y="343" on="1"/>
        <pt x="469" y="670" on="1"/>
        <pt x="546" y="635" on="1"/>
      </contour>
    </TTGlyph>
    <TTGlyph name="Yacute" xMin="17" yMin="0" xMax="546" yMax="862">
      <contour>
        <pt x="339" y="266" on="1"/>
        <pt x="350" y="0" on="1"/>
        <pt x="247" y="0" on="1"/>
        <pt x="256" y="266" on="1"/>
        <pt x="17" y="609" on="1"/>
        <pt x="91" y="663" on="1"/>
        <pt x="304" y="343" on="1"/>
        <pt x="469" y="670" on="1"/>
        <pt x="546" y="635" on="1"/>
      </contour>
      <contour>
        <pt x="229" y="720" on="1"/>
        <pt x="330" y="862" on="1"/>
        <pt x="412" y="827" on="1"/>
        <pt x="284" y="685" on="1"/>
      </contour>
    </TTGlyph>
    <TTGlyph name="Ydieresis" xMin="17" yMin="0" xMax="546" yMax="812">
      <contour>
        <pt x="339" y="266" on="1"/>
        <pt x="350" y="0" on="1"/>
        <pt x="247" y="0" on="1"/>
        <pt x="256" y="266" on="1"/>
        <pt x="17" y="609" on="1"/>
        <pt x="91" y="663" on="1"/>
        <pt x="304" y="343" on="1"/>
        <pt x="469" y="670" on="1"/>
        <pt x="546" y="635" on="1"/>
      </contour>
      <contour>
        <pt x="349" y="702" on="0"/>
        <pt x="325" y="732" on="0"/>
        <pt x="325" y="781" on="0"/>
        <pt x="360" y="812" on="0"/>
        <pt x="402" y="812" on="0"/>
        <pt x="423" y="786" on="0"/>
        <pt x="423" y="738" on="0"/>
        <pt x="392" y="702" on="0"/>
      </contour>
      <contour>
        <pt x="177" y="702" on="0"/>
        <pt x="154" y="731" on="0"/>
        <pt x="154" y="782" on="0"/>
        <pt x="186" y="812" on="0"/>
        <pt x="208" y="812" on="1"/>
        <pt x="252" y="812" on="0"/>
        <pt x="252" y="766" on="1"/>
        <pt x="252" y="739" on="0"/>
        <pt x="218" y="702" on="0"/>
      </contour>
    </TTGlyph>
    <TTGlyph name="Z" xMin="30" yMin="-7" xMax="468" yMax="644">
      <contour>
        <pt x="146" y="80" on="1"/>
        <pt x="468" y="89" on="1"/>
        <pt x="464" y="-1" on="1"/>
        <pt x="34" y="-7" on="1"/>
        <pt x="30" y="54" on="1"/>
        <pt x="353" y="566" on="1"/>
        <pt x="190" y="564" on="0"/>
        <pt x="55" y="555" on="1"/>
        <pt x="56" y="644" on="1"/>
        <pt x="463" y="644" on="1"/>
        <pt x="463" y="583" on="1"/>
      </contour>
    </TTGlyph>
    <TTGlyph name="Zcaron" xMin="30" yMin="-7" xMax="468" yMax="852">
      <contour>
        <pt x="146" y="80" on="1"/>
        <pt x="468" y="89" on="1"/>
        <pt x="464" y="-1" on="1"/>
        <pt x="34" y="-7" on="1"/>
        <pt x="30" y="54" on="1"/>
        <pt x="353" y="566" on="1"/>
        <pt x="190" y="564" on="0"/>
        <pt x="55" y="555" on="1"/>
        <pt x="56" y="644" on="1"/>
        <pt x="463" y="644" on="1"/>
        <pt x="463" y="583" on="1"/>
      </contour>
      <contour>
        <pt x="219" y="852" on="1"/>
        <pt x="278" y="748" on="1"/>
        <pt x="338" y="852" on="1"/>
        <pt x="420" y="817" on="1"/>
        <pt x="289" y="675" on="1"/>
        <pt x="267" y="675" on="1"/>
        <pt x="137" y="817" on="1"/>
      </contour>
    </TTGlyph>
    <TTGlyph name="a" xMin="30" yMin="-8" xMax="383" yMax="481">
      <contour>
        <pt x="113" y="-8" on="0"/>
        <pt x="30" y="69" on="0"/>
        <pt x="30" y="199" on="0"/>
        <pt x="124" y="281" on="0"/>
        <pt x="252" y="281" on="0"/>
        <pt x="297" y="240" on="1"/>
        <pt x="297" y="278" on="1"/>
        <pt x="297" y="340" on="0"/>
        <pt x="248" y="409" on="0"/>
        <pt x="176" y="409" on="0"/>
        <pt x="123" y="376" on="0"/>
        <pt x="94" y="342" on="1"/>
        <pt x="49" y="393" on="1"/>
        <pt x="117" y="481" on="0"/>
        <pt x="220" y="481" on="1"/>
        <pt x="382" y="481" on="0"/>
        <pt x="382" y="115" on="0"/>
        <pt x="383" y="-1" on="1"/>
        <pt x="312" y="-1" on="1"/>
        <pt x="309" y="43" on="1"/>
        <pt x="306" y="45" on="1"/>
        <pt x="292" y="25" on="0"/>
        <pt x="217" y="-8" on="0"/>
        <pt x="178" y="-8" on="1"/>
      </contour>
      <contour>
        <pt x="298" y="140" on="1"/>
        <pt x="297" y="176" on="0"/>
        <pt x="239" y="216" on="0"/>
        <pt x="157" y="216" on="0"/>
        <pt x="111" y="170" on="0"/>
        <pt x="111" y="106" on="0"/>
        <pt x="158" y="59" on="0"/>
        <pt x="240" y="59" on="0"/>
        <pt x="297" y="100" on="0"/>
      </contour>
    </TTGlyph>
    <TTGlyph name="aacute" xMin="30" yMin="-8" xMax="383" yMax="693">
      <contour>
        <pt x="113" y="-8" on="0"/>
        <pt x="30" y="69" on="0"/>
        <pt x="30" y="199" on="0"/>
        <pt x="124" y="281" on="0"/>
        <pt x="252" y="281" on="0"/>
        <pt x="297" y="240" on="1"/>
        <pt x="297" y="278" on="1"/>
        <pt x="297" y="340" on="0"/>
        <pt x="248" y="409" on="0"/>
        <pt x="176" y="409" on="0"/>
        <pt x="123" y="376" on="0"/>
        <pt x="94" y="342" on="1"/>
        <pt x="49" y="393" on="1"/>
        <pt x="117" y="481" on="0"/>
        <pt x="220" y="481" on="1"/>
        <pt x="382" y="481" on="0"/>
        <pt x="382" y="115" on="0"/>
        <pt x="383" y="-1" on="1"/>
        <pt x="312" y="-1" on="1"/>
        <pt x="309" y="43" on="1"/>
        <pt x="306" y="45" on="1"/>
        <pt x="292" y="25" on="0"/>
        <pt x="217" y="-8" on="0"/>
        <pt x="178" y="-8" on="1"/>
      </contour>
      <contour>
        <pt x="298" y="140" on="1"/>
        <pt x="297" y="176" on="0"/>
        <pt x="239" y="216" on="0"/>
        <pt x="157" y="216" on="0"/>
        <pt x="111" y="170" on="0"/>
        <pt x="111" y="106" on="0"/>
        <pt x="158" y="59" on="0"/>
        <pt x="240" y="59" on="0"/>
        <pt x="297" y="100" on="0"/>
      </contour>
      <contour>
        <pt x="182" y="551" on="1"/>
        <pt x="283" y="693" on="1"/>
        <pt x="365" y="658" on="1"/>
        <pt x="237" y="516" on="1"/>
      </contour>
    </TTGlyph>
    <TTGlyph name="acircumflex" xMin="30" yMin="-8" xMax="383" yMax="693">
      <contour>
        <pt x="113" y="-8" on="0"/>
        <pt x="30" y="69" on="0"/>
        <pt x="30" y="199" on="0"/>
        <pt x="124" y="281" on="0"/>
        <pt x="252" y="281" on="0"/>
        <pt x="297" y="240" on="1"/>
        <pt x="297" y="278" on="1"/>
        <pt x="297" y="340" on="0"/>
        <pt x="248" y="409" on="0"/>
        <pt x="176" y="409" on="0"/>
        <pt x="123" y="376" on="0"/>
        <pt x="94" y="342" on="1"/>
        <pt x="49" y="393" on="1"/>
        <pt x="117" y="481" on="0"/>
        <pt x="220" y="481" on="1"/>
        <pt x="382" y="481" on="0"/>
        <pt x="382" y="115" on="0"/>
        <pt x="383" y="-1" on="1"/>
        <pt x="312" y="-1" on="1"/>
        <pt x="309" y="43" on="1"/>
        <pt x="306" y="45" on="1"/>
        <pt x="292" y="25" on="0"/>
        <pt x="217" y="-8" on="0"/>
        <pt x="178" y="-8" on="1"/>
      </contour>
      <contour>
        <pt x="298" y="140" on="1"/>
        <pt x="297" y="176" on="0"/>
        <pt x="239" y="216" on="0"/>
        <pt x="157" y="216" on="0"/>
        <pt x="111" y="170" on="0"/>
        <pt x="111" y="106" on="0"/>
        <pt x="158" y="59" on="0"/>
        <pt x="240" y="59" on="0"/>
        <pt x="297" y="100" on="0"/>
      </contour>
      <contour>
        <pt x="277" y="516" on="1"/>
        <pt x="218" y="620" on="1"/>
        <pt x="158" y="516" on="1"/>
        <pt x="76" y="551" on="1"/>
        <pt x="207" y="693" on="1"/>
        <pt x="229" y="693" on="1"/>
        <pt x="359" y="551" on="1"/>
      </contour>
    </TTGlyph>
    <TTGlyph name="acute" xMin="10" yMin="516" xMax="193" yMax="693">
      <contour>
        <pt x="10" y="551" on="1"/>
        <pt x="111" y="693" on="1"/>
        <pt x="193" y="658" on="1"/>
        <pt x="65" y="516" on="1"/>
      </contour>
    </TTGlyph>
    <TTGlyph name="adieresis" xMin="30" yMin="-8" xMax="383" yMax="636">
      <contour>
        <pt x="113" y="-8" on="0"/>
        <pt x="30" y="69" on="0"/>
        <pt x="30" y="199" on="0"/>
        <pt x="124" y="281" on="0"/>
        <pt x="252" y="281" on="0"/>
        <pt x="297" y="240" on="1"/>
        <pt x="297" y="278" on="1"/>
        <pt x="297" y="340" on="0"/>
        <pt x="248" y="409" on="0"/>
        <pt x="176" y="409" on="0"/>
        <pt x="123" y="376" on="0"/>
        <pt x="94" y="342" on="1"/>
        <pt x="49" y="393" on="1"/>
        <pt x="117" y="481" on="0"/>
        <pt x="220" y="481" on="1"/>
        <pt x="382" y="481" on="0"/>
        <pt x="382" y="115" on="0"/>
        <pt x="383" y="-1" on="1"/>
        <pt x="312" y="-1" on="1"/>
        <pt x="309" y="43" on="1"/>
        <pt x="306" y="45" on="1"/>
        <pt x="292" y="25" on="0"/>
        <pt x="217" y="-8" on="0"/>
        <pt x="178" y="-8" on="1"/>
      </contour>
      <contour>
        <pt x="298" y="140" on="1"/>
        <pt x="297" y="176" on="0"/>
        <pt x="239" y="216" on="0"/>
        <pt x="157" y="216" on="0"/>
        <pt x="111" y="170" on="0"/>
        <pt x="111" y="106" on="0"/>
        <pt x="158" y="59" on="0"/>
        <pt x="240" y="59" on="0"/>
        <pt x="297" y="100" on="0"/>
      </contour>
      <contour>
        <pt x="281" y="526" on="0"/>
        <pt x="257" y="556" on="0"/>
        <pt x="257" y="605" on="0"/>
        <pt x="292" y="636" on="0"/>
        <pt x="334" y="636" on="0"/>
        <pt x="355" y="610" on="0"/>
        <pt x="355" y="562" on="0"/>
        <pt x="324" y="526" on="0"/>
      </contour>
      <contour>
        <pt x="109" y="526" on="0"/>
        <pt x="86" y="555" on="0"/>
        <pt x="86" y="606" on="0"/>
        <pt x="118" y="636" on="0"/>
        <pt x="140" y="636" on="1"/>
        <pt x="184" y="636" on="0"/>
        <pt x="184" y="590" on="1"/>
        <pt x="184" y="563" on="0"/>
        <pt x="150" y="526" on="0"/>
      </contour>
    </TTGlyph>
    <TTGlyph name="ae" xMin="30" yMin="-8" xMax="682" yMax="487">
      <contour>
        <pt x="676" y="204" on="1"/>
        <pt x="381" y="202" on="1"/>
        <pt x="381" y="138" on="0"/>
        <pt x="453" y="61" on="0"/>
        <pt x="543" y="61" on="0"/>
        <pt x="608" y="90" on="0"/>
        <pt x="622" y="104" on="1"/>
        <pt x="635" y="119" on="1"/>
        <pt x="676" y="65" on="1"/>
        <pt x="618" y="-5" on="0"/>
        <pt x="384" y="-5" on="0"/>
        <pt x="333" y="72" on="1"/>
        <pt x="281" y="-8" on="0"/>
        <pt x="178" y="-8" on="1"/>
        <pt x="113" y="-8" on="0"/>
        <pt x="30" y="69" on="0"/>
        <pt x="30" y="199" on="0"/>
        <pt x="124" y="281" on="0"/>
        <pt x="252" y="281" on="0"/>
        <pt x="297" y="240" on="1"/>
        <pt x="297" y="278" on="1"/>
        <pt x="297" y="340" on="0"/>
        <pt x="248" y="409" on="0"/>
        <pt x="176" y="409" on="0"/>
        <pt x="123" y="376" on="0"/>
        <pt x="94" y="342" on="1"/>
        <pt x="49" y="393" on="1"/>
        <pt x="66" y="436" on="0"/>
        <pt x="163" y="487" on="0"/>
        <pt x="270" y="487" on="0"/>
        <pt x="346" y="437" on="0"/>
        <pt x="354" y="389" on="1"/>
        <pt x="420" y="477" on="0"/>
        <pt x="526" y="477" on="1"/>
        <pt x="607" y="477" on="0"/>
        <pt x="682" y="366" on="0"/>
        <pt x="682" y="277" on="1"/>
        <pt x="682" y="240" on="0"/>
      </contour>
      <contour>
        <pt x="604" y="333" on="0"/>
        <pt x="561" y="407" on="0"/>
        <pt x="452" y="407" on="0"/>
        <pt x="381" y="312" on="0"/>
        <pt x="380" y="259" on="1"/>
        <pt x="604" y="261" on="1"/>
      </contour>
      <contour>
        <pt x="240" y="59" on="0"/>
        <pt x="298" y="101" on="0"/>
        <pt x="298" y="176" on="0"/>
        <pt x="239" y="216" on="0"/>
        <pt x="157" y="216" on="0"/>
        <pt x="111" y="170" on="0"/>
        <pt x="111" y="106" on="0"/>
        <pt x="158" y="59" on="0"/>
      </contour>
    </TTGlyph>
    <TTGlyph name="afii61289" xMin="30" yMin="-16" xMax="445" yMax="734">
      <contour>
        <pt x="386" y="162" on="1"/>
        <pt x="445" y="116" on="1"/>
        <pt x="409" y="52" on="0"/>
        <pt x="311" y="-16" on="0"/>
        <pt x="216" y="-16" on="0"/>
        <pt x="146" y="38" on="0"/>
        <pt x="128" y="90" on="1"/>
        <pt x="118" y="119" on="0"/>
        <pt x="110" y="167" on="1"/>
        <pt x="90" y="153" on="0"/>
        <pt x="59" y="136" on="1"/>
        <pt x="30" y="189" on="1"/>
        <pt x="66" y="210" on="0"/>
        <pt x="102" y="236" on="1"/>
        <pt x="97" y="287" on="0"/>
        <pt x="97" y="405" on="0"/>
        <pt x="98" y="455" on="0"/>
        <pt x="104" y="541" on="0"/>
        <pt x="116" y="598" on="0"/>
        <pt x="141" y="666" on="0"/>
        <pt x="158" y="686" on="1"/>
        <pt x="199" y="734" on="0"/>
        <pt x="318" y="734" on="0"/>
        <pt x="382" y="654" on="0"/>
        <pt x="382" y="504" on="0"/>
        <pt x="275" y="302" on="0"/>
        <pt x="176" y="218" on="1"/>
        <pt x="193" y="50" on="0"/>
        <pt x="278" y="50" on="1"/>
        <pt x="312" y="50" on="0"/>
        <pt x="375" y="115" on="0"/>
      </contour>
      <contour>
        <pt x="173" y="299" on="1"/>
        <pt x="241" y="368" on="0"/>
        <pt x="308" y="519" on="0"/>
        <pt x="308" y="570" on="1"/>
        <pt x="308" y="669" on="0"/>
        <pt x="255" y="669" on="1"/>
        <pt x="173" y="669" on="0"/>
      </contour>
    </TTGlyph>
    <TTGlyph name="agrave" xMin="30" yMin="-8" xMax="383" yMax="693">
      <contour>
        <pt x="113" y="-8" on="0"/>
        <pt x="30" y="69" on="0"/>
        <pt x="30" y="199" on="0"/>
        <pt x="124" y="281" on="0"/>
        <pt x="252" y="281" on="0"/>
        <pt x="297" y="240" on="1"/>
        <pt x="297" y="278" on="1"/>
        <pt x="297" y="340" on="0"/>
        <pt x="248" y="409" on="0"/>
        <pt x="176" y="409" on="0"/>
        <pt x="123" y="376" on="0"/>
        <pt x="94" y="342" on="1"/>
        <pt x="49" y="393" on="1"/>
        <pt x="117" y="481" on="0"/>
        <pt x="220" y="481" on="1"/>
        <pt x="382" y="481" on="0"/>
        <pt x="382" y="115" on="0"/>
        <pt x="383" y="-1" on="1"/>
        <pt x="312" y="-1" on="1"/>
        <pt x="309" y="43" on="1"/>
        <pt x="306" y="45" on="1"/>
        <pt x="292" y="25" on="0"/>
        <pt x="217" y="-8" on="0"/>
        <pt x="178" y="-8" on="1"/>
      </contour>
      <contour>
        <pt x="298" y="140" on="1"/>
        <pt x="297" y="176" on="0"/>
        <pt x="239" y="216" on="0"/>
        <pt x="157" y="216" on="0"/>
        <pt x="111" y="170" on="0"/>
        <pt x="111" y="106" on="0"/>
        <pt x="158" y="59" on="0"/>
        <pt x="240" y="59" on="0"/>
        <pt x="297" y="100" on="0"/>
      </contour>
      <contour>
        <pt x="160" y="693" on="1"/>
        <pt x="261" y="551" on="1"/>
        <pt x="206" y="516" on="1"/>
        <pt x="78" y="658" on="1"/>
      </contour>
    </TTGlyph>
    <TTGlyph name="ampersand" xMin="12" yMin="-28" xMax="630" yMax="659">
      <contour>
        <pt x="630" y="58" on="1"/>
        <pt x="570" y="-13" on="1"/>
        <pt x="504" y="14" on="0"/>
        <pt x="439" y="55" on="1"/>
        <pt x="356" y="-28" on="0"/>
        <pt x="129" y="-28" on="0"/>
        <pt x="12" y="80" on="0"/>
        <pt x="12" y="159" on="1"/>
        <pt x="12" y="212" on="0"/>
        <pt x="61" y="314" on="0"/>
        <pt x="108" y="349" on="1"/>
        <pt x="59" y="417" on="0"/>
        <pt x="59" y="462" on="1"/>
        <pt x="59" y="540" on="0"/>
        <pt x="177" y="659" on="0"/>
        <pt x="354" y="659" on="0"/>
        <pt x="413" y="576" on="1"/>
        <pt x="341" y="528" on="1"/>
        <pt x="306" y="577" on="0"/>
        <pt x="213" y="577" on="0"/>
        <pt x="149" y="516" on="0"/>
        <pt x="149" y="415" on="0"/>
        <pt x="315" y="233" on="0"/>
        <pt x="424" y="158" on="1"/>
        <pt x="443" y="198" on="0"/>
        <pt x="443" y="237" on="1"/>
        <pt x="443" y="302" on="0"/>
        <pt x="406" y="354" on="1"/>
        <pt x="484" y="394" on="1"/>
        <pt x="522" y="331" on="0"/>
        <pt x="522" y="185" on="0"/>
        <pt x="486" y="118" on="1"/>
        <pt x="565" y="72" on="0"/>
      </contour>
      <contour>
        <pt x="148" y="298" on="1"/>
        <pt x="95" y="253" on="0"/>
        <pt x="95" y="123" on="0"/>
        <pt x="191" y="49" on="0"/>
        <pt x="329" y="49" on="0"/>
        <pt x="376" y="96" on="1"/>
        <pt x="241" y="190" on="0"/>
      </contour>
    </TTGlyph>
    <TTGlyph name="approxequal" xMin="50" yMin="149" xMax="521" yMax="470">
      <contour>
        <pt x="116" y="346" on="1"/>
        <pt x="50" y="376" on="1"/>
        <pt x="77" y="428" on="0"/>
        <pt x="137" y="470" on="0"/>
        <pt x="216" y="470" on="0"/>
        <pt x="356" y="414" on="0"/>
        <pt x="378" y="414" on="1"/>
        <pt x="428" y="414" on="0"/>
        <pt x="455" y="470" on="1"/>
        <pt x="521" y="440" on="1"/>
        <pt x="494" y="388" on="0"/>
        <pt x="434" y="346" on="0"/>
        <pt x="355" y="346" on="0"/>
        <pt x="215" y="402" on="0"/>
        <pt x="192" y="402" on="1"/>
        <pt x="143" y="402" on="0"/>
      </contour>
      <contour>
        <pt x="116" y="149" on="1"/>
        <pt x="50" y="179" on="1"/>
        <pt x="77" y="231" on="0"/>
        <pt x="137" y="273" on="0"/>
        <pt x="216" y="273" on="0"/>
        <pt x="356" y="217" on="0"/>
        <pt x="378" y="217" on="1"/>
        <pt x="428" y="217" on="0"/>
        <pt x="455" y="273" on="1"/>
        <pt x="521" y="243" on="1"/>
        <pt x="494" y="191" on="0"/>
        <pt x="434" y="149" on="0"/>
        <pt x="355" y="149" on="0"/>
        <pt x="215" y="205" on="0"/>
        <pt x="192" y="205" on="1"/>
        <pt x="143" y="205" on="0"/>
      </contour>
    </TTGlyph>
    <TTGlyph name="aring" xMin="30" yMin="-8" xMax="383" yMax="722">
      <contour>
        <pt x="113" y="-8" on="0"/>
        <pt x="30" y="69" on="0"/>
        <pt x="30" y="199" on="0"/>
        <pt x="124" y="281" on="0"/>
        <pt x="252" y="281" on="0"/>
        <pt x="297" y="240" on="1"/>
        <pt x="297" y="278" on="1"/>
        <pt x="297" y="340" on="0"/>
        <pt x="248" y="409" on="0"/>
        <pt x="176" y="409" on="0"/>
        <pt x="123" y="376" on="0"/>
        <pt x="94" y="342" on="1"/>
        <pt x="49" y="393" on="1"/>
        <pt x="117" y="481" on="0"/>
        <pt x="220" y="481" on="1"/>
        <pt x="382" y="481" on="0"/>
        <pt x="382" y="115" on="0"/>
        <pt x="383" y="-1" on="1"/>
        <pt x="312" y="-1" on="1"/>
        <pt x="309" y="43" on="1"/>
        <pt x="306" y="45" on="1"/>
        <pt x="292" y="25" on="0"/>
        <pt x="217" y="-8" on="0"/>
        <pt x="178" y="-8" on="1"/>
      </contour>
      <contour>
        <pt x="298" y="140" on="1"/>
        <pt x="297" y="176" on="0"/>
        <pt x="239" y="216" on="0"/>
        <pt x="157" y="216" on="0"/>
        <pt x="111" y="170" on="0"/>
        <pt x="111" y="106" on="0"/>
        <pt x="158" y="59" on="0"/>
        <pt x="240" y="59" on="0"/>
        <pt x="297" y="100" on="0"/>
      </contour>
      <contour>
        <pt x="135" y="659" on="0"/>
        <pt x="190" y="722" on="0"/>
        <pt x="284" y="722" on="0"/>
        <pt x="330" y="669" on="0"/>
        <pt x="330" y="587" on="0"/>
        <pt x="279" y="521" on="0"/>
        <pt x="189" y="521" on="0"/>
        <pt x="135" y="578" on="0"/>
      </contour>
      <contour>
        <pt x="230" y="575" on="1"/>
        <pt x="274" y="575" on="0"/>
        <pt x="274" y="667" on="0"/>
        <pt x="238" y="667" on="1"/>
        <pt x="215" y="667" on="0"/>
        <pt x="190" y="640" on="0"/>
        <pt x="190" y="602" on="0"/>
        <pt x="212" y="575" on="0"/>
      </contour>
    </TTGlyph>
    <TTGlyph name="asciicircum" xMin="65" yMin="516" xMax="348" yMax="693">
      <contour>
        <pt x="266" y="516" on="1"/>
        <pt x="207" y="620" on="1"/>
        <pt x="147" y="516" on="1"/>
        <pt x="65" y="551" on="1"/>
        <pt x="196" y="693" on="1"/>
        <pt x="218" y="693" on="1"/>
        <pt x="348" y="551" on="1"/>
      </contour>
    </TTGlyph>
    <TTGlyph name="asciitilde" xMin="19" yMin="563" xMax="363" yMax="682">
      <contour>
        <pt x="85" y="563" on="1"/>
        <pt x="19" y="593" on="1"/>
        <pt x="69" y="675" on="0"/>
        <pt x="130" y="675" on="1"/>
        <pt x="155" y="675" on="0"/>
        <pt x="236" y="641" on="0"/>
        <pt x="251" y="641" on="1"/>
        <pt x="281" y="641" on="0"/>
        <pt x="300" y="682" on="1"/>
        <pt x="363" y="647" on="1"/>
        <pt x="330" y="564" on="0"/>
        <pt x="277" y="564" on="1"/>
        <pt x="253" y="564" on="0"/>
        <pt x="159" y="609" on="0"/>
        <pt x="139" y="609" on="1"/>
        <pt x="104" y="609" on="0"/>
      </contour>
    </TTGlyph>
    <TTGlyph name="asterisk" xMin="42" yMin="366" xMax="403" yMax="735">
      <contour>
        <pt x="360" y="422" on="1"/>
        <pt x="346" y="433" on="0"/>
        <pt x="245" y="513" on="1"/>
        <pt x="256" y="414" on="0"/>
        <pt x="263" y="368" on="1"/>
        <pt x="181" y="366" on="1"/>
        <pt x="187" y="397" on="0"/>
        <pt x="202" y="513" on="1"/>
        <pt x="108" y="443" on="0"/>
        <pt x="85" y="425" on="1"/>
        <pt x="42" y="495" on="1"/>
        <pt x="78" y="508" on="0"/>
        <pt x="184" y="551" on="1"/>
        <pt x="167" y="557" on="0"/>
        <pt x="69" y="596" on="0"/>
        <pt x="43" y="605" on="1"/>
        <pt x="80" y="678" on="1"/>
        <pt x="97" y="665" on="0"/>
        <pt x="179" y="604" on="0"/>
        <pt x="202" y="586" on="1"/>
        <pt x="190" y="681" on="0"/>
        <pt x="181" y="732" on="1"/>
        <pt x="263" y="735" on="1"/>
        <pt x="259" y="708" on="0"/>
        <pt x="248" y="609" on="0"/>
        <pt x="245" y="586" on="1"/>
        <pt x="260" y="598" on="0"/>
        <pt x="306" y="635" on="0"/>
        <pt x="343" y="664" on="0"/>
        <pt x="359" y="678" on="1"/>
        <pt x="403" y="610" on="1"/>
        <pt x="395" y="607" on="0"/>
        <pt x="294" y="563" on="0"/>
        <pt x="262" y="551" on="1"/>
        <pt x="399" y="495" on="1"/>
      </contour>
    </TTGlyph>
    <TTGlyph name="at" xMin="22" yMin="-116" xMax="528" yMax="479">
      <contour>
        <pt x="172" y="173" on="1"/>
        <pt x="172" y="246" on="0"/>
        <pt x="263" y="330" on="0"/>
        <pt x="401" y="330" on="0"/>
        <pt x="449" y="273" on="1"/>
        <pt x="452" y="275" on="1"/>
        <pt x="452" y="342" on="0"/>
        <pt x="376" y="408" on="0"/>
        <pt x="322" y="408" on="1"/>
        <pt x="235" y="408" on="0"/>
        <pt x="106" y="274" on="0"/>
        <pt x="106" y="76" on="0"/>
        <pt x="219" y="-40" on="0"/>
        <pt x="300" y="-40" on="1"/>
        <pt x="359" y="-40" on="0"/>
        <pt x="414" y="-8" on="1"/>
        <pt x="425" y="-89" on="1"/>
        <pt x="365" y="-116" on="0"/>
        <pt x="298" y="-116" on="1"/>
        <pt x="185" y="-116" on="0"/>
        <pt x="22" y="28" on="0"/>
        <pt x="22" y="287" on="0"/>
        <pt x="194" y="479" on="0"/>
        <pt x="328" y="479" on="1"/>
        <pt x="434" y="479" on="0"/>
        <pt x="528" y="362" on="0"/>
        <pt x="528" y="243" on="1"/>
        <pt x="528" y="197" on="0"/>
        <pt x="518" y="51" on="1"/>
        <pt x="457" y="46" on="1"/>
        <pt x="455" y="94" on="1"/>
        <pt x="448" y="96" on="1"/>
        <pt x="402" y="38" on="0"/>
        <pt x="320" y="38" on="1"/>
        <pt x="261" y="38" on="0"/>
        <pt x="175" y="108" on="0"/>
      </contour>
      <contour>
        <pt x="387" y="101" on="0"/>
        <pt x="441" y="147" on="0"/>
        <pt x="441" y="219" on="0"/>
        <pt x="376" y="269" on="0"/>
        <pt x="300" y="269" on="0"/>
        <pt x="256" y="224" on="0"/>
        <pt x="256" y="150" on="0"/>
        <pt x="311" y="101" on="0"/>
      </contour>
    </TTGlyph>
    <TTGlyph name="atilde" xMin="30" yMin="-8" xMax="383" yMax="662">
      <contour>
        <pt x="113" y="-8" on="0"/>
        <pt x="30" y="69" on="0"/>
        <pt x="30" y="199" on="0"/>
        <pt x="124" y="281" on="0"/>
        <pt x="252" y="281" on="0"/>
        <pt x="297" y="240" on="1"/>
        <pt x="297" y="278" on="1"/>
        <pt x="297" y="340" on="0"/>
        <pt x="248" y="409" on="0"/>
        <pt x="176" y="409" on="0"/>
        <pt x="123" y="376" on="0"/>
        <pt x="94" y="342" on="1"/>
        <pt x="49" y="393" on="1"/>
        <pt x="117" y="481" on="0"/>
        <pt x="220" y="481" on="1"/>
        <pt x="382" y="481" on="0"/>
        <pt x="382" y="115" on="0"/>
        <pt x="383" y="-1" on="1"/>
        <pt x="312" y="-1" on="1"/>
        <pt x="309" y="43" on="1"/>
        <pt x="306" y="45" on="1"/>
        <pt x="292" y="25" on="0"/>
        <pt x="217" y="-8" on="0"/>
        <pt x="178" y="-8" on="1"/>
      </contour>
      <contour>
        <pt x="298" y="140" on="1"/>
        <pt x="297" y="176" on="0"/>
        <pt x="239" y="216" on="0"/>
        <pt x="157" y="216" on="0"/>
        <pt x="111" y="170" on="0"/>
        <pt x="111" y="106" on="0"/>
        <pt x="158" y="59" on="0"/>
        <pt x="240" y="59" on="0"/>
        <pt x="297" y="100" on="0"/>
      </contour>
      <contour>
        <pt x="104" y="543" on="1"/>
        <pt x="38" y="573" on="1"/>
        <pt x="88" y="655" on="0"/>
        <pt x="149" y="655" on="1"/>
        <pt x="174" y="655" on="0"/>
        <pt x="255" y="621" on="0"/>
        <pt x="270" y="621" on="1"/>
        <pt x="300" y="621" on="0"/>
        <pt x="319" y="662" on="1"/>
        <pt x="382" y="627" on="1"/>
        <pt x="349" y="544" on="0"/>
        <pt x="296" y="544" on="1"/>
        <pt x="272" y="544" on="0"/>
        <pt x="178" y="589" on="0"/>
        <pt x="158" y="589" on="1"/>
        <pt x="123" y="589" on="0"/>
      </contour>
    </TTGlyph>
    <TTGlyph name="b" xMin="-14" yMin="-4" xMax="475" yMax="732">
      <contour>
        <pt x="-9" y="646" on="1"/>
        <pt x="-14" y="721" on="1"/>
        <pt x="150" y="732" on="1"/>
        <pt x="135" y="394" on="1"/>
        <pt x="143" y="389" on="1"/>
        <pt x="170" y="417" on="0"/>
        <pt x="206" y="448" on="0"/>
        <pt x="271" y="476" on="0"/>
        <pt x="308" y="476" on="1"/>
        <pt x="388" y="476" on="0"/>
        <pt x="475" y="362" on="0"/>
        <pt x="475" y="213" on="0"/>
        <pt x="424" y="86" on="0"/>
        <pt x="320" y="-4" on="0"/>
        <pt x="206" y="-4" on="0"/>
        <pt x="134" y="26" on="0"/>
        <pt x="89" y="76" on="0"/>
        <pt x="76" y="114" on="1"/>
        <pt x="52" y="182" on="0"/>
        <pt x="52" y="449" on="0"/>
        <pt x="59" y="650" on="1"/>
      </contour>
      <contour>
        <pt x="264" y="70" on="1"/>
        <pt x="315" y="70" on="0"/>
        <pt x="384" y="193" on="0"/>
        <pt x="384" y="326" on="0"/>
        <pt x="334" y="405" on="0"/>
        <pt x="222" y="405" on="0"/>
        <pt x="138" y="286" on="0"/>
        <pt x="138" y="152" on="0"/>
        <pt x="202" y="70" on="0"/>
      </contour>
    </TTGlyph>
    <TTGlyph name="backslash" xMin="-38" yMin="-18" xMax="390" yMax="762">
      <contour>
        <pt x="37" y="762" on="1"/>
        <pt x="390" y="-3" on="1"/>
        <pt x="317" y="-18" on="1"/>
        <pt x="-38" y="752" on="1"/>
      </contour>
    </TTGlyph>
    <TTGlyph name="bar" xMin="65" yMin="-253" xMax="142" yMax="736">
      <contour>
        <pt x="65" y="731" on="1"/>
        <pt x="142" y="736" on="1"/>
        <pt x="142" y="-250" on="1"/>
        <pt x="70" y="-253" on="1"/>
      </contour>
    </TTGlyph>
    <TTGlyph name="braceleft" xMin="46" yMin="-249" xMax="226" yMax="731">
      <contour>
        <pt x="46" y="214" on="1"/>
        <pt x="46" y="268" on="1"/>
        <pt x="119" y="279" on="0"/>
        <pt x="119" y="351" on="1"/>
        <pt x="119" y="392" on="0"/>
        <pt x="58" y="581" on="0"/>
        <pt x="58" y="612" on="1"/>
        <pt x="58" y="664" on="0"/>
        <pt x="138" y="730" on="0"/>
        <pt x="226" y="731" on="1"/>
        <pt x="223" y="654" on="1"/>
        <pt x="136" y="654" on="0"/>
        <pt x="136" y="594" on="1"/>
        <pt x="136" y="565" on="0"/>
        <pt x="199" y="382" on="0"/>
        <pt x="199" y="335" on="1"/>
        <pt x="199" y="272" on="0"/>
        <pt x="137" y="238" on="1"/>
        <pt x="199" y="206" on="0"/>
        <pt x="199" y="144" on="1"/>
        <pt x="199" y="98" on="0"/>
        <pt x="136" y="-83" on="0"/>
        <pt x="136" y="-112" on="1"/>
        <pt x="136" y="-172" on="0"/>
        <pt x="223" y="-172" on="1"/>
        <pt x="226" y="-249" on="1"/>
        <pt x="139" y="-249" on="0"/>
        <pt x="58" y="-182" on="0"/>
        <pt x="58" y="-130" on="1"/>
        <pt x="58" y="-99" on="0"/>
        <pt x="119" y="90" on="0"/>
        <pt x="119" y="131" on="1"/>
        <pt x="119" y="203" on="0"/>
      </contour>
    </TTGlyph>
    <TTGlyph name="braceright" xMin="43" yMin="-249" xMax="223" yMax="731">
      <contour>
        <pt x="223" y="268" on="1"/>
        <pt x="223" y="214" on="1"/>
        <pt x="150" y="203" on="0"/>
        <pt x="150" y="131" on="1"/>
        <pt x="150" y="90" on="0"/>
        <pt x="211" y="-99" on="0"/>
        <pt x="211" y="-130" on="1"/>
        <pt x="211" y="-182" on="0"/>
        <pt x="130" y="-249" on="0"/>
        <pt x="43" y="-249" on="1"/>
        <pt x="46" y="-172" on="1"/>
        <pt x="133" y="-172" on="0"/>
        <pt x="133" y="-112" on="1"/>
        <pt x="133" y="-83" on="0"/>
        <pt x="70" y="98" on="0"/>
        <pt x="70" y="144" on="1"/>
        <pt x="70" y="206" on="0"/>
        <pt x="132" y="238" on="1"/>
        <pt x="70" y="272" on="0"/>
        <pt x="70" y="335" on="1"/>
        <pt x="70" y="382" on="0"/>
        <pt x="133" y="565" on="0"/>
        <pt x="133" y="594" on="1"/>
        <pt x="133" y="654" on="0"/>
        <pt x="46" y="654" on="1"/>
        <pt x="43" y="731" on="1"/>
        <pt x="131" y="730" on="0"/>
        <pt x="211" y="664" on="0"/>
        <pt x="211" y="612" on="1"/>
        <pt x="211" y="581" on="0"/>
        <pt x="150" y="392" on="0"/>
        <pt x="150" y="351" on="1"/>
        <pt x="150" y="279" on="0"/>
      </contour>
    </TTGlyph>
    <TTGlyph name="bracketleft" xMin="71" yMin="-247" xMax="299" yMax="730">
      <contour>
        <pt x="72" y="-235" on="1"/>
        <pt x="71" y="718" on="1"/>
        <pt x="294" y="730" on="1"/>
        <pt x="298" y="653" on="1"/>
        <pt x="152" y="659" on="1"/>
        <pt x="153" y="-176" on="1"/>
        <pt x="299" y="-170" on="1"/>
        <pt x="295" y="-247" on="1"/>
      </contour>
    </TTGlyph>
    <TTGlyph name="bracketright" xMin="62" yMin="-247" xMax="290" yMax="730">
      <contour>
        <pt x="290" y="718" on="1"/>
        <pt x="289" y="-235" on="1"/>
        <pt x="66" y="-247" on="1"/>
        <pt x="62" y="-170" on="1"/>
        <pt x="208" y="-176" on="1"/>
        <pt x="209" y="659" on="1"/>
        <pt x="63" y="653" on="1"/>
        <pt x="67" y="730" on="1"/>
      </contour>
    </TTGlyph>
    <TTGlyph name="breve" xMin="50" yMin="520" xMax="394" yMax="693">
      <contour>
        <pt x="351" y="520" on="0"/>
        <pt x="93" y="520" on="0"/>
        <pt x="50" y="665" on="1"/>
        <pt x="128" y="693" on="1"/>
        <pt x="157" y="583" on="0"/>
        <pt x="287" y="583" on="0"/>
        <pt x="316" y="693" on="1"/>
        <pt x="394" y="665" on="1"/>
      </contour>
    </TTGlyph>
    <TTGlyph name="brokenbar" xMin="65" yMin="-253" xMax="142" yMax="736">
      <contour>
        <pt x="70" y="-253" on="1"/>
        <pt x="67" y="182" on="1"/>
        <pt x="142" y="182" on="1"/>
        <pt x="142" y="-250" on="1"/>
      </contour>
      <contour>
        <pt x="65" y="731" on="1"/>
        <pt x="142" y="736" on="1"/>
        <pt x="142" y="302" on="1"/>
        <pt x="67" y="302" on="1"/>
      </contour>
    </TTGlyph>
    <TTGlyph name="bullet" xMin="69" yMin="162" xMax="396" yMax="488">
      <contour>
        <pt x="69" y="386" on="0"/>
        <pt x="161" y="488" on="0"/>
        <pt x="318" y="488" on="0"/>
        <pt x="396" y="403" on="0"/>
        <pt x="396" y="269" on="0"/>
        <pt x="311" y="162" on="0"/>
        <pt x="159" y="162" on="0"/>
        <pt x="69" y="255" on="0"/>
      </contour>
    </TTGlyph>
    <TTGlyph name="c" xMin="32" yMin="-5" xMax="417" yMax="477">
      <contour>
        <pt x="400" y="437" on="1"/>
        <pt x="357" y="373" on="1"/>
        <pt x="339" y="386" on="0"/>
        <pt x="268" y="407" on="0"/>
        <pt x="241" y="407" on="1"/>
        <pt x="173" y="407" on="0"/>
        <pt x="112" y="309" on="0"/>
        <pt x="112" y="168" on="0"/>
        <pt x="178" y="58" on="0"/>
        <pt x="231" y="58" on="1"/>
        <pt x="271" y="58" on="0"/>
        <pt x="356" y="99" on="0"/>
        <pt x="376" y="126" on="1"/>
        <pt x="417" y="75" on="1"/>
        <pt x="391" y="43" on="0"/>
        <pt x="293" y="-5" on="0"/>
        <pt x="227" y="-5" on="1"/>
        <pt x="130" y="-5" on="0"/>
        <pt x="32" y="121" on="0"/>
        <pt x="32" y="329" on="0"/>
        <pt x="156" y="477" on="0"/>
        <pt x="257" y="477" on="1"/>
        <pt x="323" y="477" on="0"/>
      </contour>
    </TTGlyph>
    <TTGlyph name="c_t" xMin="32" yMin="-7" xMax="838" yMax="712">
      <contour>
        <pt x="394" y="431" on="1"/>
        <pt x="357" y="373" on="1"/>
        <pt x="339" y="386" on="0"/>
        <pt x="268" y="407" on="0"/>
        <pt x="241" y="407" on="1"/>
        <pt x="173" y="407" on="0"/>
        <pt x="112" y="309" on="0"/>
        <pt x="112" y="168" on="0"/>
        <pt x="178" y="58" on="0"/>
        <pt x="231" y="58" on="1"/>
        <pt x="271" y="58" on="0"/>
        <pt x="356" y="99" on="0"/>
        <pt x="376" y="126" on="1"/>
        <pt x="417" y="75" on="1"/>
        <pt x="391" y="43" on="0"/>
        <pt x="293" y="-5" on="0"/>
        <pt x="227" y="-5" on="1"/>
        <pt x="130" y="-5" on="0"/>
        <pt x="32" y="121" on="0"/>
        <pt x="32" y="327" on="0"/>
        <pt x="151" y="477" on="0"/>
        <pt x="234" y="477" on="1"/>
        <pt x="286" y="477" on="0"/>
        <pt x="315" y="465" on="1"/>
        <pt x="301" y="495" on="0"/>
        <pt x="301" y="614" on="0"/>
        <pt x="391" y="712" on="0"/>
        <pt x="538" y="712" on="0"/>
        <pt x="624" y="640" on="0"/>
        <pt x="624" y="572" on="1"/>
        <pt x="624" y="553" on="0"/>
        <pt x="611" y="478" on="1"/>
        <pt x="746" y="490" on="1"/>
        <pt x="726" y="413" on="1"/>
        <pt x="608" y="409" on="1"/>
        <pt x="600" y="294" on="0"/>
        <pt x="600" y="202" on="0"/>
        <pt x="602" y="164" on="0"/>
        <pt x="613" y="117" on="0"/>
        <pt x="622" y="102" on="1"/>
        <pt x="643" y="68" on="0"/>
        <pt x="689" y="68" on="1"/>
        <pt x="748" y="68" on="0"/>
        <pt x="774" y="127" on="1"/>
        <pt x="838" y="96" on="1"/>
        <pt x="815" y="47" on="0"/>
        <pt x="741" y="-7" on="0"/>
        <pt x="675" y="-7" on="1"/>
        <pt x="519" y="-7" on="0"/>
        <pt x="519" y="217" on="1"/>
        <pt x="525" y="402" on="1"/>
        <pt x="450" y="400" on="1"/>
        <pt x="457" y="440" on="1"/>
        <pt x="535" y="474" on="1"/>
        <pt x="550" y="512" on="0"/>
        <pt x="550" y="602" on="0"/>
        <pt x="505" y="646" on="0"/>
        <pt x="423" y="646" on="0"/>
        <pt x="364" y="588" on="0"/>
        <pt x="364" y="473" on="0"/>
      </contour>
    </TTGlyph>
    <TTGlyph name="caron" xMin="14" yMin="516" xMax="297" yMax="693">
      <contour>
        <pt x="96" y="693" on="1"/>
        <pt x="155" y="589" on="1"/>
        <pt x="215" y="693" on="1"/>
        <pt x="297" y="658" on="1"/>
        <pt x="166" y="516" on="1"/>
        <pt x="144" y="516" on="1"/>
        <pt x="14" y="658" on="1"/>
      </contour>
    </TTGlyph>
    <TTGlyph name="ccedilla" xMin="32" yMin="-234" xMax="417" yMax="477">
      <contour>
        <pt x="204" y="-86" on="1"/>
        <pt x="217" y="-5" on="1"/>
        <pt x="125" y="-1" on="0"/>
        <pt x="32" y="124" on="0"/>
        <pt x="32" y="329" on="0"/>
        <pt x="156" y="477" on="0"/>
        <pt x="257" y="477" on="1"/>
        <pt x="323" y="477" on="0"/>
        <pt x="400" y="437" on="1"/>
        <pt x="357" y="373" on="1"/>
        <pt x="339" y="386" on="0"/>
        <pt x="268" y="407" on="0"/>
        <pt x="241" y="407" on="1"/>
        <pt x="173" y="407" on="0"/>
        <pt x="112" y="309" on="0"/>
        <pt x="112" y="168" on="0"/>
        <pt x="178" y="58" on="0"/>
        <pt x="231" y="58" on="1"/>
        <pt x="271" y="58" on="0"/>
        <pt x="356" y="99" on="0"/>
        <pt x="376" y="126" on="1"/>
        <pt x="417" y="75" on="1"/>
        <pt x="368" y="15" on="0"/>
        <pt x="277" y="-1" on="1"/>
        <pt x="265" y="-54" on="1"/>
        <pt x="269" y="-53" on="0"/>
        <pt x="277" y="-53" on="1"/>
        <pt x="311" y="-53" on="0"/>
        <pt x="365" y="-100" on="0"/>
        <pt x="365" y="-137" on="1"/>
        <pt x="365" y="-188" on="0"/>
        <pt x="289" y="-234" on="0"/>
        <pt x="191" y="-234" on="0"/>
        <pt x="153" y="-219" on="1"/>
        <pt x="174" y="-159" on="1"/>
        <pt x="196" y="-183" on="0"/>
        <pt x="236" y="-183" on="1"/>
        <pt x="288" y="-183" on="0"/>
        <pt x="288" y="-136" on="1"/>
        <pt x="288" y="-91" on="0"/>
        <pt x="233" y="-91" on="1"/>
        <pt x="222" y="-91" on="0"/>
        <pt x="212" y="-94" on="1"/>
      </contour>
    </TTGlyph>
    <TTGlyph name="cedilla" xMin="50" yMin="-234" xMax="262" yMax="-1">
      <contour>
        <pt x="101" y="-86" on="1"/>
        <pt x="115" y="-1" on="1"/>
        <pt x="174" y="-1" on="1"/>
        <pt x="162" y="-54" on="1"/>
        <pt x="166" y="-53" on="0"/>
        <pt x="174" y="-53" on="1"/>
        <pt x="208" y="-53" on="0"/>
        <pt x="262" y="-100" on="0"/>
        <pt x="262" y="-137" on="1"/>
        <pt x="262" y="-188" on="0"/>
        <pt x="186" y="-234" on="0"/>
        <pt x="88" y="-234" on="0"/>
        <pt x="50" y="-219" on="1"/>
        <pt x="71" y="-159" on="1"/>
        <pt x="93" y="-183" on="0"/>
        <pt x="133" y="-183" on="1"/>
        <pt x="185" y="-183" on="0"/>
        <pt x="185" y="-136" on="1"/>
        <pt x="185" y="-91" on="0"/>
        <pt x="130" y="-91" on="1"/>
        <pt x="120" y="-91" on="0"/>
        <pt x="109" y="-94" on="1"/>
      </contour>
    </TTGlyph>
    <TTGlyph name="cent" xMin="21" yMin="-82" xMax="406" yMax="563">
      <contour>
        <pt x="201" y="-82" on="1"/>
        <pt x="128" y="-68" on="1"/>
        <pt x="141" y="7" on="1"/>
        <pt x="81" y="29" on="0"/>
        <pt x="21" y="144" on="0"/>
        <pt x="21" y="222" on="1"/>
        <pt x="21" y="323" on="0"/>
        <pt x="132" y="467" on="0"/>
        <pt x="224" y="476" on="1"/>
        <pt x="240" y="563" on="1"/>
        <pt x="305" y="556" on="1"/>
        <pt x="291" y="473" on="1"/>
        <pt x="331" y="466" on="0"/>
        <pt x="389" y="437" on="1"/>
        <pt x="346" y="373" on="1"/>
        <pt x="318" y="390" on="0"/>
        <pt x="279" y="400" on="1"/>
        <pt x="224" y="59" on="1"/>
        <pt x="262" y="60" on="0"/>
        <pt x="333" y="93" on="0"/>
        <pt x="349" y="110" on="1"/>
        <pt x="365" y="126" on="1"/>
        <pt x="406" y="75" on="1"/>
        <pt x="380" y="44" on="0"/>
        <pt x="280" y="-5" on="0"/>
        <pt x="214" y="-5" on="1"/>
      </contour>
      <contour>
        <pt x="154" y="398" on="0"/>
        <pt x="101" y="302" on="0"/>
        <pt x="101" y="190" on="0"/>
        <pt x="130" y="107" on="0"/>
        <pt x="155" y="87" on="1"/>
        <pt x="212" y="406" on="1"/>
      </contour>
    </TTGlyph>
    <TTGlyph name="circumflex" xMin="14" yMin="516" xMax="297" yMax="693">
      <contour>
        <pt x="215" y="516" on="1"/>
        <pt x="156" y="620" on="1"/>
        <pt x="96" y="516" on="1"/>
        <pt x="14" y="551" on="1"/>
        <pt x="145" y="693" on="1"/>
        <pt x="167" y="693" on="1"/>
        <pt x="297" y="551" on="1"/>
      </contour>
    </TTGlyph>
    <TTGlyph name="colon" xMin="40" yMin="1" xMax="168" yMax="358">
      <contour>
        <pt x="168" y="286" on="0"/>
        <pt x="135" y="250" on="0"/>
        <pt x="79" y="250" on="0"/>
        <pt x="48" y="275" on="0"/>
        <pt x="48" y="322" on="0"/>
        <pt x="86" y="358" on="0"/>
        <pt x="117" y="358" on="1"/>
        <pt x="168" y="358" on="0"/>
        <pt x="168" y="313" on="1"/>
      </contour>
      <contour>
        <pt x="160" y="37" on="0"/>
        <pt x="127" y="1" on="0"/>
        <pt x="71" y="1" on="0"/>
        <pt x="40" y="26" on="0"/>
        <pt x="40" y="73" on="0"/>
        <pt x="78" y="109" on="0"/>
        <pt x="109" y="109" on="1"/>
        <pt x="160" y="109" on="0"/>
        <pt x="160" y="64" on="1"/>
      </contour>
    </TTGlyph>
    <TTGlyph name="comma" xMin="17" yMin="-110" xMax="152" yMax="108">
      <contour>
        <pt x="97" y="108" on="1"/>
        <pt x="152" y="108" on="0"/>
        <pt x="152" y="51" on="1"/>
        <pt x="152" y="27" on="0"/>
        <pt x="116" y="-53" on="0"/>
        <pt x="98" y="-82" on="1"/>
        <pt x="81" y="-110" on="1"/>
        <pt x="17" y="-77" on="1"/>
        <pt x="87" y="6" on="1"/>
        <pt x="83" y="10" on="1"/>
        <pt x="69" y="4" on="0"/>
        <pt x="47" y="4" on="0"/>
        <pt x="27" y="30" on="0"/>
        <pt x="27" y="71" on="0"/>
        <pt x="66" y="108" on="0"/>
      </contour>
    </TTGlyph>
    <TTGlyph name="commaaccent" xMin="59" yMin="-250" xMax="194" yMax="-32">
      <contour>
        <pt x="139" y="-32" on="1"/>
        <pt x="194" y="-32" on="0"/>
        <pt x="194" y="-89" on="1"/>
        <pt x="194" y="-113" on="0"/>
        <pt x="158" y="-193" on="0"/>
        <pt x="140" y="-222" on="1"/>
        <pt x="123" y="-250" on="1"/>
        <pt x="59" y="-217" on="1"/>
        <pt x="129" y="-134" on="1"/>
        <pt x="125" y="-130" on="1"/>
        <pt x="111" y="-136" on="0"/>
        <pt x="89" y="-136" on="0"/>
        <pt x="69" y="-110" on="0"/>
        <pt x="69" y="-69" on="0"/>
        <pt x="108" y="-32" on="0"/>
      </contour>
    </TTGlyph>
    <TTGlyph name="copyright" xMin="20" yMin="-12" xMax="646" yMax="660">
      <contour>
        <pt x="333" y="660" on="1"/>
        <pt x="646" y="660" on="0"/>
        <pt x="646" y="331" on="1"/>
        <pt x="646" y="174" on="0"/>
        <pt x="482" y="-12" on="0"/>
        <pt x="217" y="-12" on="0"/>
        <pt x="20" y="168" on="0"/>
        <pt x="20" y="299" on="1"/>
        <pt x="20" y="439" on="0"/>
        <pt x="95" y="546" on="1"/>
        <pt x="132" y="598" on="0"/>
        <pt x="255" y="660" on="0"/>
      </contour>
      <contour>
        <pt x="461" y="461" on="1"/>
        <pt x="504" y="534" on="1"/>
        <pt x="427" y="574" on="0"/>
        <pt x="361" y="574" on="1"/>
        <pt x="260" y="574" on="0"/>
        <pt x="136" y="426" on="0"/>
        <pt x="136" y="218" on="0"/>
        <pt x="234" y="92" on="0"/>
        <pt x="331" y="92" on="1"/>
        <pt x="397" y="92" on="0"/>
        <pt x="495" y="140" on="0"/>
        <pt x="521" y="172" on="1"/>
        <pt x="480" y="223" on="1"/>
        <pt x="474" y="217" on="0"/>
        <pt x="452" y="200" on="0"/>
        <pt x="379" y="171" on="0"/>
        <pt x="341" y="171" on="1"/>
        <pt x="290" y="171" on="0"/>
        <pt x="223" y="270" on="0"/>
        <pt x="223" y="401" on="0"/>
        <pt x="285" y="495" on="0"/>
        <pt x="351" y="495" on="1"/>
        <pt x="379" y="495" on="0"/>
        <pt x="434" y="478" on="0"/>
        <pt x="448" y="470" on="1"/>
      </contour>
    </TTGlyph>
    <TTGlyph name="currency" xMin="29" yMin="57" xMax="541" yMax="569">
      <contour>
        <pt x="483" y="165" on="1"/>
        <pt x="541" y="109" on="1"/>
        <pt x="489" y="57" on="1"/>
        <pt x="432" y="114" on="1"/>
        <pt x="367" y="67" on="0"/>
        <pt x="195" y="67" on="0"/>
        <pt x="133" y="111" on="1"/>
        <pt x="109" y="87" on="0"/>
        <pt x="81" y="57" on="1"/>
        <pt x="29" y="109" on="1"/>
        <pt x="62" y="142" on="0"/>
        <pt x="83" y="162" on="1"/>
        <pt x="38" y="224" on="0"/>
        <pt x="38" y="392" on="0"/>
        <pt x="86" y="461" on="1"/>
        <pt x="64" y="482" on="0"/>
        <pt x="29" y="517" on="1"/>
        <pt x="81" y="569" on="1"/>
        <pt x="84" y="565" on="0"/>
        <pt x="135" y="512" on="1"/>
        <pt x="202" y="563" on="0"/>
        <pt x="378" y="563" on="0"/>
        <pt x="440" y="517" on="1"/>
        <pt x="472" y="550" on="0"/>
        <pt x="489" y="569" on="1"/>
        <pt x="541" y="517" on="1"/>
        <pt x="490" y="466" on="1"/>
        <pt x="534" y="405" on="0"/>
        <pt x="534" y="234" on="0"/>
      </contour>
      <contour>
        <pt x="268" y="129" on="1"/>
        <pt x="364" y="129" on="0"/>
        <pt x="464" y="239" on="0"/>
        <pt x="464" y="391" on="0"/>
        <pt x="376" y="500" on="0"/>
        <pt x="301" y="500" on="1"/>
        <pt x="204" y="500" on="0"/>
        <pt x="104" y="389" on="0"/>
        <pt x="104" y="238" on="0"/>
        <pt x="192" y="129" on="0"/>
      </contour>
    </TTGlyph>
    <TTGlyph name="d" xMin="25" yMin="-5" xMax="456" yMax="726">
      <contour>
        <pt x="446" y="171" on="1"/>
        <pt x="449" y="3" on="1"/>
        <pt x="380" y="-3" on="1"/>
        <pt x="371" y="71" on="1"/>
        <pt x="363" y="73" on="1"/>
        <pt x="292" y="-5" on="0"/>
        <pt x="189" y="-5" on="1"/>
        <pt x="108" y="-5" on="0"/>
        <pt x="25" y="118" on="0"/>
        <pt x="25" y="274" on="0"/>
        <pt x="71" y="393" on="0"/>
        <pt x="170" y="475" on="0"/>
        <pt x="306" y="475" on="0"/>
        <pt x="361" y="418" on="1"/>
        <pt x="367" y="421" on="1"/>
        <pt x="368" y="654" on="1"/>
        <pt x="293" y="651" on="1"/>
        <pt x="290" y="722" on="1"/>
        <pt x="456" y="726" on="1"/>
        <pt x="455" y="648" on="0"/>
        <pt x="446" y="282" on="0"/>
      </contour>
      <contour>
        <pt x="364" y="321" on="0"/>
        <pt x="299" y="404" on="0"/>
        <pt x="182" y="404" on="0"/>
        <pt x="110" y="281" on="0"/>
        <pt x="110" y="151" on="0"/>
        <pt x="170" y="74" on="0"/>
        <pt x="289" y="74" on="0"/>
        <pt x="364" y="185" on="0"/>
      </contour>
    </TTGlyph>
    <TTGlyph name="dagger" xMin="13" yMin="-95" xMax="468" yMax="653">
      <contour>
        <pt x="192" y="643" on="1"/>
        <pt x="296" y="653" on="1"/>
        <pt x="293" y="622" on="0"/>
        <pt x="288" y="460" on="0"/>
        <pt x="287" y="443" on="1"/>
        <pt x="468" y="443" on="1"/>
        <pt x="451" y="353" on="0"/>
        <pt x="447" y="353" on="1"/>
        <pt x="400" y="356" on="0"/>
        <pt x="285" y="358" on="1"/>
        <pt x="282" y="298" on="0"/>
        <pt x="282" y="-92" on="1"/>
        <pt x="194" y="-95" on="1"/>
        <pt x="194" y="358" on="1"/>
        <pt x="32" y="356" on="1"/>
        <pt x="13" y="443" on="1"/>
        <pt x="91" y="440" on="0"/>
        <pt x="192" y="440" on="1"/>
      </contour>
    </TTGlyph>
    <TTGlyph name="daggerdbl" xMin="14" yMin="-104" xMax="467" yMax="653">
      <contour>
        <pt x="284" y="191" on="1"/>
        <pt x="451" y="193" on="1"/>
        <pt x="455" y="193" on="0"/>
        <pt x="464" y="129" on="1"/>
        <pt x="467" y="108" on="1"/>
        <pt x="341" y="107" on="0"/>
        <pt x="287" y="107" on="1"/>
        <pt x="288" y="87" on="0"/>
        <pt x="289" y="-74" on="0"/>
        <pt x="292" y="-104" on="1"/>
        <pt x="192" y="-94" on="1"/>
        <pt x="192" y="109" on="1"/>
        <pt x="42" y="109" on="0"/>
        <pt x="16" y="108" on="1"/>
        <pt x="25" y="193" on="1"/>
        <pt x="193" y="194" on="1"/>
        <pt x="193" y="295" on="1"/>
        <pt x="193" y="334" on="0"/>
        <pt x="194" y="358" on="1"/>
        <pt x="22" y="356" on="1"/>
        <pt x="14" y="442" on="1"/>
        <pt x="66" y="440" on="0"/>
        <pt x="187" y="440" on="1"/>
        <pt x="187" y="643" on="1"/>
        <pt x="294" y="653" on="1"/>
        <pt x="291" y="623" on="0"/>
        <pt x="288" y="461" on="0"/>
        <pt x="287" y="442" on="1"/>
        <pt x="466" y="442" on="1"/>
        <pt x="460" y="356" on="0"/>
        <pt x="456" y="356" on="1"/>
        <pt x="284" y="358" on="1"/>
        <pt x="283" y="335" on="0"/>
        <pt x="283" y="225" on="0"/>
      </contour>
    </TTGlyph>
    <TTGlyph name="degree" xMin="50" yMin="396" xMax="315" yMax="660">
      <contour>
        <pt x="50" y="578" on="0"/>
        <pt x="125" y="660" on="0"/>
        <pt x="252" y="660" on="0"/>
        <pt x="315" y="591" on="0"/>
        <pt x="315" y="483" on="0"/>
        <pt x="246" y="396" on="0"/>
        <pt x="123" y="396" on="0"/>
        <pt x="50" y="471" on="0"/>
      </contour>
      <contour>
        <pt x="179" y="461" on="1"/>
        <pt x="247" y="461" on="0"/>
        <pt x="247" y="596" on="0"/>
        <pt x="192" y="596" on="1"/>
        <pt x="157" y="596" on="0"/>
        <pt x="118" y="556" on="0"/>
        <pt x="118" y="501" on="0"/>
        <pt x="152" y="461" on="0"/>
      </contour>
    </TTGlyph>
    <TTGlyph name="dieresis" xMin="27" yMin="533" xMax="296" yMax="643">
      <contour>
        <pt x="222" y="533" on="0"/>
        <pt x="198" y="563" on="0"/>
        <pt x="198" y="612" on="0"/>
        <pt x="233" y="643" on="0"/>
        <pt x="275" y="643" on="0"/>
        <pt x="296" y="617" on="0"/>
        <pt x="296" y="569" on="0"/>
        <pt x="265" y="533" on="0"/>
      </contour>
      <contour>
        <pt x="50" y="533" on="0"/>
        <pt x="27" y="562" on="0"/>
        <pt x="27" y="613" on="0"/>
        <pt x="59" y="643" on="0"/>
        <pt x="82" y="643" on="1"/>
        <pt x="125" y="643" on="0"/>
        <pt x="125" y="597" on="1"/>
        <pt x="125" y="570" on="0"/>
        <pt x="91" y="533" on="0"/>
      </contour>
    </TTGlyph>
    <TTGlyph name="divide" xMin="52" yMin="105" xMax="556" yMax="518">
      <contour>
        <pt x="366" y="446" on="0"/>
        <pt x="333" y="410" on="0"/>
        <pt x="277" y="410" on="0"/>
        <pt x="246" y="435" on="0"/>
        <pt x="246" y="482" on="0"/>
        <pt x="284" y="518" on="0"/>
        <pt x="315" y="518" on="1"/>
        <pt x="366" y="518" on="0"/>
        <pt x="366" y="473" on="1"/>
      </contour>
      <contour>
        <pt x="359" y="141" on="0"/>
        <pt x="326" y="105" on="0"/>
        <pt x="270" y="105" on="0"/>
        <pt x="239" y="130" on="0"/>
        <pt x="239" y="177" on="0"/>
        <pt x="277" y="213" on="0"/>
        <pt x="308" y="213" on="1"/>
        <pt x="359" y="213" on="0"/>
        <pt x="359" y="168" on="1"/>
      </contour>
      <contour>
        <pt x="52" y="274" on="1"/>
        <pt x="52" y="348" on="1"/>
        <pt x="136" y="346" on="0"/>
        <pt x="472" y="346" on="0"/>
        <pt x="556" y="348" on="1"/>
        <pt x="556" y="274" on="1"/>
        <pt x="388" y="276" on="0"/>
        <pt x="220" y="276" on="0"/>
      </contour>
    </TTGlyph>
    <TTGlyph name="dollar" xMin="42" yMin="-70" xMax="380" yMax="621">
      <contour>
        <pt x="189" y="621" on="1"/>
        <pt x="249" y="616" on="1"/>
        <pt x="247" y="555" on="1"/>
        <pt x="304" y="552" on="0"/>
        <pt x="361" y="527" on="1"/>
        <pt x="348" y="451" on="1"/>
        <pt x="294" y="471" on="0"/>
        <pt x="246" y="474" on="1"/>
        <pt x="242" y="290" on="1"/>
        <pt x="346" y="253" on="0"/>
        <pt x="369" y="201" on="1"/>
        <pt x="380" y="176" on="0"/>
        <pt x="380" y="143" on="1"/>
        <pt x="380" y="83" on="0"/>
        <pt x="300" y="7" on="0"/>
        <pt x="236" y="-4" on="1"/>
        <pt x="235" y="-70" on="1"/>
        <pt x="176" y="-70" on="1"/>
        <pt x="177" y="-8" on="1"/>
        <pt x="101" y="-5" on="0"/>
        <pt x="42" y="19" on="1"/>
        <pt x="58" y="91" on="1"/>
        <pt x="136" y="64" on="0"/>
        <pt x="178" y="63" on="1"/>
        <pt x="181" y="230" on="1"/>
        <pt x="118" y="254" on="0"/>
        <pt x="43" y="322" on="0"/>
        <pt x="43" y="451" on="0"/>
        <pt x="123" y="537" on="0"/>
        <pt x="187" y="550" on="1"/>
      </contour>
      <contour>
        <pt x="118" y="389" on="1"/>
        <pt x="118" y="340" on="0"/>
        <pt x="183" y="313" on="1"/>
        <pt x="186" y="469" on="1"/>
        <pt x="118" y="451" on="0"/>
      </contour>
      <contour>
        <pt x="300" y="143" on="1"/>
        <pt x="300" y="181" on="0"/>
        <pt x="241" y="207" on="1"/>
        <pt x="238" y="70" on="1"/>
        <pt x="300" y="87" on="0"/>
      </contour>
    </TTGlyph>
    <TTGlyph name="dotaccent" xMin="50" yMin="529" xMax="170" yMax="637">
      <contour>
        <pt x="170" y="565" on="0"/>
        <pt x="137" y="529" on="0"/>
        <pt x="81" y="529" on="0"/>
        <pt x="50" y="554" on="0"/>
        <pt x="50" y="601" on="0"/>
        <pt x="88" y="637" on="0"/>
        <pt x="119" y="637" on="1"/>
        <pt x="170" y="637" on="0"/>
        <pt x="170" y="592" on="1"/>
      </contour>
    </TTGlyph>
    <TTGlyph name="dotaccentcmb" xMin="50" yMin="529" xMax="170" yMax="637">
      <contour>
        <pt x="170" y="565" on="0"/>
        <pt x="137" y="529" on="0"/>
        <pt x="81" y="529" on="0"/>
        <pt x="50" y="554" on="0"/>
        <pt x="50" y="601" on="0"/>
        <pt x="88" y="637" on="0"/>
        <pt x="119" y="637" on="1"/>
        <pt x="170" y="637" on="0"/>
        <pt x="170" y="592" on="1"/>
      </contour>
    </TTGlyph>
    <TTGlyph name="dotlessi" xMin="17" yMin="-4" xMax="169" yMax="483">
      <contour>
        <pt x="17" y="417" on="1"/>
        <pt x="20" y="483" on="1"/>
        <pt x="169" y="483" on="1"/>
        <pt x="169" y="0" on="1"/>
        <pt x="90" y="-4" on="1"/>
        <pt x="90" y="93" on="0"/>
        <pt x="82" y="370" on="0"/>
        <pt x="81" y="419" on="1"/>
      </contour>
    </TTGlyph>
    <TTGlyph name="e" xMin="32" yMin="-5" xMax="418" yMax="477">
      <contour>
        <pt x="412" y="204" on="1"/>
        <pt x="117" y="202" on="1"/>
        <pt x="117" y="138" on="0"/>
        <pt x="189" y="61" on="0"/>
        <pt x="279" y="61" on="0"/>
        <pt x="344" y="90" on="0"/>
        <pt x="358" y="104" on="1"/>
        <pt x="371" y="119" on="1"/>
        <pt x="412" y="65" on="1"/>
        <pt x="354" y="-5" on="0"/>
        <pt x="232" y="-5" on="1"/>
        <pt x="134" y="-5" on="0"/>
        <pt x="32" y="113" on="0"/>
        <pt x="32" y="320" on="0"/>
        <pt x="161" y="477" on="0"/>
        <pt x="262" y="477" on="1"/>
        <pt x="343" y="477" on="0"/>
        <pt x="418" y="366" on="0"/>
        <pt x="418" y="277" on="1"/>
        <pt x="418" y="240" on="0"/>
      </contour>
      <contour>
        <pt x="340" y="333" on="0"/>
        <pt x="297" y="407" on="0"/>
        <pt x="188" y="407" on="0"/>
        <pt x="117" y="312" on="0"/>
        <pt x="116" y="259" on="1"/>
        <pt x="340" y="261" on="1"/>
      </contour>
    </TTGlyph>
    <TTGlyph name="eacute" xMin="32" yMin="-5" xMax="418" yMax="693">
      <contour>
        <pt x="412" y="204" on="1"/>
        <pt x="117" y="202" on="1"/>
        <pt x="117" y="138" on="0"/>
        <pt x="189" y="61" on="0"/>
        <pt x="279" y="61" on="0"/>
        <pt x="344" y="90" on="0"/>
        <pt x="358" y="104" on="1"/>
        <pt x="371" y="119" on="1"/>
        <pt x="412" y="65" on="1"/>
        <pt x="354" y="-5" on="0"/>
        <pt x="232" y="-5" on="1"/>
        <pt x="134" y="-5" on="0"/>
        <pt x="32" y="113" on="0"/>
        <pt x="32" y="320" on="0"/>
        <pt x="161" y="477" on="0"/>
        <pt x="262" y="477" on="1"/>
        <pt x="343" y="477" on="0"/>
        <pt x="418" y="366" on="0"/>
        <pt x="418" y="277" on="1"/>
        <pt x="418" y="240" on="0"/>
      </contour>
      <contour>
        <pt x="340" y="333" on="0"/>
        <pt x="297" y="407" on="0"/>
        <pt x="188" y="407" on="0"/>
        <pt x="117" y="312" on="0"/>
        <pt x="116" y="259" on="1"/>
        <pt x="340" y="261" on="1"/>
      </contour>
      <contour>
        <pt x="171" y="551" on="1"/>
        <pt x="272" y="693" on="1"/>
        <pt x="354" y="658" on="1"/>
        <pt x="226" y="516" on="1"/>
      </contour>
    </TTGlyph>
    <TTGlyph name="ecircumflex" xMin="32" yMin="-5" xMax="418" yMax="693">
      <contour>
        <pt x="412" y="204" on="1"/>
        <pt x="117" y="202" on="1"/>
        <pt x="117" y="138" on="0"/>
        <pt x="189" y="61" on="0"/>
        <pt x="279" y="61" on="0"/>
        <pt x="344" y="90" on="0"/>
        <pt x="358" y="104" on="1"/>
        <pt x="371" y="119" on="1"/>
        <pt x="412" y="65" on="1"/>
        <pt x="354" y="-5" on="0"/>
        <pt x="232" y="-5" on="1"/>
        <pt x="134" y="-5" on="0"/>
        <pt x="32" y="113" on="0"/>
        <pt x="32" y="320" on="0"/>
        <pt x="161" y="477" on="0"/>
        <pt x="262" y="477" on="1"/>
        <pt x="343" y="477" on="0"/>
        <pt x="418" y="366" on="0"/>
        <pt x="418" y="277" on="1"/>
        <pt x="418" y="240" on="0"/>
      </contour>
      <contour>
        <pt x="340" y="333" on="0"/>
        <pt x="297" y="407" on="0"/>
        <pt x="188" y="407" on="0"/>
        <pt x="117" y="312" on="0"/>
        <pt x="116" y="259" on="1"/>
        <pt x="340" y="261" on="1"/>
      </contour>
      <contour>
        <pt x="302" y="516" on="1"/>
        <pt x="243" y="620" on="1"/>
        <pt x="183" y="516" on="1"/>
        <pt x="101" y="551" on="1"/>
        <pt x="232" y="693" on="1"/>
        <pt x="254" y="693" on="1"/>
        <pt x="384" y="551" on="1"/>
      </contour>
    </TTGlyph>
    <TTGlyph name="edieresis" xMin="32" yMin="-5" xMax="418" yMax="643">
      <contour>
        <pt x="412" y="204" on="1"/>
        <pt x="117" y="202" on="1"/>
        <pt x="117" y="138" on="0"/>
        <pt x="189" y="61" on="0"/>
        <pt x="279" y="61" on="0"/>
        <pt x="344" y="90" on="0"/>
        <pt x="358" y="104" on="1"/>
        <pt x="371" y="119" on="1"/>
        <pt x="412" y="65" on="1"/>
        <pt x="354" y="-5" on="0"/>
        <pt x="232" y="-5" on="1"/>
        <pt x="134" y="-5" on="0"/>
        <pt x="32" y="113" on="0"/>
        <pt x="32" y="320" on="0"/>
        <pt x="161" y="477" on="0"/>
        <pt x="262" y="477" on="1"/>
        <pt x="343" y="477" on="0"/>
        <pt x="418" y="366" on="0"/>
        <pt x="418" y="277" on="1"/>
        <pt x="418" y="240" on="0"/>
      </contour>
      <contour>
        <pt x="340" y="333" on="0"/>
        <pt x="297" y="407" on="0"/>
        <pt x="188" y="407" on="0"/>
        <pt x="117" y="312" on="0"/>
        <pt x="116" y="259" on="1"/>
        <pt x="340" y="261" on="1"/>
      </contour>
      <contour>
        <pt x="319" y="533" on="0"/>
        <pt x="295" y="563" on="0"/>
        <pt x="295" y="612" on="0"/>
        <pt x="330" y="643" on="0"/>
        <pt x="372" y="643" on="0"/>
        <pt x="393" y="617" on="0"/>
        <pt x="393" y="569" on="0"/>
        <pt x="362" y="533" on="0"/>
      </contour>
      <contour>
        <pt x="147" y="533" on="0"/>
        <pt x="124" y="562" on="0"/>
        <pt x="124" y="613" on="0"/>
        <pt x="156" y="643" on="0"/>
        <pt x="178" y="643" on="1"/>
        <pt x="222" y="643" on="0"/>
        <pt x="222" y="597" on="1"/>
        <pt x="222" y="570" on="0"/>
        <pt x="188" y="533" on="0"/>
      </contour>
    </TTGlyph>
    <TTGlyph name="egrave" xMin="32" yMin="-5" xMax="418" yMax="693">
      <contour>
        <pt x="412" y="204" on="1"/>
        <pt x="117" y="202" on="1"/>
        <pt x="117" y="138" on="0"/>
        <pt x="189" y="61" on="0"/>
        <pt x="279" y="61" on="0"/>
        <pt x="344" y="90" on="0"/>
        <pt x="358" y="104" on="1"/>
        <pt x="371" y="119" on="1"/>
        <pt x="412" y="65" on="1"/>
        <pt x="354" y="-5" on="0"/>
        <pt x="232" y="-5" on="1"/>
        <pt x="134" y="-5" on="0"/>
        <pt x="32" y="113" on="0"/>
        <pt x="32" y="320" on="0"/>
        <pt x="161" y="477" on="0"/>
        <pt x="262" y="477" on="1"/>
        <pt x="343" y="477" on="0"/>
        <pt x="418" y="366" on="0"/>
        <pt x="418" y="277" on="1"/>
        <pt x="418" y="240" on="0"/>
      </contour>
      <contour>
        <pt x="340" y="333" on="0"/>
        <pt x="297" y="407" on="0"/>
        <pt x="188" y="407" on="0"/>
        <pt x="117" y="312" on="0"/>
        <pt x="116" y="259" on="1"/>
        <pt x="340" y="261" on="1"/>
      </contour>
      <contour>
        <pt x="193" y="693" on="1"/>
        <pt x="294" y="551" on="1"/>
        <pt x="239" y="516" on="1"/>
        <pt x="111" y="658" on="1"/>
      </contour>
    </TTGlyph>
    <TTGlyph name="eight" xMin="36" yMin="-9" xMax="442" yMax="660">
      <contour>
        <pt x="334" y="365" on="1"/>
        <pt x="388" y="333" on="0"/>
        <pt x="442" y="241" on="0"/>
        <pt x="442" y="191" on="1"/>
        <pt x="442" y="111" on="0"/>
        <pt x="322" y="-9" on="0"/>
        <pt x="138" y="-9" on="0"/>
        <pt x="36" y="103" on="0"/>
        <pt x="36" y="178" on="1"/>
        <pt x="36" y="234" on="0"/>
        <pt x="96" y="328" on="0"/>
        <pt x="153" y="355" on="1"/>
        <pt x="63" y="409" on="0"/>
        <pt x="63" y="499" on="1"/>
        <pt x="63" y="567" on="0"/>
        <pt x="169" y="660" on="0"/>
        <pt x="324" y="660" on="0"/>
        <pt x="423" y="586" on="0"/>
        <pt x="423" y="516" on="1"/>
        <pt x="423" y="473" on="0"/>
        <pt x="374" y="383" on="0"/>
      </contour>
      <contour>
        <pt x="227" y="326" on="1"/>
        <pt x="177" y="316" on="0"/>
        <pt x="116" y="234" on="0"/>
        <pt x="116" y="136" on="0"/>
        <pt x="174" y="66" on="0"/>
        <pt x="283" y="66" on="0"/>
        <pt x="359" y="130" on="0"/>
        <pt x="359" y="240" on="0"/>
        <pt x="289" y="303" on="0"/>
      </contour>
      <contour>
        <pt x="202" y="589" on="0"/>
        <pt x="148" y="544" on="0"/>
        <pt x="148" y="464" on="0"/>
        <pt x="203" y="416" on="0"/>
        <pt x="257" y="395" on="1"/>
        <pt x="295" y="409" on="0"/>
        <pt x="340" y="465" on="0"/>
        <pt x="340" y="544" on="0"/>
        <pt x="283" y="589" on="0"/>
      </contour>
    </TTGlyph>
    <TTGlyph name="eight.onum" xMin="36" yMin="-9" xMax="442" yMax="660">
      <contour>
        <pt x="334" y="365" on="1"/>
        <pt x="388" y="333" on="0"/>
        <pt x="442" y="241" on="0"/>
        <pt x="442" y="191" on="1"/>
        <pt x="442" y="111" on="0"/>
        <pt x="322" y="-9" on="0"/>
        <pt x="138" y="-9" on="0"/>
        <pt x="36" y="103" on="0"/>
        <pt x="36" y="178" on="1"/>
        <pt x="36" y="234" on="0"/>
        <pt x="96" y="328" on="0"/>
        <pt x="153" y="355" on="1"/>
        <pt x="63" y="409" on="0"/>
        <pt x="63" y="499" on="1"/>
        <pt x="63" y="567" on="0"/>
        <pt x="169" y="660" on="0"/>
        <pt x="324" y="660" on="0"/>
        <pt x="423" y="586" on="0"/>
        <pt x="423" y="516" on="1"/>
        <pt x="423" y="473" on="0"/>
        <pt x="374" y="383" on="0"/>
      </contour>
      <contour>
        <pt x="227" y="326" on="1"/>
        <pt x="177" y="316" on="0"/>
        <pt x="116" y="234" on="0"/>
        <pt x="116" y="136" on="0"/>
        <pt x="174" y="66" on="0"/>
        <pt x="283" y="66" on="0"/>
        <pt x="359" y="130" on="0"/>
        <pt x="359" y="240" on="0"/>
        <pt x="289" y="303" on="0"/>
      </contour>
      <contour>
        <pt x="202" y="589" on="0"/>
        <pt x="148" y="544" on="0"/>
        <pt x="148" y="464" on="0"/>
        <pt x="203" y="416" on="0"/>
        <pt x="257" y="395" on="1"/>
        <pt x="295" y="409" on="0"/>
        <pt x="340" y="465" on="0"/>
        <pt x="340" y="544" on="0"/>
        <pt x="283" y="589" on="0"/>
      </contour>
    </TTGlyph>
    <TTGlyph name="ellipsis" xMin="28" yMin="-2" xMax="530" yMax="106">
      <contour>
        <pt x="148" y="34" on="0"/>
        <pt x="115" y="-2" on="0"/>
        <pt x="59" y="-2" on="0"/>
        <pt x="28" y="23" on="0"/>
        <pt x="28" y="70" on="0"/>
        <pt x="66" y="106" on="0"/>
        <pt x="97" y="106" on="1"/>
        <pt x="148" y="106" on="0"/>
        <pt x="148" y="61" on="1"/>
      </contour>
      <contour>
        <pt x="339" y="34" on="0"/>
        <pt x="306" y="-2" on="0"/>
        <pt x="250" y="-2" on="0"/>
        <pt x="219" y="23" on="0"/>
        <pt x="219" y="70" on="0"/>
        <pt x="257" y="106" on="0"/>
        <pt x="288" y="106" on="1"/>
        <pt x="339" y="106" on="0"/>
        <pt x="339" y="61" on="1"/>
      </contour>
      <contour>
        <pt x="530" y="34" on="0"/>
        <pt x="497" y="-2" on="0"/>
        <pt x="441" y="-2" on="0"/>
        <pt x="410" y="23" on="0"/>
        <pt x="410" y="70" on="0"/>
        <pt x="448" y="106" on="0"/>
        <pt x="479" y="106" on="1"/>
        <pt x="530" y="106" on="0"/>
        <pt x="530" y="61" on="1"/>
      </contour>
    </TTGlyph>
    <TTGlyph name="emdash" xMin="48" yMin="271" xMax="1062" yMax="348">
      <contour>
        <pt x="53" y="271" on="1"/>
        <pt x="48" y="348" on="1"/>
        <pt x="1059" y="348" on="1"/>
        <pt x="1062" y="276" on="1"/>
      </contour>
    </TTGlyph>
    <TTGlyph name="endash" xMin="50" yMin="271" xMax="553" yMax="348">
      <contour>
        <pt x="55" y="271" on="1"/>
        <pt x="50" y="348" on="1"/>
        <pt x="550" y="348" on="1"/>
        <pt x="553" y="276" on="1"/>
      </contour>
    </TTGlyph>
    <TTGlyph name="equal" xMin="70" yMin="175" xMax="574" yMax="445">
      <contour>
        <pt x="70" y="371" on="1"/>
        <pt x="70" y="445" on="1"/>
        <pt x="154" y="443" on="0"/>
        <pt x="490" y="443" on="0"/>
        <pt x="574" y="445" on="1"/>
        <pt x="574" y="371" on="1"/>
        <pt x="406" y="373" on="0"/>
        <pt x="238" y="373" on="0"/>
      </contour>
      <contour>
        <pt x="70" y="175" on="1"/>
        <pt x="70" y="249" on="1"/>
        <pt x="154" y="247" on="0"/>
        <pt x="490" y="247" on="0"/>
        <pt x="574" y="249" on="1"/>
        <pt x="574" y="175" on="1"/>
        <pt x="406" y="177" on="0"/>
        <pt x="238" y="177" on="0"/>
      </contour>
    </TTGlyph>
    <TTGlyph name="estimated" xMin="90" yMin="-21" xMax="917" yMax="723">
      <contour>
        <pt x="917" y="341" on="1"/>
        <pt x="247" y="341" on="1"/>
        <pt x="241" y="341" on="0"/>
        <pt x="241" y="336" on="1"/>
        <pt x="241" y="134" on="1"/>
        <pt x="241" y="118" on="0"/>
        <pt x="251" y="111" on="1"/>
        <pt x="359" y="0" on="0"/>
        <pt x="504" y="0" on="1"/>
        <pt x="582" y="0" on="0"/>
        <pt x="720" y="66" on="0"/>
        <pt x="770" y="123" on="1"/>
        <pt x="831" y="123" on="1"/>
        <pt x="774" y="56" on="0"/>
        <pt x="601" y="-21" on="0"/>
        <pt x="503" y="-21" on="1"/>
        <pt x="331" y="-21" on="0"/>
        <pt x="90" y="196" on="0"/>
        <pt x="90" y="505" on="0"/>
        <pt x="331" y="723" on="0"/>
        <pt x="674" y="723" on="0"/>
        <pt x="917" y="505" on="0"/>
        <pt x="917" y="351" on="1"/>
      </contour>
      <contour>
        <pt x="765" y="367" on="1"/>
        <pt x="765" y="572" on="1"/>
        <pt x="765" y="584" on="0"/>
        <pt x="755" y="596" on="1"/>
        <pt x="647" y="702" on="0"/>
        <pt x="360" y="702" on="0"/>
        <pt x="252" y="592" on="1"/>
        <pt x="241" y="582" on="0"/>
        <pt x="241" y="567" on="1"/>
        <pt x="241" y="367" on="1"/>
        <pt x="241" y="361" on="0"/>
        <pt x="247" y="361" on="1"/>
        <pt x="760" y="361" on="1"/>
        <pt x="765" y="361" on="0"/>
      </contour>
    </TTGlyph>
    <TTGlyph name="eth" xMin="46" yMin="-5" xMax="472" yMax="730">
      <contour>
        <pt x="411" y="678" on="1"/>
        <pt x="333" y="619" on="1"/>
        <pt x="472" y="466" on="0"/>
        <pt x="472" y="291" on="1"/>
        <pt x="472" y="153" on="0"/>
        <pt x="338" y="-5" on="0"/>
        <pt x="231" y="-5" on="1"/>
        <pt x="155" y="-5" on="0"/>
        <pt x="46" y="108" on="0"/>
        <pt x="46" y="319" on="0"/>
        <pt x="157" y="475" on="0"/>
        <pt x="248" y="475" on="1"/>
        <pt x="280" y="475" on="0"/>
        <pt x="346" y="452" on="0"/>
        <pt x="365" y="435" on="1"/>
        <pt x="369" y="437" on="1"/>
        <pt x="357" y="488" on="0"/>
        <pt x="273" y="575" on="1"/>
        <pt x="196" y="517" on="1"/>
        <pt x="152" y="566" on="1"/>
        <pt x="226" y="620" on="1"/>
        <pt x="182" y="659" on="0"/>
        <pt x="150" y="677" on="1"/>
        <pt x="208" y="730" on="1"/>
        <pt x="243" y="706" on="0"/>
        <pt x="287" y="665" on="1"/>
        <pt x="369" y="726" on="1"/>
      </contour>
      <contour>
        <pt x="398" y="319" on="0"/>
        <pt x="327" y="404" on="0"/>
        <pt x="192" y="404" on="0"/>
        <pt x="122" y="301" on="0"/>
        <pt x="122" y="150" on="0"/>
        <pt x="189" y="73" on="0"/>
        <pt x="239" y="73" on="1"/>
        <pt x="313" y="73" on="0"/>
        <pt x="398" y="182" on="0"/>
      </contour>
    </TTGlyph>
    <TTGlyph name="exclam" xMin="19" yMin="-2" xMax="139" yMax="685">
      <contour>
        <pt x="110" y="157" on="1"/>
        <pt x="47" y="161" on="1"/>
        <pt x="38" y="668" on="1"/>
        <pt x="131" y="685" on="1"/>
        <pt x="122" y="554" on="0"/>
      </contour>
      <contour>
        <pt x="139" y="34" on="0"/>
        <pt x="106" y="-2" on="0"/>
        <pt x="50" y="-2" on="0"/>
        <pt x="19" y="23" on="0"/>
        <pt x="19" y="70" on="0"/>
        <pt x="57" y="106" on="0"/>
        <pt x="88" y="106" on="1"/>
        <pt x="139" y="106" on="0"/>
        <pt x="139" y="61" on="1"/>
      </contour>
    </TTGlyph>
    <TTGlyph name="exclamdown" xMin="22" yMin="-285" xMax="142" yMax="402">
      <contour>
        <pt x="51" y="243" on="1"/>
        <pt x="114" y="239" on="1"/>
        <pt x="123" y="-268" on="1"/>
        <pt x="30" y="-285" on="1"/>
        <pt x="39" y="-154" on="0"/>
      </contour>
      <contour>
        <pt x="22" y="366" on="0"/>
        <pt x="55" y="402" on="0"/>
        <pt x="111" y="402" on="0"/>
        <pt x="142" y="377" on="0"/>
        <pt x="142" y="330" on="0"/>
        <pt x="104" y="294" on="0"/>
        <pt x="73" y="294" on="1"/>
        <pt x="22" y="294" on="0"/>
        <pt x="22" y="339" on="1"/>
      </contour>
    </TTGlyph>
    <TTGlyph name="f" xMin="12" yMin="-5" xMax="415" yMax="734">
      <contour>
        <pt x="74" y="-5" on="1"/>
        <pt x="78" y="407" on="1"/>
        <pt x="12" y="405" on="1"/>
        <pt x="15" y="435" on="1"/>
        <pt x="86" y="482" on="1"/>
        <pt x="86" y="588" on="0"/>
        <pt x="168" y="734" on="0"/>
        <pt x="248" y="734" on="1"/>
        <pt x="298" y="734" on="0"/>
        <pt x="381" y="718" on="0"/>
        <pt x="398" y="710" on="1"/>
        <pt x="415" y="701" on="1"/>
        <pt x="392" y="618" on="1"/>
        <pt x="333" y="654" on="0"/>
        <pt x="270" y="654" on="1"/>
        <pt x="165" y="654" on="0"/>
        <pt x="165" y="483" on="1"/>
        <pt x="319" y="489" on="1"/>
        <pt x="304" y="404" on="1"/>
        <pt x="162" y="407" on="1"/>
        <pt x="164" y="7" on="1"/>
      </contour>
    </TTGlyph>
    <TTGlyph name="f_b" xMin="12" yMin="-5" xMax="811" yMax="737">
      <contour>
        <pt x="74" y="-5" on="1"/>
        <pt x="78" y="407" on="1"/>
        <pt x="12" y="405" on="1"/>
        <pt x="15" y="435" on="1"/>
        <pt x="86" y="482" on="1"/>
        <pt x="86" y="605" on="0"/>
        <pt x="203" y="737" on="0"/>
        <pt x="291" y="737" on="1"/>
        <pt x="356" y="737" on="0"/>
        <pt x="419" y="701" on="1"/>
        <pt x="490" y="731" on="1"/>
        <pt x="496" y="728" on="1"/>
        <pt x="471" y="394" on="1"/>
        <pt x="479" y="389" on="1"/>
        <pt x="506" y="417" on="0"/>
        <pt x="542" y="448" on="0"/>
        <pt x="607" y="476" on="0"/>
        <pt x="644" y="476" on="1"/>
        <pt x="724" y="476" on="0"/>
        <pt x="811" y="362" on="0"/>
        <pt x="811" y="213" on="0"/>
        <pt x="760" y="86" on="0"/>
        <pt x="656" y="-4" on="0"/>
        <pt x="542" y="-4" on="0"/>
        <pt x="470" y="26" on="0"/>
        <pt x="425" y="76" on="0"/>
        <pt x="412" y="114" on="1"/>
        <pt x="388" y="182" on="0"/>
        <pt x="388" y="444" on="0"/>
        <pt x="394" y="628" on="1"/>
        <pt x="346" y="661" on="0"/>
        <pt x="242" y="661" on="0"/>
        <pt x="165" y="564" on="0"/>
        <pt x="165" y="483" on="1"/>
        <pt x="319" y="489" on="1"/>
        <pt x="304" y="404" on="1"/>
        <pt x="162" y="407" on="1"/>
        <pt x="164" y="7" on="1"/>
      </contour>
      <contour>
        <pt x="600" y="70" on="1"/>
        <pt x="651" y="70" on="0"/>
        <pt x="720" y="193" on="0"/>
        <pt x="720" y="326" on="0"/>
        <pt x="670" y="405" on="0"/>
        <pt x="558" y="405" on="0"/>
        <pt x="474" y="286" on="0"/>
        <pt x="474" y="152" on="0"/>
        <pt x="538" y="70" on="0"/>
      </contour>
    </TTGlyph>
    <TTGlyph name="f_h" xMin="12" yMin="-5" xMax="794" yMax="734">
      <contour>
        <pt x="74" y="-5" on="1"/>
        <pt x="78" y="407" on="1"/>
        <pt x="12" y="405" on="1"/>
        <pt x="15" y="435" on="1"/>
        <pt x="86" y="482" on="1"/>
        <pt x="86" y="601" on="0"/>
        <pt x="201" y="734" on="0"/>
        <pt x="289" y="734" on="1"/>
        <pt x="348" y="734" on="0"/>
        <pt x="410" y="703" on="1"/>
        <pt x="479" y="731" on="1"/>
        <pt x="488" y="729" on="1"/>
        <pt x="480" y="365" on="1"/>
        <pt x="485" y="364" on="1"/>
        <pt x="506" y="419" on="0"/>
        <pt x="601" y="483" on="0"/>
        <pt x="712" y="483" on="0"/>
        <pt x="791" y="398" on="0"/>
        <pt x="791" y="315" on="1"/>
        <pt x="789" y="142" on="1"/>
        <pt x="794" y="1" on="1"/>
        <pt x="702" y="-5" on="1"/>
        <pt x="706" y="187" on="0"/>
        <pt x="706" y="337" on="0"/>
        <pt x="665" y="396" on="0"/>
        <pt x="596" y="396" on="0"/>
        <pt x="520" y="324" on="0"/>
        <pt x="487" y="225" on="0"/>
        <pt x="487" y="13" on="0"/>
        <pt x="491" y="1" on="1"/>
        <pt x="399" y="-5" on="1"/>
        <pt x="395" y="250" on="0"/>
        <pt x="395" y="424" on="0"/>
        <pt x="389" y="632" on="1"/>
        <pt x="345" y="661" on="0"/>
        <pt x="240" y="661" on="0"/>
        <pt x="165" y="571" on="0"/>
        <pt x="165" y="483" on="1"/>
        <pt x="319" y="489" on="1"/>
        <pt x="304" y="404" on="1"/>
        <pt x="162" y="407" on="1"/>
        <pt x="164" y="7" on="1"/>
      </contour>
    </TTGlyph>
    <TTGlyph name="f_k" xMin="12" yMin="-12" xMax="767" yMax="735">
      <contour>
        <pt x="74" y="-5" on="1"/>
        <pt x="78" y="407" on="1"/>
        <pt x="12" y="405" on="1"/>
        <pt x="15" y="435" on="1"/>
        <pt x="86" y="482" on="1"/>
        <pt x="86" y="606" on="0"/>
        <pt x="204" y="735" on="0"/>
        <pt x="291" y="735" on="1"/>
        <pt x="353" y="735" on="0"/>
        <pt x="411" y="703" on="1"/>
        <pt x="479" y="732" on="1"/>
        <pt x="487" y="729" on="1"/>
        <pt x="479" y="384" on="0"/>
        <pt x="479" y="318" on="1"/>
        <pt x="479" y="278" on="1"/>
        <pt x="553" y="287" on="0"/>
        <pt x="660" y="405" on="0"/>
        <pt x="676" y="484" on="1"/>
        <pt x="746" y="468" on="1"/>
        <pt x="746" y="419" on="0"/>
        <pt x="667" y="297" on="0"/>
        <pt x="607" y="257" on="1"/>
        <pt x="767" y="8" on="1"/>
        <pt x="671" y="-12" on="1"/>
        <pt x="531" y="220" on="1"/>
        <pt x="506" y="211" on="0"/>
        <pt x="478" y="208" on="1"/>
        <pt x="476" y="1" on="1"/>
        <pt x="395" y="-5" on="1"/>
        <pt x="393" y="278" on="1"/>
        <pt x="393" y="371" on="0"/>
        <pt x="388" y="631" on="1"/>
        <pt x="346" y="660" on="0"/>
        <pt x="242" y="660" on="0"/>
        <pt x="165" y="573" on="0"/>
        <pt x="165" y="483" on="1"/>
        <pt x="319" y="489" on="1"/>
        <pt x="304" y="404" on="1"/>
        <pt x="162" y="407" on="1"/>
        <pt x="164" y="7" on="1"/>
      </contour>
    </TTGlyph>
    <TTGlyph name="f_t" xMin="12" yMin="-7" xMax="726" yMax="734">
      <contour>
        <pt x="74" y="-5" on="1"/>
        <pt x="78" y="407" on="1"/>
        <pt x="12" y="405" on="1"/>
        <pt x="15" y="435" on="1"/>
        <pt x="86" y="482" on="1"/>
        <pt x="86" y="588" on="0"/>
        <pt x="168" y="734" on="0"/>
        <pt x="248" y="734" on="1"/>
        <pt x="298" y="734" on="0"/>
        <pt x="381" y="718" on="0"/>
        <pt x="398" y="710" on="1"/>
        <pt x="415" y="701" on="1"/>
        <pt x="392" y="618" on="1"/>
        <pt x="333" y="654" on="0"/>
        <pt x="270" y="654" on="1"/>
        <pt x="165" y="654" on="0"/>
        <pt x="165" y="478" on="1"/>
        <pt x="418" y="479" on="1"/>
        <pt x="446" y="612" on="1"/>
        <pt x="514" y="612" on="1"/>
        <pt x="499" y="478" on="1"/>
        <pt x="634" y="490" on="1"/>
        <pt x="614" y="413" on="1"/>
        <pt x="496" y="409" on="1"/>
        <pt x="488" y="294" on="0"/>
        <pt x="488" y="202" on="0"/>
        <pt x="490" y="164" on="0"/>
        <pt x="501" y="117" on="0"/>
        <pt x="510" y="102" on="1"/>
        <pt x="531" y="68" on="0"/>
        <pt x="577" y="68" on="1"/>
        <pt x="636" y="68" on="0"/>
        <pt x="662" y="127" on="1"/>
        <pt x="726" y="96" on="1"/>
        <pt x="703" y="47" on="0"/>
        <pt x="629" y="-7" on="0"/>
        <pt x="563" y="-7" on="1"/>
        <pt x="407" y="-7" on="0"/>
        <pt x="407" y="217" on="1"/>
        <pt x="413" y="404" on="1"/>
        <pt x="162" y="407" on="1"/>
        <pt x="164" y="7" on="1"/>
      </contour>
    </TTGlyph>
    <TTGlyph name="ff" xMin="12" yMin="-5" xMax="710" yMax="736">
      <contour>
        <pt x="364" y="-5" on="1"/>
        <pt x="368" y="407" on="1"/>
        <pt x="162" y="408" on="1"/>
        <pt x="164" y="7" on="1"/>
        <pt x="74" y="-5" on="1"/>
        <pt x="78" y="407" on="1"/>
        <pt x="12" y="405" on="1"/>
        <pt x="15" y="435" on="1"/>
        <pt x="86" y="482" on="1"/>
        <pt x="86" y="606" on="0"/>
        <pt x="202" y="736" on="0"/>
        <pt x="374" y="736" on="0"/>
        <pt x="450" y="685" on="1"/>
        <pt x="502" y="735" on="0"/>
        <pt x="642" y="735" on="0"/>
        <pt x="710" y="692" on="1"/>
        <pt x="678" y="624" on="1"/>
        <pt x="627" y="659" on="0"/>
        <pt x="524" y="659" on="0"/>
        <pt x="455" y="566" on="0"/>
        <pt x="455" y="483" on="1"/>
        <pt x="609" y="489" on="1"/>
        <pt x="594" y="404" on="1"/>
        <pt x="452" y="407" on="1"/>
        <pt x="454" y="7" on="1"/>
      </contour>
      <contour>
        <pt x="404" y="624" on="1"/>
        <pt x="362" y="661" on="0"/>
        <pt x="239" y="661" on="0"/>
        <pt x="165" y="568" on="0"/>
        <pt x="165" y="480" on="1"/>
        <pt x="376" y="481" on="1"/>
        <pt x="376" y="569" on="0"/>
      </contour>
    </TTGlyph>
    <TTGlyph name="ffi" xMin="12" yMin="-5" xMax="786" yMax="737">
      <contour>
        <pt x="74" y="-5" on="1"/>
        <pt x="78" y="407" on="1"/>
        <pt x="12" y="405" on="1"/>
        <pt x="15" y="435" on="1"/>
        <pt x="86" y="482" on="1"/>
        <pt x="86" y="592" on="0"/>
        <pt x="216" y="735" on="0"/>
        <pt x="308" y="735" on="1"/>
        <pt x="383" y="735" on="0"/>
        <pt x="454" y="683" on="1"/>
        <pt x="505" y="737" on="0"/>
        <pt x="670" y="737" on="0"/>
        <pt x="786" y="663" on="0"/>
        <pt x="786" y="607" on="1"/>
        <pt x="786" y="577" on="0"/>
        <pt x="746" y="544" on="0"/>
        <pt x="695" y="544" on="0"/>
        <pt x="667" y="572" on="0"/>
        <pt x="667" y="612" on="0"/>
        <pt x="681" y="629" on="1"/>
        <pt x="640" y="667" on="0"/>
        <pt x="538" y="667" on="0"/>
        <pt x="459" y="566" on="0"/>
        <pt x="459" y="482" on="1"/>
        <pt x="776" y="483" on="1"/>
        <pt x="776" y="0" on="1"/>
        <pt x="697" y="-4" on="1"/>
        <pt x="697" y="93" on="0"/>
        <pt x="689" y="370" on="0"/>
        <pt x="688" y="419" on="1"/>
        <pt x="456" y="413" on="1"/>
        <pt x="457" y="7" on="1"/>
        <pt x="372" y="-4" on="1"/>
        <pt x="374" y="410" on="1"/>
        <pt x="162" y="408" on="1"/>
        <pt x="164" y="7" on="1"/>
      </contour>
      <contour>
        <pt x="411" y="628" on="1"/>
        <pt x="366" y="662" on="0"/>
        <pt x="317" y="662" on="1"/>
        <pt x="254" y="662" on="0"/>
        <pt x="165" y="555" on="0"/>
        <pt x="165" y="480" on="1"/>
        <pt x="376" y="480" on="1"/>
        <pt x="376" y="560" on="0"/>
      </contour>
    </TTGlyph>
    <TTGlyph name="ffl" xMin="12" yMin="-5" xMax="791" yMax="734">
      <contour>
        <pt x="74" y="-5" on="1"/>
        <pt x="78" y="407" on="1"/>
        <pt x="12" y="405" on="1"/>
        <pt x="15" y="435" on="1"/>
        <pt x="86" y="482" on="1"/>
        <pt x="86" y="605" on="0"/>
        <pt x="201" y="734" on="0"/>
        <pt x="371" y="734" on="0"/>
        <pt x="449" y="683" on="1"/>
        <pt x="498" y="734" on="0"/>
        <pt x="654" y="734" on="0"/>
        <pt x="707" y="703" on="1"/>
        <pt x="787" y="729" on="1"/>
        <pt x="791" y="727" on="1"/>
        <pt x="782" y="342" on="0"/>
        <pt x="782" y="276" on="1"/>
        <pt x="780" y="1" on="1"/>
        <pt x="700" y="-5" on="1"/>
        <pt x="700" y="278" on="1"/>
        <pt x="700" y="284" on="0"/>
        <pt x="695" y="628" on="1"/>
        <pt x="636" y="661" on="0"/>
        <pt x="530" y="661" on="0"/>
        <pt x="461" y="566" on="0"/>
        <pt x="461" y="480" on="1"/>
        <pt x="615" y="483" on="1"/>
        <pt x="602" y="408" on="1"/>
        <pt x="458" y="409" on="1"/>
        <pt x="460" y="7" on="1"/>
        <pt x="370" y="-5" on="1"/>
        <pt x="374" y="407" on="1"/>
        <pt x="162" y="408" on="1"/>
        <pt x="164" y="7" on="1"/>
      </contour>
      <contour>
        <pt x="408" y="622" on="1"/>
        <pt x="354" y="661" on="0"/>
        <pt x="242" y="661" on="0"/>
        <pt x="165" y="564" on="0"/>
        <pt x="165" y="480" on="1"/>
        <pt x="382" y="482" on="1"/>
        <pt x="382" y="563" on="0"/>
      </contour>
    </TTGlyph>
    <TTGlyph name="fi" xMin="18" yMin="-5" xMax="498" yMax="736">
      <contour>
        <pt x="80" y="-5" on="1"/>
        <pt x="84" y="407" on="1"/>
        <pt x="18" y="405" on="1"/>
        <pt x="21" y="435" on="1"/>
        <pt x="92" y="482" on="1"/>
        <pt x="92" y="605" on="0"/>
        <pt x="224" y="736" on="0"/>
        <pt x="311" y="736" on="1"/>
        <pt x="379" y="736" on="0"/>
        <pt x="498" y="651" on="0"/>
        <pt x="498" y="607" on="1"/>
        <pt x="498" y="577" on="0"/>
        <pt x="458" y="544" on="0"/>
        <pt x="410" y="544" on="0"/>
        <pt x="379" y="569" on="0"/>
        <pt x="379" y="612" on="0"/>
        <pt x="390" y="627" on="1"/>
        <pt x="390" y="631" on="1"/>
        <pt x="347" y="659" on="0"/>
        <pt x="305" y="659" on="1"/>
        <pt x="248" y="659" on="0"/>
        <pt x="171" y="557" on="0"/>
        <pt x="171" y="476" on="1"/>
        <pt x="488" y="483" on="1"/>
        <pt x="488" y="0" on="1"/>
        <pt x="409" y="-4" on="1"/>
        <pt x="409" y="93" on="0"/>
        <pt x="401" y="370" on="0"/>
        <pt x="400" y="419" on="1"/>
        <pt x="168" y="409" on="1"/>
        <pt x="170" y="7" on="1"/>
      </contour>
    </TTGlyph>
    <TTGlyph name="five" xMin="30" yMin="-10" xMax="414" yMax="654">
      <contour>
        <pt x="39" y="649" on="1"/>
        <pt x="386" y="654" on="1"/>
        <pt x="378" y="571" on="1"/>
        <pt x="116" y="576" on="1"/>
        <pt x="119" y="402" on="1"/>
        <pt x="162" y="418" on="0"/>
        <pt x="203" y="418" on="1"/>
        <pt x="290" y="418" on="0"/>
        <pt x="414" y="309" on="0"/>
        <pt x="414" y="116" on="0"/>
        <pt x="278" y="-10" on="0"/>
        <pt x="102" y="-10" on="0"/>
        <pt x="30" y="36" on="1"/>
        <pt x="82" y="108" on="1"/>
        <pt x="101" y="94" on="0"/>
        <pt x="177" y="70" on="0"/>
        <pt x="206" y="70" on="1"/>
        <pt x="260" y="70" on="0"/>
        <pt x="325" y="150" on="0"/>
        <pt x="325" y="275" on="0"/>
        <pt x="237" y="344" on="0"/>
        <pt x="118" y="344" on="0"/>
        <pt x="82" y="316" on="1"/>
        <pt x="44" y="357" on="1"/>
      </contour>
    </TTGlyph>
    <TTGlyph name="five.onum" xMin="37" yMin="-181" xMax="421" yMax="483">
      <contour>
        <pt x="46" y="478" on="1"/>
        <pt x="393" y="483" on="1"/>
        <pt x="385" y="400" on="1"/>
        <pt x="123" y="405" on="1"/>
        <pt x="126" y="231" on="1"/>
        <pt x="169" y="247" on="0"/>
        <pt x="210" y="247" on="1"/>
        <pt x="297" y="247" on="0"/>
        <pt x="421" y="138" on="0"/>
        <pt x="421" y="-55" on="0"/>
        <pt x="285" y="-181" on="0"/>
        <pt x="109" y="-181" on="0"/>
        <pt x="37" y="-135" on="1"/>
        <pt x="89" y="-63" on="1"/>
        <pt x="108" y="-77" on="0"/>
        <pt x="184" y="-101" on="0"/>
        <pt x="213" y="-101" on="1"/>
        <pt x="267" y="-101" on="0"/>
        <pt x="332" y="-21" on="0"/>
        <pt x="332" y="104" on="0"/>
        <pt x="244" y="173" on="0"/>
        <pt x="125" y="173" on="0"/>
        <pt x="89" y="145" on="1"/>
        <pt x="51" y="186" on="1"/>
      </contour>
    </TTGlyph>
    <TTGlyph name="fj" xMin="18" yMin="-213" xMax="498" yMax="736">
      <contour>
        <pt x="80" y="-5" on="1"/>
        <pt x="84" y="407" on="1"/>
        <pt x="18" y="405" on="1"/>
        <pt x="21" y="435" on="1"/>
        <pt x="92" y="482" on="1"/>
        <pt x="92" y="605" on="0"/>
        <pt x="224" y="736" on="0"/>
        <pt x="311" y="736" on="1"/>
        <pt x="379" y="736" on="0"/>
        <pt x="498" y="651" on="0"/>
        <pt x="498" y="607" on="1"/>
        <pt x="498" y="577" on="0"/>
        <pt x="458" y="544" on="0"/>
        <pt x="410" y="544" on="0"/>
        <pt x="379" y="569" on="0"/>
        <pt x="379" y="612" on="0"/>
        <pt x="390" y="627" on="1"/>
        <pt x="390" y="631" on="1"/>
        <pt x="347" y="659" on="0"/>
        <pt x="305" y="659" on="1"/>
        <pt x="248" y="659" on="0"/>
        <pt x="171" y="557" on="0"/>
        <pt x="171" y="476" on="1"/>
        <pt x="488" y="483" on="1"/>
        <pt x="486" y="142" on="1"/>
        <pt x="484" y="-213" on="0"/>
        <pt x="267" y="-213" on="1"/>
        <pt x="206" y="-213" on="0"/>
        <pt x="147" y="-186" on="1"/>
        <pt x="183" y="-103" on="1"/>
        <pt x="235" y="-132" on="0"/>
        <pt x="278" y="-132" on="1"/>
        <pt x="340" y="-132" on="0"/>
        <pt x="403" y="-15" on="0"/>
        <pt x="404" y="85" on="1"/>
        <pt x="404" y="303" on="0"/>
        <pt x="400" y="419" on="1"/>
        <pt x="168" y="409" on="1"/>
        <pt x="170" y="7" on="1"/>
      </contour>
    </TTGlyph>
    <TTGlyph name="fl" xMin="18" yMin="-5" xMax="501" yMax="734">
      <contour>
        <pt x="80" y="-5" on="1"/>
        <pt x="84" y="407" on="1"/>
        <pt x="18" y="405" on="1"/>
        <pt x="21" y="435" on="1"/>
        <pt x="92" y="482" on="1"/>
        <pt x="92" y="591" on="0"/>
        <pt x="191" y="734" on="0"/>
        <pt x="285" y="734" on="1"/>
        <pt x="364" y="734" on="0"/>
        <pt x="417" y="703" on="1"/>
        <pt x="497" y="729" on="1"/>
        <pt x="501" y="727" on="1"/>
        <pt x="492" y="342" on="0"/>
        <pt x="492" y="276" on="1"/>
        <pt x="490" y="1" on="1"/>
        <pt x="410" y="-5" on="1"/>
        <pt x="410" y="278" on="1"/>
        <pt x="410" y="284" on="0"/>
        <pt x="405" y="628" on="1"/>
        <pt x="346" y="661" on="0"/>
        <pt x="240" y="661" on="0"/>
        <pt x="171" y="566" on="0"/>
        <pt x="171" y="480" on="1"/>
        <pt x="325" y="483" on="1"/>
        <pt x="312" y="408" on="1"/>
        <pt x="168" y="409" on="1"/>
        <pt x="170" y="7" on="1"/>
      </contour>
    </TTGlyph>
    <TTGlyph name="florin" xMin="-112" yMin="-208" xMax="513" yMax="725">
      <contour>
        <pt x="157" y="336" on="1"/>
        <pt x="91" y="334" on="1"/>
        <pt x="94" y="364" on="1"/>
        <pt x="165" y="411" on="1"/>
        <pt x="166" y="411" on="1"/>
        <pt x="168" y="432" on="1"/>
        <pt x="181" y="564" on="0"/>
        <pt x="286" y="725" on="0"/>
        <pt x="379" y="725" on="1"/>
        <pt x="440" y="725" on="0"/>
        <pt x="513" y="688" on="1"/>
        <pt x="490" y="605" on="1"/>
        <pt x="438" y="641" on="0"/>
        <pt x="322" y="641" on="0"/>
        <pt x="269" y="543" on="0"/>
        <pt x="257" y="413" on="1"/>
        <pt x="402" y="418" on="1"/>
        <pt x="387" y="333" on="1"/>
        <pt x="250" y="335" on="1"/>
        <pt x="237" y="140" on="0"/>
        <pt x="233" y="85" on="1"/>
        <pt x="223" y="-45" on="0"/>
        <pt x="115" y="-208" on="0"/>
        <pt x="22" y="-208" on="1"/>
        <pt x="-39" y="-208" on="0"/>
        <pt x="-112" y="-171" on="1"/>
        <pt x="-89" y="-88" on="1"/>
        <pt x="-37" y="-124" on="0"/>
        <pt x="79" y="-124" on="0"/>
        <pt x="133" y="-22" on="0"/>
        <pt x="143" y="113" on="1"/>
        <pt x="160" y="336" on="1"/>
      </contour>
    </TTGlyph>
    <TTGlyph name="foundryicon" xMin="40" yMin="23" xMax="1201" yMax="569">
      <contour>
        <pt x="186" y="157" on="1"/>
        <pt x="40" y="300" on="1"/>
        <pt x="186" y="441" on="1"/>
        <pt x="226" y="409" on="1"/>
        <pt x="138" y="325" on="1"/>
        <pt x="386" y="325" on="1"/>
        <pt x="380" y="355" on="0"/>
        <pt x="380" y="387" on="1"/>
        <pt x="380" y="469" on="0"/>
        <pt x="465" y="569" on="0"/>
        <pt x="535" y="569" on="1"/>
        <pt x="584" y="569" on="0"/>
        <pt x="643" y="536" on="0"/>
        <pt x="668" y="501" on="1"/>
        <pt x="714" y="569" on="0"/>
        <pt x="804" y="569" on="1"/>
        <pt x="875" y="569" on="0"/>
        <pt x="957" y="469" on="0"/>
        <pt x="957" y="387" on="1"/>
        <pt x="957" y="360" on="0"/>
        <pt x="950" y="325" on="1"/>
        <pt x="1151" y="325" on="1"/>
        <pt x="1151" y="441" on="1"/>
        <pt x="1201" y="441" on="1"/>
        <pt x="1201" y="157" on="1"/>
        <pt x="1151" y="157" on="1"/>
        <pt x="1151" y="273" on="1"/>
        <pt x="935" y="273" on="1"/>
        <pt x="895" y="171" on="0"/>
        <pt x="713" y="23" on="0"/>
        <pt x="618" y="23" on="0"/>
        <pt x="440" y="170" on="0"/>
        <pt x="401" y="273" on="1"/>
        <pt x="139" y="273" on="1"/>
        <pt x="226" y="188" on="1"/>
      </contour>
      <contour>
        <pt x="668" y="73" on="1"/>
        <pt x="695" y="77" on="0"/>
        <pt x="773" y="130" on="0"/>
        <pt x="850" y="210" on="0"/>
        <pt x="905" y="323" on="0"/>
        <pt x="905" y="444" on="0"/>
        <pt x="845" y="521" on="0"/>
        <pt x="790" y="521" on="1"/>
        <pt x="707" y="521" on="0"/>
        <pt x="676" y="437" on="1"/>
        <pt x="660" y="437" on="1"/>
        <pt x="629" y="521" on="0"/>
        <pt x="546" y="521" on="1"/>
        <pt x="492" y="521" on="0"/>
        <pt x="432" y="443" on="0"/>
        <pt x="432" y="376" on="1"/>
        <pt x="432" y="352" on="0"/>
        <pt x="437" y="325" on="1"/>
        <pt x="635" y="325" on="1"/>
        <pt x="635" y="273" on="1"/>
        <pt x="455" y="273" on="1"/>
        <pt x="488" y="196" on="0"/>
        <pt x="621" y="80" on="0"/>
      </contour>
    </TTGlyph>
    <TTGlyph name="four" xMin="30" yMin="1" xMax="481" yMax="664">
      <contour>
        <pt x="313" y="499" on="1"/>
        <pt x="394" y="496" on="1"/>
        <pt x="402" y="240" on="1"/>
        <pt x="481" y="240" on="1"/>
        <pt x="480" y="164" on="1"/>
        <pt x="439" y="164" on="0"/>
        <pt x="404" y="165" on="1"/>
        <pt x="409" y="1" on="1"/>
        <pt x="318" y="1" on="1"/>
        <pt x="314" y="166" on="1"/>
        <pt x="257" y="166" on="1"/>
        <pt x="118" y="166" on="0"/>
        <pt x="39" y="158" on="1"/>
        <pt x="30" y="223" on="1"/>
        <pt x="257" y="664" on="1"/>
        <pt x="332" y="624" on="1"/>
        <pt x="118" y="240" on="1"/>
        <pt x="313" y="240" on="1"/>
      </contour>
    </TTGlyph>
    <TTGlyph name="four.onum" xMin="30" yMin="-158" xMax="481" yMax="505">
      <contour>
        <pt x="313" y="340" on="1"/>
        <pt x="394" y="337" on="1"/>
        <pt x="402" y="81" on="1"/>
        <pt x="481" y="81" on="1"/>
        <pt x="480" y="5" on="1"/>
        <pt x="439" y="5" on="0"/>
        <pt x="404" y="6" on="1"/>
        <pt x="409" y="-158" on="1"/>
        <pt x="318" y="-158" on="1"/>
        <pt x="314" y="7" on="1"/>
        <pt x="257" y="7" on="1"/>
        <pt x="118" y="7" on="0"/>
        <pt x="39" y="-1" on="1"/>
        <pt x="30" y="64" on="1"/>
        <pt x="257" y="505" on="1"/>
        <pt x="332" y="465" on="1"/>
        <pt x="118" y="81" on="1"/>
        <pt x="313" y="81" on="1"/>
      </contour>
    </TTGlyph>
    <TTGlyph name="foursuperior" xMin="50" yMin="266" xMax="329" yMax="661">
      <contour>
        <pt x="118" y="426" on="1"/>
        <pt x="218" y="427" on="1"/>
        <pt x="214" y="563" on="1"/>
        <pt x="278" y="561" on="1"/>
        <pt x="282" y="428" on="1"/>
        <pt x="324" y="429" on="1"/>
        <pt x="329" y="363" on="1"/>
        <pt x="284" y="363" on="1"/>
        <pt x="287" y="266" on="1"/>
        <pt x="217" y="266" on="1"/>
        <pt x="217" y="364" on="1"/>
        <pt x="186" y="364" on="1"/>
        <pt x="100" y="364" on="0"/>
        <pt x="56" y="359" on="1"/>
        <pt x="50" y="411" on="1"/>
        <pt x="166" y="661" on="1"/>
        <pt x="231" y="638" on="1"/>
      </contour>
    </TTGlyph>
    <TTGlyph name="fraction" xMin="50" yMin="-18" xMax="519" yMax="666">
      <contour>
        <pt x="451" y="666" on="1"/>
        <pt x="519" y="630" on="1"/>
        <pt x="113" y="-18" on="1"/>
        <pt x="50" y="17" on="1"/>
      </contour>
    </TTGlyph>
    <TTGlyph name="g" xMin="36" yMin="-214" xMax="454" yMax="490">
      <contour>
        <pt x="36" y="356" on="0"/>
        <pt x="137" y="485" on="0"/>
        <pt x="322" y="485" on="0"/>
        <pt x="367" y="429" on="1"/>
        <pt x="376" y="432" on="1"/>
        <pt x="387" y="490" on="1"/>
        <pt x="451" y="484" on="1"/>
        <pt x="454" y="300" on="0"/>
        <pt x="454" y="106" on="1"/>
        <pt x="454" y="-6" on="0"/>
        <pt x="418" y="-100" on="1"/>
        <pt x="399" y="-151" on="0"/>
        <pt x="321" y="-214" on="0"/>
        <pt x="201" y="-214" on="0"/>
        <pt x="99" y="-172" on="0"/>
        <pt x="55" y="-111" on="1"/>
        <pt x="125" y="-53" on="1"/>
        <pt x="150" y="-89" on="0"/>
        <pt x="232" y="-136" on="0"/>
        <pt x="310" y="-136" on="0"/>
        <pt x="332" y="-100" on="1"/>
        <pt x="370" y="-39" on="0"/>
        <pt x="370" y="71" on="1"/>
        <pt x="370" y="99" on="0"/>
        <pt x="367" y="117" on="1"/>
        <pt x="307" y="35" on="0"/>
        <pt x="227" y="35" on="1"/>
        <pt x="160" y="35" on="0"/>
        <pt x="70" y="103" on="0"/>
        <pt x="36" y="199" on="0"/>
        <pt x="36" y="258" on="1"/>
      </contour>
      <contour>
        <pt x="291" y="116" on="0"/>
        <pt x="370" y="214" on="0"/>
        <pt x="370" y="331" on="0"/>
        <pt x="291" y="411" on="0"/>
        <pt x="190" y="411" on="0"/>
        <pt x="120" y="320" on="0"/>
        <pt x="120" y="203" on="0"/>
        <pt x="173" y="116" on="0"/>
      </contour>
    </TTGlyph>
    <TTGlyph name="g_j" xMin="36" yMin="-214" xMax="730" yMax="642">
      <contour>
        <pt x="375" y="-168" on="1"/>
        <pt x="331" y="-214" on="0"/>
        <pt x="188" y="-214" on="0"/>
        <pt x="103" y="-142" on="0"/>
        <pt x="103" y="-53" on="0"/>
        <pt x="164" y="4" on="0"/>
        <pt x="218" y="4" on="1"/>
        <pt x="265" y="4" on="0"/>
        <pt x="312" y="-28" on="1"/>
        <pt x="328" y="-40" on="0"/>
        <pt x="355" y="-62" on="1"/>
        <pt x="370" y="-12" on="0"/>
        <pt x="370" y="99" on="0"/>
        <pt x="367" y="117" on="1"/>
        <pt x="307" y="35" on="0"/>
        <pt x="227" y="35" on="1"/>
        <pt x="160" y="35" on="0"/>
        <pt x="70" y="103" on="0"/>
        <pt x="36" y="199" on="0"/>
        <pt x="36" y="258" on="1"/>
        <pt x="36" y="356" on="0"/>
        <pt x="137" y="485" on="0"/>
        <pt x="322" y="485" on="0"/>
        <pt x="367" y="429" on="1"/>
        <pt x="376" y="432" on="1"/>
        <pt x="387" y="490" on="1"/>
        <pt x="451" y="484" on="1"/>
        <pt x="454" y="300" on="0"/>
        <pt x="454" y="106" on="1"/>
        <pt x="454" y="-20" on="0"/>
        <pt x="416" y="-105" on="1"/>
        <pt x="462" y="-132" on="0"/>
        <pt x="509" y="-132" on="1"/>
        <pt x="635" y="-132" on="0"/>
        <pt x="635" y="295" on="0"/>
        <pt x="631" y="411" on="1"/>
        <pt x="569" y="411" on="1"/>
        <pt x="574" y="478" on="1"/>
        <pt x="715" y="480" on="1"/>
        <pt x="717" y="199" on="0"/>
        <pt x="717" y="61" on="0"/>
        <pt x="698" y="-59" on="0"/>
        <pt x="675" y="-110" on="1"/>
        <pt x="629" y="-213" on="0"/>
        <pt x="498" y="-213" on="1"/>
        <pt x="436" y="-213" on="0"/>
      </contour>
      <contour>
        <pt x="291" y="116" on="0"/>
        <pt x="370" y="214" on="0"/>
        <pt x="370" y="331" on="0"/>
        <pt x="291" y="411" on="0"/>
        <pt x="190" y="411" on="0"/>
        <pt x="120" y="320" on="0"/>
        <pt x="120" y="203" on="0"/>
        <pt x="173" y="116" on="0"/>
      </contour>
      <contour>
        <pt x="730" y="570" on="0"/>
        <pt x="697" y="534" on="0"/>
        <pt x="641" y="534" on="0"/>
        <pt x="610" y="559" on="0"/>
        <pt x="610" y="606" on="0"/>
        <pt x="648" y="642" on="0"/>
        <pt x="679" y="642" on="1"/>
        <pt x="730" y="642" on="0"/>
        <pt x="730" y="597" on="1"/>
      </contour>
      <contour>
        <pt x="172" y="-113" on="0"/>
        <pt x="215" y="-145" on="0"/>
        <pt x="294" y="-145" on="0"/>
        <pt x="320" y="-121" on="1"/>
        <pt x="287" y="-90" on="0"/>
        <pt x="238" y="-60" on="0"/>
        <pt x="193" y="-60" on="0"/>
        <pt x="172" y="-79" on="0"/>
      </contour>
    </TTGlyph>
    <TTGlyph name="g_y" xMin="36" yMin="-216" xMax="991" yMax="490">
      <contour>
        <pt x="53" y="-59" on="0"/>
        <pt x="127" y="-1" on="0"/>
        <pt x="273" y="-1" on="0"/>
        <pt x="349" y="-34" on="1"/>
        <pt x="370" y="15" on="0"/>
        <pt x="370" y="99" on="0"/>
        <pt x="367" y="117" on="1"/>
        <pt x="307" y="35" on="0"/>
        <pt x="227" y="35" on="1"/>
        <pt x="160" y="35" on="0"/>
        <pt x="70" y="103" on="0"/>
        <pt x="36" y="199" on="0"/>
        <pt x="36" y="258" on="1"/>
        <pt x="36" y="356" on="0"/>
        <pt x="137" y="485" on="0"/>
        <pt x="322" y="485" on="0"/>
        <pt x="367" y="429" on="1"/>
        <pt x="376" y="432" on="1"/>
        <pt x="387" y="490" on="1"/>
        <pt x="451" y="484" on="1"/>
        <pt x="454" y="300" on="0"/>
        <pt x="454" y="106" on="1"/>
        <pt x="454" y="7" on="0"/>
        <pt x="423" y="-71" on="1"/>
        <pt x="472" y="-97" on="0"/>
        <pt x="510" y="-117" on="0"/>
        <pt x="590" y="-142" on="0"/>
        <pt x="671" y="-142" on="0"/>
        <pt x="737" y="-86" on="0"/>
        <pt x="737" y="-4" on="0"/>
        <pt x="704" y="76" on="1"/>
        <pt x="546" y="461" on="1"/>
        <pt x="644" y="484" on="1"/>
        <pt x="782" y="90" on="1"/>
        <pt x="896" y="480" on="1"/>
        <pt x="991" y="462" on="1"/>
        <pt x="848" y="74" on="0"/>
        <pt x="787" y="-126" on="0"/>
        <pt x="697" y="-216" on="0"/>
        <pt x="608" y="-216" on="1"/>
        <pt x="542" y="-216" on="0"/>
        <pt x="439" y="-176" on="0"/>
        <pt x="382" y="-140" on="1"/>
        <pt x="319" y="-216" on="0"/>
        <pt x="216" y="-216" on="1"/>
        <pt x="131" y="-216" on="0"/>
        <pt x="53" y="-152" on="0"/>
      </contour>
      <contour>
        <pt x="291" y="116" on="0"/>
        <pt x="370" y="214" on="0"/>
        <pt x="370" y="331" on="0"/>
        <pt x="291" y="411" on="0"/>
        <pt x="190" y="411" on="0"/>
        <pt x="120" y="320" on="0"/>
        <pt x="120" y="203" on="0"/>
        <pt x="173" y="116" on="0"/>
      </contour>
      <contour>
        <pt x="209" y="-139" on="1"/>
        <pt x="267" y="-139" on="0"/>
        <pt x="309" y="-97" on="1"/>
        <pt x="253" y="-68" on="0"/>
        <pt x="173" y="-68" on="0"/>
        <pt x="134" y="-89" on="0"/>
        <pt x="134" y="-118" on="0"/>
        <pt x="173" y="-139" on="0"/>
      </contour>
    </TTGlyph>
    <TTGlyph name="germandbls" xMin="17" yMin="-5" xMax="580" yMax="694">
      <contour>
        <pt x="76" y="-5" on="1"/>
        <pt x="80" y="385" on="1"/>
        <pt x="18" y="383" on="1"/>
        <pt x="17" y="415" on="1"/>
        <pt x="88" y="456" on="1"/>
        <pt x="96" y="561" on="0"/>
        <pt x="201" y="694" on="0"/>
        <pt x="379" y="694" on="0"/>
        <pt x="478" y="608" on="0"/>
        <pt x="478" y="538" on="1"/>
        <pt x="478" y="503" on="0"/>
        <pt x="441" y="452" on="0"/>
        <pt x="389" y="421" on="0"/>
        <pt x="362" y="408" on="1"/>
        <pt x="300" y="376" on="0"/>
        <pt x="300" y="335" on="1"/>
        <pt x="300" y="285" on="0"/>
        <pt x="399" y="266" on="1"/>
        <pt x="440" y="258" on="0"/>
        <pt x="522" y="237" on="0"/>
        <pt x="580" y="184" on="0"/>
        <pt x="580" y="140" on="1"/>
        <pt x="580" y="77" on="0"/>
        <pt x="485" y="-2" on="0"/>
        <pt x="356" y="-2" on="0"/>
        <pt x="245" y="39" on="0"/>
        <pt x="210" y="72" on="1"/>
        <pt x="222" y="86" on="0"/>
        <pt x="256" y="133" on="1"/>
        <pt x="284" y="104" on="0"/>
        <pt x="377" y="65" on="0"/>
        <pt x="457" y="65" on="0"/>
        <pt x="500" y="105" on="0"/>
        <pt x="500" y="155" on="0"/>
        <pt x="445" y="180" on="0"/>
        <pt x="366" y="195" on="0"/>
        <pt x="287" y="218" on="0"/>
        <pt x="232" y="276" on="0"/>
        <pt x="232" y="364" on="0"/>
        <pt x="267" y="420" on="0"/>
        <pt x="317" y="450" on="0"/>
        <pt x="342" y="462" on="1"/>
        <pt x="402" y="491" on="0"/>
        <pt x="402" y="537" on="1"/>
        <pt x="402" y="569" on="0"/>
        <pt x="337" y="619" on="0"/>
        <pt x="232" y="619" on="0"/>
        <pt x="167" y="525" on="0"/>
        <pt x="167" y="457" on="1"/>
        <pt x="166" y="7" on="1"/>
      </contour>
    </TTGlyph>
    <TTGlyph name="grave" xMin="6" yMin="516" xMax="189" yMax="693">
      <contour>
        <pt x="88" y="693" on="1"/>
        <pt x="189" y="551" on="1"/>
        <pt x="134" y="516" on="1"/>
        <pt x="6" y="658" on="1"/>
      </contour>
    </TTGlyph>
    <TTGlyph name="greater" xMin="70" yMin="40" xMax="610" yMax="594">
      <contour>
        <pt x="524" y="317" on="1"/>
        <pt x="70" y="523" on="1"/>
        <pt x="104" y="594" on="1"/>
        <pt x="610" y="354" on="1"/>
        <pt x="610" y="280" on="1"/>
        <pt x="104" y="40" on="1"/>
        <pt x="70" y="111" on="1"/>
      </contour>
    </TTGlyph>
    <TTGlyph name="greaterequal" xMin="70" yMin="-2" xMax="610" yMax="661">
      <contour>
        <pt x="609" y="72" on="1"/>
        <pt x="609" y="-2" on="1"/>
        <pt x="483" y="0" on="0"/>
        <pt x="357" y="0" on="1"/>
        <pt x="105" y="-2" on="1"/>
        <pt x="105" y="72" on="1"/>
        <pt x="231" y="70" on="0"/>
        <pt x="357" y="70" on="1"/>
      </contour>
      <contour>
        <pt x="524" y="394" on="1"/>
        <pt x="70" y="590" on="1"/>
        <pt x="104" y="661" on="1"/>
        <pt x="610" y="431" on="1"/>
        <pt x="610" y="357" on="1"/>
        <pt x="104" y="127" on="1"/>
        <pt x="70" y="198" on="1"/>
      </contour>
    </TTGlyph>
    <TTGlyph name="guillemotleft" xMin="50" yMin="93" xMax="441" yMax="421">
      <contour>
        <pt x="197" y="93" on="1"/>
        <pt x="50" y="257" on="1"/>
        <pt x="197" y="421" on="1"/>
        <pt x="256" y="370" on="1"/>
        <pt x="135" y="258" on="1"/>
        <pt x="256" y="144" on="1"/>
      </contour>
      <contour>
        <pt x="382" y="93" on="1"/>
        <pt x="235" y="257" on="1"/>
        <pt x="382" y="421" on="1"/>
        <pt x="441" y="370" on="1"/>
        <pt x="320" y="258" on="1"/>
        <pt x="441" y="144" on="1"/>
      </contour>
    </TTGlyph>
    <TTGlyph name="guillemotright" xMin="50" yMin="93" xMax="441" yMax="421">
      <contour>
        <pt x="441" y="257" on="1"/>
        <pt x="294" y="93" on="1"/>
        <pt x="235" y="144" on="1"/>
        <pt x="356" y="258" on="1"/>
        <pt x="235" y="370" on="1"/>
        <pt x="294" y="421" on="1"/>
      </contour>
      <contour>
        <pt x="256" y="257" on="1"/>
        <pt x="109" y="93" on="1"/>
        <pt x="50" y="144" on="1"/>
        <pt x="171" y="258" on="1"/>
        <pt x="50" y="370" on="1"/>
        <pt x="109" y="421" on="1"/>
      </contour>
    </TTGlyph>
    <TTGlyph name="guilsinglleft" xMin="50" yMin="93" xMax="256" yMax="421">
      <contour>
        <pt x="197" y="93" on="1"/>
        <pt x="50" y="257" on="1"/>
        <pt x="197" y="421" on="1"/>
        <pt x="256" y="370" on="1"/>
        <pt x="135" y="258" on="1"/>
        <pt x="256" y="144" on="1"/>
      </contour>
    </TTGlyph>
    <TTGlyph name="guilsinglright" xMin="50" yMin="93" xMax="256" yMax="421">
      <contour>
        <pt x="256" y="257" on="1"/>
        <pt x="109" y="93" on="1"/>
        <pt x="50" y="144" on="1"/>
        <pt x="171" y="258" on="1"/>
        <pt x="50" y="370" on="1"/>
        <pt x="109" y="421" on="1"/>
      </contour>
    </TTGlyph>
    <TTGlyph name="h" xMin="-20" yMin="-5" xMax="467" yMax="731">
      <contour>
        <pt x="464" y="315" on="1"/>
        <pt x="462" y="142" on="1"/>
        <pt x="467" y="1" on="1"/>
        <pt x="375" y="-5" on="1"/>
        <pt x="379" y="187" on="0"/>
        <pt x="379" y="337" on="0"/>
        <pt x="338" y="396" on="0"/>
        <pt x="269" y="396" on="0"/>
        <pt x="193" y="324" on="0"/>
        <pt x="160" y="225" on="0"/>
        <pt x="160" y="13" on="0"/>
        <pt x="164" y="1" on="1"/>
        <pt x="72" y="-5" on="1"/>
        <pt x="68" y="250" on="0"/>
        <pt x="68" y="461" on="0"/>
        <pt x="62" y="653" on="1"/>
        <pt x="-15" y="647" on="1"/>
        <pt x="-20" y="724" on="1"/>
        <pt x="153" y="731" on="1"/>
        <pt x="153" y="365" on="1"/>
        <pt x="161" y="363" on="1"/>
        <pt x="169" y="377" on="0"/>
        <pt x="213" y="424" on="0"/>
        <pt x="251" y="455" on="0"/>
        <pt x="306" y="480" on="0"/>
        <pt x="332" y="480" on="1"/>
        <pt x="400" y="480" on="0"/>
        <pt x="464" y="387" on="0"/>
      </contour>
    </TTGlyph>
    <TTGlyph name="hbar" xMin="-20" yMin="-5" xMax="467" yMax="731">
      <contour>
        <pt x="13" y="579" on="1"/>
        <pt x="48" y="579" on="0"/>
        <pt x="64" y="577" on="1"/>
        <pt x="62" y="635" on="0"/>
        <pt x="62" y="653" on="1"/>
        <pt x="-15" y="647" on="1"/>
        <pt x="-20" y="724" on="1"/>
        <pt x="153" y="731" on="1"/>
        <pt x="153" y="577" on="1"/>
        <pt x="278" y="579" on="1"/>
        <pt x="280" y="542" on="0"/>
        <pt x="280" y="505" on="0"/>
        <pt x="278" y="505" on="1"/>
        <pt x="244" y="507" on="0"/>
        <pt x="153" y="507" on="1"/>
        <pt x="153" y="365" on="1"/>
        <pt x="161" y="363" on="1"/>
        <pt x="169" y="377" on="0"/>
        <pt x="213" y="424" on="0"/>
        <pt x="251" y="455" on="0"/>
        <pt x="306" y="480" on="0"/>
        <pt x="332" y="480" on="1"/>
        <pt x="400" y="480" on="0"/>
        <pt x="464" y="387" on="0"/>
        <pt x="464" y="315" on="1"/>
        <pt x="462" y="142" on="1"/>
        <pt x="467" y="1" on="1"/>
        <pt x="375" y="-5" on="1"/>
        <pt x="379" y="187" on="0"/>
        <pt x="379" y="337" on="0"/>
        <pt x="338" y="396" on="0"/>
        <pt x="269" y="396" on="0"/>
        <pt x="193" y="324" on="0"/>
        <pt x="160" y="225" on="0"/>
        <pt x="160" y="13" on="0"/>
        <pt x="164" y="1" on="1"/>
        <pt x="72" y="-5" on="1"/>
        <pt x="68" y="250" on="0"/>
        <pt x="68" y="372" on="0"/>
        <pt x="65" y="505" on="1"/>
        <pt x="1" y="501" on="1"/>
        <pt x="2" y="579" on="1"/>
      </contour>
    </TTGlyph>
    <TTGlyph name="hungarumlaut" xMin="10" yMin="516" xMax="391" yMax="693">
      <contour>
        <pt x="10" y="551" on="1"/>
        <pt x="111" y="693" on="1"/>
        <pt x="193" y="658" on="1"/>
        <pt x="65" y="516" on="1"/>
      </contour>
      <contour>
        <pt x="208" y="551" on="1"/>
        <pt x="309" y="693" on="1"/>
        <pt x="391" y="658" on="1"/>
        <pt x="263" y="516" on="1"/>
      </contour>
    </TTGlyph>
    <TTGlyph name="hyphen" xMin="30" yMin="271" xMax="283" yMax="348">
      <contour>
        <pt x="42" y="348" on="1"/>
        <pt x="93" y="346" on="0"/>
        <pt x="151" y="346" on="1"/>
        <pt x="283" y="348" on="1"/>
        <pt x="256" y="271" on="0"/>
        <pt x="252" y="271" on="1"/>
        <pt x="192" y="274" on="0"/>
        <pt x="164" y="274" on="1"/>
        <pt x="30" y="272" on="1"/>
      </contour>
    </TTGlyph>
    <TTGlyph name="i" xMin="17" yMin="-4" xMax="188" yMax="642">
      <contour>
        <pt x="17" y="417" on="1"/>
        <pt x="20" y="483" on="1"/>
        <pt x="169" y="483" on="1"/>
        <pt x="169" y="0" on="1"/>
        <pt x="90" y="-4" on="1"/>
        <pt x="90" y="93" on="0"/>
        <pt x="82" y="370" on="0"/>
        <pt x="81" y="419" on="1"/>
      </contour>
      <contour>
        <pt x="188" y="570" on="0"/>
        <pt x="155" y="534" on="0"/>
        <pt x="99" y="534" on="0"/>
        <pt x="68" y="559" on="0"/>
        <pt x="68" y="606" on="0"/>
        <pt x="106" y="642" on="0"/>
        <pt x="137" y="642" on="1"/>
        <pt x="188" y="642" on="0"/>
        <pt x="188" y="597" on="1"/>
      </contour>
    </TTGlyph>
    <TTGlyph name="iacute" xMin="21" yMin="-4" xMax="242" yMax="693">
      <contour>
        <pt x="59" y="551" on="1"/>
        <pt x="160" y="693" on="1"/>
        <pt x="242" y="658" on="1"/>
        <pt x="114" y="516" on="1"/>
      </contour>
      <contour>
        <pt x="21" y="415" on="1"/>
        <pt x="21" y="482" on="1"/>
        <pt x="169" y="479" on="1"/>
        <pt x="166" y="0" on="1"/>
        <pt x="91" y="-4" on="1"/>
        <pt x="91" y="93" on="0"/>
        <pt x="83" y="365" on="0"/>
        <pt x="82" y="415" on="1"/>
      </contour>
    </TTGlyph>
    <TTGlyph name="icircumflex" xMin="-21" yMin="-4" xMax="262" yMax="693">
      <contour>
        <pt x="17" y="417" on="1"/>
        <pt x="20" y="483" on="1"/>
        <pt x="169" y="483" on="1"/>
        <pt x="169" y="0" on="1"/>
        <pt x="90" y="-4" on="1"/>
        <pt x="90" y="93" on="0"/>
        <pt x="82" y="370" on="0"/>
        <pt x="81" y="419" on="1"/>
      </contour>
      <contour>
        <pt x="180" y="516" on="1"/>
        <pt x="121" y="620" on="1"/>
        <pt x="61" y="516" on="1"/>
        <pt x="-21" y="551" on="1"/>
        <pt x="110" y="693" on="1"/>
        <pt x="132" y="693" on="1"/>
        <pt x="262" y="551" on="1"/>
      </contour>
    </TTGlyph>
    <TTGlyph name="idieresis" xMin="-16" yMin="-4" xMax="253" yMax="643">
      <contour>
        <pt x="179" y="533" on="0"/>
        <pt x="155" y="563" on="0"/>
        <pt x="155" y="612" on="0"/>
        <pt x="190" y="643" on="0"/>
        <pt x="232" y="643" on="0"/>
        <pt x="253" y="617" on="0"/>
        <pt x="253" y="569" on="0"/>
        <pt x="222" y="533" on="0"/>
      </contour>
      <contour>
        <pt x="7" y="533" on="0"/>
        <pt x="-16" y="562" on="0"/>
        <pt x="-16" y="613" on="0"/>
        <pt x="16" y="643" on="0"/>
        <pt x="38" y="643" on="1"/>
        <pt x="82" y="643" on="0"/>
        <pt x="82" y="597" on="1"/>
        <pt x="82" y="570" on="0"/>
        <pt x="48" y="533" on="0"/>
      </contour>
      <contour>
        <pt x="17" y="417" on="1"/>
        <pt x="20" y="483" on="1"/>
        <pt x="169" y="483" on="1"/>
        <pt x="169" y="0" on="1"/>
        <pt x="90" y="-4" on="1"/>
        <pt x="90" y="93" on="0"/>
        <pt x="82" y="370" on="0"/>
        <pt x="81" y="419" on="1"/>
      </contour>
    </TTGlyph>
    <TTGlyph name="igrave" xMin="-30" yMin="-4" xMax="169" yMax="693">
      <contour>
        <pt x="52" y="693" on="1"/>
        <pt x="153" y="551" on="1"/>
        <pt x="98" y="516" on="1"/>
        <pt x="-30" y="658" on="1"/>
      </contour>
      <contour>
        <pt x="17" y="417" on="1"/>
        <pt x="20" y="483" on="1"/>
        <pt x="169" y="483" on="1"/>
        <pt x="169" y="0" on="1"/>
        <pt x="90" y="-4" on="1"/>
        <pt x="90" y="93" on="0"/>
        <pt x="82" y="370" on="0"/>
        <pt x="81" y="419" on="1"/>
      </contour>
    </TTGlyph>
    <TTGlyph name="ij" xMin="17" yMin="-213" xMax="437" yMax="642">
      <contour>
        <pt x="17" y="417" on="1"/>
        <pt x="20" y="483" on="1"/>
        <pt x="169" y="483" on="1"/>
        <pt x="169" y="0" on="1"/>
        <pt x="90" y="-4" on="1"/>
        <pt x="90" y="93" on="0"/>
        <pt x="82" y="370" on="0"/>
        <pt x="81" y="419" on="1"/>
      </contour>
      <contour>
        <pt x="188" y="570" on="0"/>
        <pt x="155" y="534" on="0"/>
        <pt x="99" y="534" on="0"/>
        <pt x="68" y="559" on="0"/>
        <pt x="68" y="606" on="0"/>
        <pt x="106" y="642" on="0"/>
        <pt x="137" y="642" on="1"/>
        <pt x="188" y="642" on="0"/>
        <pt x="188" y="597" on="1"/>
      </contour>
      <contour>
        <pt x="276" y="411" on="1"/>
        <pt x="281" y="478" on="1"/>
        <pt x="422" y="480" on="1"/>
        <pt x="424" y="199" on="0"/>
        <pt x="424" y="142" on="1"/>
        <pt x="424" y="-213" on="0"/>
        <pt x="205" y="-213" on="1"/>
        <pt x="144" y="-213" on="0"/>
        <pt x="85" y="-186" on="1"/>
        <pt x="121" y="-103" on="1"/>
        <pt x="173" y="-132" on="0"/>
        <pt x="216" y="-132" on="1"/>
        <pt x="278" y="-132" on="0"/>
        <pt x="341" y="-15" on="0"/>
        <pt x="342" y="85" on="1"/>
        <pt x="342" y="295" on="0"/>
        <pt x="338" y="411" on="1"/>
      </contour>
      <contour>
        <pt x="437" y="570" on="0"/>
        <pt x="404" y="534" on="0"/>
        <pt x="348" y="534" on="0"/>
        <pt x="317" y="559" on="0"/>
        <pt x="317" y="606" on="0"/>
        <pt x="355" y="642" on="0"/>
        <pt x="386" y="642" on="1"/>
        <pt x="437" y="642" on="0"/>
        <pt x="437" y="597" on="1"/>
      </contour>
    </TTGlyph>
    <TTGlyph name="infinity" xMin="70" yMin="127" xMax="762" yMax="445">
      <contour>
        <pt x="469" y="185" on="0"/>
        <pt x="421" y="238" on="0"/>
        <pt x="419" y="240" on="1"/>
        <pt x="417" y="238" on="0"/>
        <pt x="376" y="195" on="0"/>
        <pt x="351" y="174" on="0"/>
        <pt x="327" y="158" on="1"/>
        <pt x="280" y="127" on="0"/>
        <pt x="147" y="127" on="0"/>
        <pt x="70" y="223" on="0"/>
        <pt x="70" y="353" on="0"/>
        <pt x="146" y="445" on="0"/>
        <pt x="284" y="445" on="0"/>
        <pt x="334" y="408" on="1"/>
        <pt x="376" y="377" on="0"/>
        <pt x="419" y="331" on="1"/>
        <pt x="453" y="368" on="0"/>
        <pt x="498" y="409" on="0"/>
        <pt x="574" y="445" on="0"/>
        <pt x="617" y="445" on="1"/>
        <pt x="686" y="445" on="0"/>
        <pt x="762" y="353" on="0"/>
        <pt x="762" y="223" on="0"/>
        <pt x="685" y="127" on="0"/>
        <pt x="553" y="127" on="0"/>
      </contour>
      <contour>
        <pt x="376" y="286" on="1"/>
        <pt x="344" y="318" on="0"/>
        <pt x="328" y="332" on="1"/>
        <pt x="281" y="375" on="0"/>
        <pt x="200" y="375" on="0"/>
        <pt x="148" y="321" on="0"/>
        <pt x="148" y="248" on="0"/>
        <pt x="199" y="197" on="0"/>
        <pt x="245" y="197" on="1"/>
        <pt x="281" y="197" on="0"/>
        <pt x="328" y="240" on="1"/>
        <pt x="344" y="254" on="0"/>
      </contour>
      <contour>
        <pt x="461" y="286" on="1"/>
        <pt x="484" y="262" on="1"/>
        <pt x="550" y="197" on="0"/>
        <pt x="639" y="197" on="0"/>
        <pt x="690" y="248" on="0"/>
        <pt x="690" y="321" on="0"/>
        <pt x="638" y="375" on="0"/>
        <pt x="593" y="375" on="1"/>
        <pt x="550" y="375" on="0"/>
        <pt x="484" y="310" on="1"/>
      </contour>
    </TTGlyph>
    <TTGlyph name="integral" xMin="-35" yMin="-262" xMax="338" yMax="732">
      <contour>
        <pt x="185" y="526" on="1"/>
        <pt x="200" y="-13" on="1"/>
        <pt x="200" y="-38" on="1"/>
        <pt x="200" y="-262" on="0"/>
        <pt x="71" y="-262" on="1"/>
        <pt x="25" y="-262" on="0"/>
        <pt x="-35" y="-234" on="1"/>
        <pt x="-1" y="-152" on="1"/>
        <pt x="48" y="-184" on="0"/>
        <pt x="71" y="-184" on="1"/>
        <pt x="118" y="-184" on="0"/>
        <pt x="118" y="-74" on="1"/>
        <pt x="118" y="-56" on="1"/>
        <pt x="103" y="483" on="1"/>
        <pt x="103" y="508" on="1"/>
        <pt x="103" y="732" on="0"/>
        <pt x="232" y="732" on="1"/>
        <pt x="278" y="732" on="0"/>
        <pt x="338" y="704" on="1"/>
        <pt x="304" y="622" on="1"/>
        <pt x="255" y="654" on="0"/>
        <pt x="232" y="654" on="1"/>
        <pt x="185" y="654" on="0"/>
        <pt x="185" y="544" on="1"/>
      </contour>
    </TTGlyph>
    <TTGlyph name="itilde" xMin="-59" yMin="-4" xMax="285" yMax="652">
      <contour>
        <pt x="17" y="417" on="1"/>
        <pt x="20" y="483" on="1"/>
        <pt x="169" y="483" on="1"/>
        <pt x="169" y="0" on="1"/>
        <pt x="90" y="-4" on="1"/>
        <pt x="90" y="93" on="0"/>
        <pt x="82" y="370" on="0"/>
        <pt x="81" y="419" on="1"/>
      </contour>
      <contour>
        <pt x="7" y="533" on="1"/>
        <pt x="-59" y="563" on="1"/>
        <pt x="-9" y="645" on="0"/>
        <pt x="52" y="645" on="1"/>
        <pt x="77" y="645" on="0"/>
        <pt x="158" y="611" on="0"/>
        <pt x="173" y="611" on="1"/>
        <pt x="203" y="611" on="0"/>
        <pt x="222" y="652" on="1"/>
        <pt x="285" y="617" on="1"/>
        <pt x="252" y="534" on="0"/>
        <pt x="199" y="534" on="1"/>
        <pt x="175" y="534" on="0"/>
        <pt x="81" y="579" on="0"/>
        <pt x="61" y="579" on="1"/>
        <pt x="26" y="579" on="0"/>
      </contour>
    </TTGlyph>
    <TTGlyph name="j" xMin="-139" yMin="-213" xMax="213" yMax="642">
      <contour>
        <pt x="52" y="411" on="1"/>
        <pt x="57" y="478" on="1"/>
        <pt x="198" y="480" on="1"/>
        <pt x="200" y="199" on="0"/>
        <pt x="200" y="142" on="1"/>
        <pt x="200" y="-213" on="0"/>
        <pt x="-19" y="-213" on="1"/>
        <pt x="-80" y="-213" on="0"/>
        <pt x="-139" y="-186" on="1"/>
        <pt x="-103" y="-103" on="1"/>
        <pt x="-51" y="-132" on="0"/>
        <pt x="-8" y="-132" on="1"/>
        <pt x="54" y="-132" on="0"/>
        <pt x="117" y="-15" on="0"/>
        <pt x="118" y="85" on="1"/>
        <pt x="118" y="295" on="0"/>
        <pt x="114" y="411" on="1"/>
      </contour>
      <contour>
        <pt x="213" y="570" on="0"/>
        <pt x="180" y="534" on="0"/>
        <pt x="124" y="534" on="0"/>
        <pt x="93" y="559" on="0"/>
        <pt x="93" y="606" on="0"/>
        <pt x="131" y="642" on="0"/>
        <pt x="162" y="642" on="1"/>
        <pt x="213" y="642" on="0"/>
        <pt x="213" y="597" on="1"/>
      </contour>
    </TTGlyph>
    <TTGlyph name="j_j" xMin="-153" yMin="-216" xMax="490" yMax="642">
      <contour>
        <pt x="-11" y="-216" on="1"/>
        <pt x="-64" y="-216" on="0"/>
        <pt x="-153" y="-150" on="0"/>
        <pt x="-153" y="-98" on="1"/>
        <pt x="-153" y="-60" on="0"/>
        <pt x="-97" y="4" on="0"/>
        <pt x="-41" y="4" on="1"/>
        <pt x="9" y="4" on="0"/>
        <pt x="56" y="-27" on="1"/>
        <pt x="72" y="-38" on="0"/>
        <pt x="97" y="-59" on="1"/>
        <pt x="116" y="-9" on="0"/>
        <pt x="118" y="85" on="1"/>
        <pt x="118" y="295" on="0"/>
        <pt x="114" y="411" on="1"/>
        <pt x="52" y="411" on="1"/>
        <pt x="57" y="478" on="1"/>
        <pt x="198" y="480" on="1"/>
        <pt x="200" y="199" on="0"/>
        <pt x="200" y="142" on="1"/>
        <pt x="200" y="-20" on="0"/>
        <pt x="160" y="-105" on="1"/>
        <pt x="213" y="-135" on="0"/>
        <pt x="332" y="-135" on="0"/>
        <pt x="394" y="-16" on="0"/>
        <pt x="395" y="85" on="1"/>
        <pt x="395" y="295" on="0"/>
        <pt x="391" y="411" on="1"/>
        <pt x="329" y="411" on="1"/>
        <pt x="334" y="478" on="1"/>
        <pt x="475" y="480" on="1"/>
        <pt x="477" y="199" on="0"/>
        <pt x="477" y="142" on="1"/>
        <pt x="477" y="-213" on="0"/>
        <pt x="258" y="-213" on="1"/>
        <pt x="185" y="-213" on="0"/>
        <pt x="118" y="-167" on="1"/>
        <pt x="69" y="-216" on="0"/>
      </contour>
      <contour>
        <pt x="490" y="570" on="0"/>
        <pt x="457" y="534" on="0"/>
        <pt x="401" y="534" on="0"/>
        <pt x="370" y="559" on="0"/>
        <pt x="370" y="606" on="0"/>
        <pt x="408" y="642" on="0"/>
        <pt x="439" y="642" on="1"/>
        <pt x="490" y="642" on="0"/>
        <pt x="490" y="597" on="1"/>
      </contour>
      <contour>
        <pt x="213" y="570" on="0"/>
        <pt x="180" y="534" on="0"/>
        <pt x="124" y="534" on="0"/>
        <pt x="93" y="559" on="0"/>
        <pt x="93" y="606" on="0"/>
        <pt x="131" y="642" on="0"/>
        <pt x="162" y="642" on="1"/>
        <pt x="213" y="642" on="0"/>
        <pt x="213" y="597" on="1"/>
      </contour>
      <contour>
        <pt x="-87" y="-114" on="0"/>
        <pt x="-48" y="-145" on="0"/>
        <pt x="27" y="-145" on="0"/>
        <pt x="58" y="-119" on="1"/>
        <pt x="17" y="-83" on="0"/>
        <pt x="-25" y="-60" on="0"/>
        <pt x="-63" y="-60" on="0"/>
        <pt x="-87" y="-80" on="0"/>
      </contour>
    </TTGlyph>
    <TTGlyph name="j_y" xMin="-182" yMin="-216" xMax="751" yMax="642">
      <contour>
        <pt x="137" y="-134" on="1"/>
        <pt x="83" y="-213" on="0"/>
        <pt x="-119" y="-213" on="0"/>
        <pt x="-160" y="-160" on="1"/>
        <pt x="-182" y="-133" on="0"/>
        <pt x="-182" y="-80" on="0"/>
        <pt x="-162" y="-54" on="1"/>
        <pt x="-123" y="-1" on="0"/>
        <pt x="-24" y="-1" on="1"/>
        <pt x="30" y="-1" on="0"/>
        <pt x="102" y="-32" on="1"/>
        <pt x="116" y="16" on="0"/>
        <pt x="118" y="85" on="1"/>
        <pt x="118" y="295" on="0"/>
        <pt x="114" y="411" on="1"/>
        <pt x="52" y="411" on="1"/>
        <pt x="57" y="480" on="1"/>
        <pt x="198" y="480" on="1"/>
        <pt x="200" y="199" on="0"/>
        <pt x="200" y="142" on="1"/>
        <pt x="200" y="14" on="0"/>
        <pt x="171" y="-66" on="1"/>
        <pt x="225" y="-94" on="0"/>
        <pt x="266" y="-115" on="0"/>
        <pt x="349" y="-142" on="0"/>
        <pt x="428" y="-142" on="0"/>
        <pt x="497" y="-86" on="0"/>
        <pt x="497" y="-4" on="0"/>
        <pt x="464" y="76" on="1"/>
        <pt x="306" y="461" on="1"/>
        <pt x="404" y="484" on="1"/>
        <pt x="542" y="90" on="1"/>
        <pt x="656" y="480" on="1"/>
        <pt x="751" y="462" on="1"/>
        <pt x="608" y="74" on="0"/>
        <pt x="547" y="-125" on="0"/>
        <pt x="454" y="-216" on="0"/>
        <pt x="365" y="-216" on="1"/>
        <pt x="328" y="-216" on="0"/>
        <pt x="239" y="-187" on="0"/>
        <pt x="188" y="-162" on="0"/>
      </contour>
      <contour>
        <pt x="213" y="570" on="0"/>
        <pt x="180" y="534" on="0"/>
        <pt x="124" y="534" on="0"/>
        <pt x="93" y="559" on="0"/>
        <pt x="93" y="606" on="0"/>
        <pt x="131" y="642" on="0"/>
        <pt x="162" y="642" on="1"/>
        <pt x="213" y="642" on="0"/>
        <pt x="213" y="597" on="1"/>
      </contour>
      <contour>
        <pt x="-23" y="-138" on="1"/>
        <pt x="33" y="-138" on="0"/>
        <pt x="68" y="-97" on="1"/>
        <pt x="7" y="-68" on="0"/>
        <pt x="-83" y="-68" on="0"/>
        <pt x="-95" y="-94" on="1"/>
        <pt x="-97" y="-99" on="0"/>
        <pt x="-97" y="-104" on="1"/>
        <pt x="-97" y="-119" on="0"/>
        <pt x="-54" y="-138" on="0"/>
      </contour>
    </TTGlyph>
    <TTGlyph name="jcircumflex" xMin="-139" yMin="-213" xMax="280" yMax="693">
      <contour>
        <pt x="52" y="411" on="1"/>
        <pt x="57" y="478" on="1"/>
        <pt x="198" y="480" on="1"/>
        <pt x="200" y="199" on="0"/>
        <pt x="200" y="142" on="1"/>
        <pt x="200" y="-213" on="0"/>
        <pt x="-19" y="-213" on="1"/>
        <pt x="-80" y="-213" on="0"/>
        <pt x="-139" y="-186" on="1"/>
        <pt x="-103" y="-103" on="1"/>
        <pt x="-51" y="-132" on="0"/>
        <pt x="-8" y="-132" on="1"/>
        <pt x="54" y="-132" on="0"/>
        <pt x="117" y="-15" on="0"/>
        <pt x="118" y="85" on="1"/>
        <pt x="118" y="295" on="0"/>
        <pt x="114" y="411" on="1"/>
      </contour>
      <contour>
        <pt x="198" y="516" on="1"/>
        <pt x="139" y="620" on="1"/>
        <pt x="79" y="516" on="1"/>
        <pt x="-3" y="551" on="1"/>
        <pt x="128" y="693" on="1"/>
        <pt x="150" y="693" on="1"/>
        <pt x="280" y="551" on="1"/>
      </contour>
    </TTGlyph>
    <TTGlyph name="k" xMin="-4" yMin="-12" xMax="448" yMax="729">
      <contour>
        <pt x="160" y="318" on="1"/>
        <pt x="160" y="278" on="1"/>
        <pt x="234" y="287" on="0"/>
        <pt x="341" y="405" on="0"/>
        <pt x="357" y="484" on="1"/>
        <pt x="427" y="468" on="1"/>
        <pt x="427" y="463" on="0"/>
        <pt x="427" y="459" on="1"/>
        <pt x="427" y="413" on="0"/>
        <pt x="351" y="298" on="0"/>
        <pt x="288" y="257" on="1"/>
        <pt x="448" y="8" on="1"/>
        <pt x="352" y="-12" on="1"/>
        <pt x="212" y="220" on="1"/>
        <pt x="187" y="211" on="0"/>
        <pt x="159" y="208" on="1"/>
        <pt x="157" y="1" on="1"/>
        <pt x="76" y="-5" on="1"/>
        <pt x="74" y="278" on="1"/>
        <pt x="74" y="414" on="0"/>
        <pt x="69" y="654" on="1"/>
        <pt x="27" y="650" on="1"/>
        <pt x="3" y="647" on="1"/>
        <pt x="0" y="648" on="1"/>
        <pt x="-4" y="725" on="1"/>
        <pt x="168" y="729" on="1"/>
        <pt x="160" y="384" on="0"/>
      </contour>
    </TTGlyph>
    <TTGlyph name="kcommaaccent" xMin="-4" yMin="-251" xMax="448" yMax="729">
      <contour>
        <pt x="160" y="318" on="1"/>
        <pt x="160" y="278" on="1"/>
        <pt x="234" y="287" on="0"/>
        <pt x="341" y="405" on="0"/>
        <pt x="357" y="484" on="1"/>
        <pt x="427" y="468" on="1"/>
        <pt x="427" y="463" on="0"/>
        <pt x="427" y="459" on="1"/>
        <pt x="427" y="413" on="0"/>
        <pt x="351" y="298" on="0"/>
        <pt x="288" y="257" on="1"/>
        <pt x="448" y="8" on="1"/>
        <pt x="352" y="-12" on="1"/>
        <pt x="212" y="220" on="1"/>
        <pt x="187" y="211" on="0"/>
        <pt x="159" y="208" on="1"/>
        <pt x="157" y="1" on="1"/>
        <pt x="76" y="-5" on="1"/>
        <pt x="74" y="278" on="1"/>
        <pt x="74" y="414" on="0"/>
        <pt x="69" y="654" on="1"/>
        <pt x="27" y="650" on="1"/>
        <pt x="3" y="647" on="1"/>
        <pt x="0" y="648" on="1"/>
        <pt x="-4" y="725" on="1"/>
        <pt x="168" y="729" on="1"/>
        <pt x="160" y="384" on="0"/>
      </contour>
      <contour>
        <pt x="240" y="-33" on="1"/>
        <pt x="295" y="-33" on="0"/>
        <pt x="295" y="-90" on="1"/>
        <pt x="295" y="-114" on="0"/>
        <pt x="260" y="-194" on="0"/>
        <pt x="242" y="-222" on="1"/>
        <pt x="224" y="-251" on="1"/>
        <pt x="160" y="-218" on="1"/>
        <pt x="230" y="-135" on="1"/>
        <pt x="226" y="-131" on="1"/>
        <pt x="212" y="-137" on="0"/>
        <pt x="190" y="-137" on="0"/>
        <pt x="170" y="-111" on="0"/>
        <pt x="170" y="-70" on="0"/>
        <pt x="209" y="-33" on="0"/>
      </contour>
    </TTGlyph>
    <TTGlyph name="kgreenlandic" xMin="1" yMin="-12" xMax="448" yMax="484">
      <contour>
        <pt x="76" y="-5" on="1"/>
        <pt x="73" y="182" on="0"/>
        <pt x="69" y="407" on="1"/>
        <pt x="5" y="404" on="1"/>
        <pt x="1" y="471" on="1"/>
        <pt x="164" y="481" on="1"/>
        <pt x="160" y="278" on="1"/>
        <pt x="234" y="287" on="0"/>
        <pt x="341" y="405" on="0"/>
        <pt x="357" y="484" on="1"/>
        <pt x="427" y="468" on="1"/>
        <pt x="427" y="418" on="0"/>
        <pt x="348" y="297" on="0"/>
        <pt x="288" y="257" on="1"/>
        <pt x="448" y="8" on="1"/>
        <pt x="352" y="-12" on="1"/>
        <pt x="212" y="220" on="1"/>
        <pt x="187" y="211" on="0"/>
        <pt x="159" y="208" on="1"/>
        <pt x="157" y="1" on="1"/>
      </contour>
    </TTGlyph>
    <TTGlyph name="l" xMin="4" yMin="-5" xMax="172" yMax="729">
      <contour>
        <pt x="7" y="647" on="1"/>
        <pt x="4" y="721" on="1"/>
        <pt x="172" y="729" on="1"/>
        <pt x="163" y="342" on="0"/>
        <pt x="163" y="276" on="1"/>
        <pt x="161" y="1" on="1"/>
        <pt x="81" y="-5" on="1"/>
        <pt x="81" y="278" on="1"/>
        <pt x="81" y="420" on="0"/>
        <pt x="76" y="657" on="1"/>
      </contour>
    </TTGlyph>
</ttFont>
